<svg width="0" height="0" class="hidden">
  <symbol fill="none" xmlns="http://www.w3.org/2000/svg" viewBox="0 0 28 28" id="mail">
    <rect x="0.5" y="0.5" width="27" height="27" rx="13.5" stroke="#EBEDEF"></rect>
    <path d="M0 14C0 6.26801 6.26801 0 14 0C21.732 0 28 6.26801 28 14C28 21.732 21.732 28 14 28C6.26801 28 0 21.732 0 14Z" fill="#FF7425"></path>
    <path fill-rule="evenodd" clip-rule="evenodd" d="M6.51965 9.15991C6.03364 9.15991 5.63965 9.5539 5.63965 10.0399V10.3709L10.5681 13.4836L13.9116 15.5953L17.2552 13.4836L22.3596 10.2597V10.0399C22.3596 9.5539 21.9657 9.15991 21.4796 9.15991H6.51965ZM22.3596 11.8209L18.586 14.2043L22.3583 18.8899C22.3592 18.8734 22.3596 18.8567 22.3596 18.8399V11.8209ZM21.3319 19.7199L17.4626 14.9138L14.2641 16.9339L13.9116 17.1565L13.5592 16.9339L10.3377 14.8993L6.14326 19.6356C6.25737 19.6897 6.38498 19.7199 6.51965 19.7199H21.3319ZM5.63965 18.2133L9.20693 14.1851L5.63965 11.9321V18.2133Z" fill="white"></path>
  </symbol>
  <symbol fill="none" xmlns="http://www.w3.org/2000/svg" viewBox="0 0 10 10" id="arrow">
    <g id="Frame 885">
      <path id="↘" d="M0.700758 0L6.875 6.1553L9.84848 9.35606L9.35606 9.84848L6.17424 6.875L0 0.700758L0.700758 0ZM9.05303 2.84091H10V10H2.84091V9.05303H9.82955L9.05303 9.84848V2.84091Z" fill="#515151"></path>
    </g>
  </symbol>
  <symbol fill="none" xmlns="http://www.w3.org/2000/svg" viewBox="0 0 28 28" id="fb">
    <rect x="0.5" y="0.5" width="27" height="27" rx="13.5" stroke="#EBEDEF"></rect>
    <path d="M0 14C0 6.26801 6.26801 0 14 0C21.732 0 28 6.26801 28 14C28 21.732 21.732 28 14 28C6.26801 28 0 21.732 0 14Z" fill="#3B5998"></path>
    <path d="M15.4593 22.2317V14.615H17.5619L17.8405 11.9902H15.4593L15.4629 10.6765C15.4629 9.99188 15.5279 9.62507 16.5112 9.62507H17.8256V7H15.7228C13.1969 7 12.3079 8.2733 12.3079 10.4146V11.9905H10.7334V14.6153H12.3079V22.2317H15.4593Z" fill="white"></path>
  </symbol>
  <symbol fill="none" xmlns="http://www.w3.org/2000/svg" viewBox="0 0 28 28" id="tg">
    <rect x="0.5" y="0.5" width="27" height="27" rx="13.5" stroke="#EBEDEF"></rect>
    <path d="M0 14C0 6.26801 6.26801 0 14 0C21.732 0 28 6.26801 28 14C28 21.732 21.732 28 14 28C6.26801 28 0 21.732 0 14Z" fill="#17C0F6"></path>
    <path fill-rule="evenodd" clip-rule="evenodd" d="M17.4687 20.5454C17.6941 20.705 17.9846 20.7449 18.2436 20.6469C18.5026 20.5482 18.693 20.327 18.7504 20.0589C19.3587 17.2001 20.8343 9.96415 21.388 7.36365C21.43 7.16765 21.36 6.96395 21.206 6.83305C21.052 6.70215 20.8385 6.66435 20.6481 6.73505C17.713 7.82145 8.67389 11.213 4.97929 12.5801C4.74479 12.6669 4.59219 12.8923 4.59989 13.1394C4.60829 13.3872 4.77489 13.6021 5.01499 13.6742C6.67189 14.1698 8.84679 14.8593 8.84679 14.8593C8.84679 14.8593 9.86319 17.9288 10.3931 19.4898C10.4596 19.6858 10.6129 19.8398 10.8152 19.893C11.0168 19.9455 11.2324 19.8902 11.3829 19.7481C12.2341 18.9445 13.5501 17.702 13.5501 17.702C13.5501 17.702 16.0505 19.5353 17.4687 20.5454ZM9.76169 14.4715L10.937 18.3481L11.1981 15.8932C11.1981 15.8932 15.739 11.7975 18.3276 9.46295C18.4032 9.39436 18.4137 9.27956 18.3507 9.19905C18.2884 9.11856 18.1736 9.09965 18.0875 9.15425C15.0873 11.0702 9.76169 14.4715 9.76169 14.4715Z" fill="white"></path>
  </symbol>
  <symbol fill="none" xmlns="http://www.w3.org/2000/svg" viewBox="0 0 28 28" id="vbr">
    <g id="ic_ pictogram">
      <path id="Oval" d="M14 0C21.732 0 28 6.26801 28 14C28 21.732 21.732 28 14 28C6.26801 28 0 21.732 0 14C0 6.26801 6.26801 0 14 0Z" fill="#7F4DA0"></path>
      <path id="Path" d="M17.7295 12.2257C17.6614 11.6725 17.4914 11.2381 17.1895 10.8534C16.7974 10.358 16.2963 10.0613 15.5545 9.88536C15.0711 9.76806 14.8757 9.78153 14.7009 9.94124C14.538 10.0909 14.5062 10.3908 14.6307 10.5851C14.7182 10.7261 14.8192 10.7766 15.1 10.8317C15.474 10.9005 15.7325 10.9898 15.9676 11.1243C16.4666 11.4124 16.6989 11.8633 16.7238 12.5932C16.7355 12.936 16.7651 13.0413 16.8848 13.1629C17.1067 13.3851 17.5015 13.3419 17.669 13.076C17.7305 12.9757 17.7398 12.9321 17.7463 12.6994C17.7506 12.5553 17.7444 12.3408 17.7295 12.2257Z" fill="white"></path>
      <path id="Path_2" d="M19.6841 12.8494C19.5855 11.1546 18.9226 9.79108 17.7363 8.83171C17.0678 8.29265 16.2599 7.92197 15.3742 7.7417C15.0498 7.67723 14.4525 7.62497 14.35 7.65486C14.2533 7.68254 14.1165 7.78725 14.0556 7.88193C13.9911 7.98461 13.9766 8.21387 14.0316 8.34647C14.1203 8.56816 14.2855 8.64648 14.7479 8.68693C15.4608 8.7493 16.1961 8.99977 16.7516 9.37056C17.3859 9.79273 17.8901 10.3702 18.2163 11.0487C18.4981 11.6317 18.6715 12.4719 18.6667 13.2243C18.6651 13.4964 18.7071 13.6501 18.8165 13.7624C18.9817 13.9352 19.2225 13.9729 19.435 13.8582C19.6705 13.7344 19.7255 13.517 19.6841 12.8494Z" fill="white"></path>
      <path id="Path_3" d="M21.8469 19.3763C21.8138 19.2794 21.7364 19.13 21.6811 19.0442C21.333 18.5184 19.4624 17.0545 18.5285 16.5758C17.9952 16.3018 17.6001 16.2105 17.3072 16.2963C16.9922 16.3849 16.8264 16.5315 16.2987 17.1874C16.0859 17.4502 15.8676 17.6965 15.8096 17.7353C15.6659 17.8349 15.3841 17.9152 15.1852 17.9152C14.7237 17.9124 13.8865 17.6135 13.2427 17.2205C12.7426 16.9162 12.1016 16.371 11.6098 15.8314C11.0295 15.1977 10.6344 14.6387 10.3222 14.0078C9.91877 13.197 9.81654 12.7016 9.98506 12.3391C10.0265 12.2478 10.0818 12.151 10.1066 12.1205C10.1315 12.0929 10.3912 11.8798 10.6786 11.6473C11.2423 11.199 11.3334 11.0966 11.4384 10.7895C11.5711 10.3993 11.5352 10.0008 11.3307 9.59956C11.1732 9.29515 10.7615 8.63101 10.4631 8.2021C10.068 7.6376 9.08431 6.43108 8.8881 6.26776C8.53443 5.98 8.08133 5.93016 7.58117 6.1239C7.05347 6.32869 6.06426 7.12564 5.6415 7.68187C5.2602 8.1855 5.1138 8.54246 5.09168 9.0129C5.07235 9.40029 5.10549 9.5608 5.30997 10.0562C6.90978 13.9414 9.29704 17.0435 12.5768 19.5063C14.2899 20.7931 16.0666 21.7727 17.9095 22.4424C18.9844 22.8326 19.4513 22.8519 20.0012 22.531C20.2333 22.3926 20.808 21.8031 21.1285 21.3742C21.659 20.6603 21.8552 20.331 21.9104 20.0681C21.9491 19.8882 21.9187 19.5755 21.8469 19.3763Z" fill="white"></path>
      <path id="Path_4" d="M21.6736 13.2386C21.6382 12.2799 21.4768 11.4936 21.1402 10.6169C20.8079 9.7545 20.4716 9.19175 19.8365 8.43061C19.236 7.71694 18.7696 7.30945 18.03 6.85586C16.998 6.22388 15.7421 5.80566 14.3346 5.62978C13.8546 5.56831 13.746 5.5727 13.5988 5.67095C13.3134 5.85709 13.3172 6.32135 13.6035 6.50469C13.6982 6.56301 13.7823 6.58426 14.1663 6.63451C14.7556 6.71386 15.1346 6.78865 15.5843 6.91134C17.3478 7.3934 18.7038 8.37873 19.6104 9.84142C20.3691 11.0606 20.6841 12.2798 20.6394 13.837C20.6238 14.3635 20.6351 14.4561 20.7156 14.5826C20.8697 14.8183 21.2761 14.865 21.4846 14.6693C21.6143 14.5501 21.6388 14.4606 21.6643 14.01C21.6766 13.775 21.6792 13.428 21.6736 13.2386Z" fill="white"></path>
    </g>
  </symbol>
  <symbol fill="none" xmlns="http://www.w3.org/2000/svg" viewBox="0 0 16 17" id="comment">
    <path d="M7.99991 1.83325C7.12443 1.83325 6.25752 2.00569 5.44869 2.34072C4.63985 2.67575 3.90492 3.16682 3.28587 3.78587C2.03562 5.03612 1.33324 6.73181 1.33324 8.49992C1.32742 10.0393 1.86044 11.5323 2.83991 12.7199L1.50658 14.0533C1.41407 14.147 1.35141 14.266 1.32649 14.3954C1.30158 14.5247 1.31552 14.6585 1.36658 14.7799C1.42195 14.8999 1.51171 15.0007 1.62448 15.0695C1.73724 15.1384 1.86791 15.1721 1.99991 15.1666H7.99991C9.76802 15.1666 11.4637 14.4642 12.714 13.214C13.9642 11.9637 14.6666 10.268 14.6666 8.49992C14.6666 6.73181 13.9642 5.03612 12.714 3.78587C11.4637 2.53563 9.76802 1.83325 7.99991 1.83325ZM7.99991 13.8333H3.60658L4.22658 13.2133C4.35074 13.0883 4.42044 12.9194 4.42044 12.7433C4.42044 12.5671 4.35074 12.3982 4.22658 12.2733C3.35363 11.4013 2.81003 10.2536 2.68837 9.02578C2.56672 7.79795 2.87454 6.56592 3.5594 5.5396C4.24425 4.51328 5.26377 3.75616 6.44425 3.39723C7.62474 3.03831 8.89315 3.09979 10.0334 3.57119C11.1736 4.0426 12.1151 4.89477 12.6975 5.98251C13.2799 7.07026 13.4672 8.32628 13.2273 9.53659C12.9875 10.7469 12.3354 11.8366 11.3823 12.6201C10.4291 13.4035 9.23375 13.8323 7.99991 13.8333ZM11.3332 7.83325H4.66658C4.48977 7.83325 4.3202 7.90349 4.19517 8.02851C4.07015 8.15354 3.99991 8.32311 3.99991 8.49992C3.99991 8.67673 4.07015 8.8463 4.19517 8.97132C4.3202 9.09635 4.48977 9.16659 4.66658 9.16659H11.3332C11.5101 9.16659 11.6796 9.09635 11.8046 8.97132C11.9297 8.8463 11.9999 8.67673 11.9999 8.49992C11.9999 8.32311 11.9297 8.15354 11.8046 8.02851C11.6796 7.90349 11.5101 7.83325 11.3332 7.83325ZM9.99991 10.4999H5.99991C5.8231 10.4999 5.65353 10.5702 5.52851 10.6952C5.40348 10.8202 5.33324 10.9898 5.33324 11.1666C5.33324 11.3434 5.40348 11.513 5.52851 11.638C5.65353 11.763 5.8231 11.8333 5.99991 11.8333H9.99991C10.1767 11.8333 10.3463 11.763 10.4713 11.638C10.5963 11.513 10.6666 11.3434 10.6666 11.1666C10.6666 10.9898 10.5963 10.8202 10.4713 10.6952C10.3463 10.5702 10.1767 10.4999 9.99991 10.4999ZM5.99991 6.49992H9.99991C10.1767 6.49992 10.3463 6.42968 10.4713 6.30466C10.5963 6.17963 10.6666 6.01006 10.6666 5.83325C10.6666 5.65644 10.5963 5.48687 10.4713 5.36185C10.3463 5.23682 10.1767 5.16659 9.99991 5.16659H5.99991C5.8231 5.16659 5.65353 5.23682 5.52851 5.36185C5.40348 5.48687 5.33324 5.65644 5.33324 5.83325C5.33324 6.01006 5.40348 6.17963 5.52851 6.30466C5.65353 6.42968 5.8231 6.49992 5.99991 6.49992Z" fill="#3CA79A"></path>
  </symbol>
  <symbol fill="none" xmlns="http://www.w3.org/2000/svg" viewBox="0 0 16 17" id="eye">
    <path fill-rule="evenodd" clip-rule="evenodd" d="M10.2739 8.36825C10.2739 9.53225 9.32993 10.4756 8.16593 10.4756C7.00193 10.4756 6.05859 9.53225 6.05859 8.36825C6.05859 7.20359 7.00193 6.26025 8.16593 6.26025C9.32993 6.26025 10.2739 7.20359 10.2739 8.36825Z" stroke="#3CA79A" stroke-width="1.2" stroke-linecap="round" stroke-linejoin="round"></path>
    <path fill-rule="evenodd" clip-rule="evenodd" d="M8.16533 13.236C10.704 13.236 13.026 11.4107 14.3333 8.368C13.026 5.32533 10.704 3.5 8.16533 3.5H8.168C5.62933 3.5 3.30733 5.32533 2 8.368C3.30733 11.4107 5.62933 13.236 8.168 13.236H8.16533Z" stroke="#3CA79A" stroke-width="1.2" stroke-linecap="round" stroke-linejoin="round"></path>
  </symbol>
  <symbol fill="none" xmlns="http://www.w3.org/2000/svg" viewBox="0 0 16 17" id="like">
    <path d="M2 7.1665L2 14.4998" stroke="#3CA79A" stroke-width="1.2" stroke-linecap="round" stroke-linejoin="round"></path>
    <path d="M7.71635 2.65925L5.25719 5.87598L5.25719 5.87598C4.89121 6.3547 4.70822 6.59407 4.57823 6.8585C4.46289 7.09314 4.37871 7.34185 4.32784 7.59831C4.27051 7.88734 4.27051 8.18863 4.27051 8.79122V11.2999C4.27051 12.4201 4.27051 12.9801 4.48849 13.4079C4.68024 13.7843 4.9862 14.0902 5.36253 14.282C5.79035 14.4999 6.3504 14.4999 7.4705 14.4999H8.28189C9.63005 14.4999 10.3041 14.4999 10.8638 14.2635C11.3576 14.055 11.7865 13.7179 12.1059 13.2874C12.4679 12.7994 12.6273 12.1444 12.9459 10.8344L13.1356 10.0543L13.1357 10.0543C13.3742 9.07346 13.4935 8.58302 13.4308 8.18695C13.3222 7.50187 12.8665 6.92195 12.2264 6.65455C11.8564 6.49996 11.3517 6.49996 10.3422 6.49996H8.75169C8.23704 6.49996 7.94011 5.91569 8.24348 5.49997L9.0214 4.43395C9.60811 3.62995 9.03386 2.5 8.03855 2.5C7.91221 2.5 7.79308 2.55888 7.71635 2.65925Z" stroke="#3CA79A" stroke-width="1.2" stroke-linecap="round" stroke-linejoin="round"></path>
  </symbol>
</svg>