<svg width="126" height="51" viewBox="0 0 126 51" fill="none" xmlns="http://www.w3.org/2000/svg">
<path d="M56.859 3.07868C52.0936 4.87233 49.6465 6.16603 45.445 9.01565L41.6878 11.6247L38.9912 10.6849C31.7276 8.22855 24.3772 10.3203 16.3627 17.0998C9.42212 23.0145 4.90786 30.5032 1.22954 41.8752C0.0337681 45.7412 -0.27444 47.3954 0.258926 47.799C0.992304 48.3541 2.36642 45.7764 5.98518 36.5614C12.3432 20.4018 28.6155 8.59963 37.7081 13.4887C38.8676 14.1041 38.8334 14.2879 36.8051 17.3142C33.9434 21.6496 32.9432 24.7723 33.1511 28.8619C33.3042 32.1234 33.4033 32.4081 35.4034 33.9218C37.3287 35.3265 37.763 35.4455 40.1822 34.8122C43.5888 33.9825 46.8127 30.9698 48.158 27.3218C49.0294 24.9928 49.0592 23.9143 48.4358 21.1357C48.0007 19.286 47.0241 16.974 46.1592 15.9C45.3024 14.8846 44.7222 13.7115 44.916 13.3863C45.3638 12.3096 49.2706 9.91858 54.3144 7.54922C58.7464 5.50328 60.1277 5.13304 68.0339 4.03867C75.8896 3.01097 77.378 2.984 82.3163 3.73291C85.3076 4.21415 90.0098 5.41354 92.8316 6.39571C102.123 9.70537 112.593 18.9399 117.719 28.3769C118.682 30.1537 120.273 35.1857 121.712 40.8358C123.086 46.0173 124.354 50.4376 124.554 50.5889C125.621 51.3963 125.622 49.2474 124.492 41.9432C123.614 36.0363 122.809 32.8054 121.535 29.6393C116.355 17.2255 105.404 7.10258 92.5047 2.74044C88.9395 1.56272 84.4212 0.397579 82.4156 0.138015C77.5521 -0.501871 61.2225 1.40034 56.859 3.07868ZM44.0661 18.4578C45.9013 21.3671 46.2598 23.5259 45.3947 26.3315C44.1404 30.2056 39.2686 33.3868 37.0685 31.7217C35.8684 30.8135 35.6244 27.3258 36.4733 24.4031C37.2879 21.6641 40.7974 16.4035 41.9102 16.2494C42.3201 16.1927 43.294 17.1919 44.0661 18.4578Z" fill="#D7E2ED"/>
</svg>
