<svg width="64" height="64" viewBox="0 0 64 64" fill="none" xmlns="http://www.w3.org/2000/svg">
<g id="star-06">
<path id="Icon" d="M11.9997 58.6666V45.3333M11.9997 18.6666V5.33325M5.33301 11.9999H18.6663M5.33301 51.9999H18.6663M34.6663 7.99992L30.0419 20.0236C29.2898 21.9788 28.9138 22.9565 28.3291 23.7788C27.8108 24.5076 27.1741 25.1444 26.4452 25.6627C25.6229 26.2474 24.6453 26.6234 22.69 27.3754L10.6663 31.9999L22.69 36.6244C24.6453 37.3764 25.6229 37.7524 26.4452 38.3372C27.1741 38.8554 27.8108 39.4922 28.3291 40.221C28.9138 41.0434 29.2898 42.021 30.0419 43.9763L34.6663 55.9999L39.2908 43.9763C40.0428 42.021 40.4189 41.0434 41.0036 40.221C41.5218 39.4922 42.1586 38.8554 42.8874 38.3372C43.7098 37.7524 44.6874 37.3764 46.6427 36.6244L58.6663 31.9999L46.6427 27.3754C44.6874 26.6234 43.7098 26.2474 42.8874 25.6627C42.1586 25.1444 41.5218 24.5076 41.0036 23.7788C40.4189 22.9565 40.0428 21.9788 39.2908 20.0235L34.6663 7.99992Z" stroke="#63B9AE" stroke-width="5" stroke-linecap="round" stroke-linejoin="round"/>
</g>
</svg>
