<svg width="26" height="24" viewBox="0 0 26 24" fill="none" xmlns="http://www.w3.org/2000/svg">
<g id="Vector">
<path id="Vector_2" d="M16.7148 0L25.0339 4.15953V13.4357L23.5213 12.6795V5.84934L17.4711 8.87445V11.9232L15.9586 12.6795V8.87445L9.90834 5.84934V8.53176L8.39578 7.77548V4.15953L16.7148 0ZM16.7148 7.56278L18.8064 6.51108L13.3352 3.37962L10.8419 4.6322L16.7148 7.56278ZM20.4371 5.70753L22.5878 4.6322L16.7148 1.68981L14.9541 2.57607L20.4371 5.70753ZM14.446 13.4357L12.9335 14.192V14.1802L8.39578 16.449V21.8257L12.9335 19.5451V21.2467L7.63951 23.8936L0.833008 20.4786V12.4904L7.63951 9.08715L14.446 12.4904V13.4357ZM6.88323 21.8257V16.449L2.34556 14.1802V19.5451L6.88323 21.8257ZM7.63951 15.1374L11.9999 12.9631L7.63951 10.777L3.27909 12.9631L7.63951 15.1374ZM14.446 15.1256L19.74 12.4786L25.0339 15.1256V21.353L19.74 24L14.446 21.353V15.1256ZM18.9837 21.9321V18.3279L15.9586 16.8154V20.4195L18.9837 21.9321ZM23.5213 20.4195V16.8154L20.4962 18.3279V21.9321L23.5213 20.4195ZM19.74 17.0162L22.5878 15.5864L19.74 14.1684L16.8921 15.5864L19.74 17.0162Z" fill="#3CA79A"/>
</g>
</svg>
