<svg width="24" height="25" viewBox="0 0 24 25" fill="none" xmlns="http://www.w3.org/2000/svg">
<path d="M17 9.5V7.5C17 6.96957 16.7893 6.46086 16.4142 6.08579C16.0391 5.71071 15.5304 5.5 15 5.5H5C4.46957 5.5 3.96086 5.71071 3.58579 6.08579C3.21071 6.46086 3 6.96957 3 7.5V13.5C3 14.0304 3.21071 14.5391 3.58579 14.9142C3.96086 15.2893 4.46957 15.5 5 15.5H7M9 19.5H19C19.5304 19.5 20.0391 19.2893 20.4142 18.9142C20.7893 18.5391 21 18.0304 21 17.5V11.5C21 10.9696 20.7893 10.4609 20.4142 10.0858C20.0391 9.71071 19.5304 9.5 19 9.5H9C8.46957 9.5 7.96086 9.71071 7.58579 10.0858C7.21071 10.4609 7 10.9696 7 11.5V17.5C7 18.0304 7.21071 18.5391 7.58579 18.9142C7.96086 19.2893 8.46957 19.5 9 19.5ZM16 14.5C16 15.0304 15.7893 15.5391 15.4142 15.9142C15.0391 16.2893 14.5304 16.5 14 16.5C13.4696 16.5 12.9609 16.2893 12.5858 15.9142C12.2107 15.5391 12 15.0304 12 14.5C12 13.9696 12.2107 13.4609 12.5858 13.0858C12.9609 12.7107 13.4696 12.5 14 12.5C14.5304 12.5 15.0391 12.7107 15.4142 13.0858C15.7893 13.4609 16 13.9696 16 14.5Z" stroke="#3CA79A" stroke-width="2" stroke-linecap="round" stroke-linejoin="round"/>
</svg>
