<svg width="24" height="25" viewBox="0 0 24 25" fill="none" xmlns="http://www.w3.org/2000/svg">
<path d="M4.36312 22.0635V20.8287C4.36312 20.3553 4.07494 20.0467 3.58097 20.0467C3.33403 20.0467 3.06647 20.129 2.88122 20.3966C2.73722 20.1702 2.53144 20.0467 2.22272 20.0467C2.01684 20.0467 1.81116 20.1084 1.64644 20.3348V20.0878H1.21425V22.0635H1.64644V20.9727C1.64644 20.623 1.83169 20.4583 2.11987 20.4583C2.40788 20.4583 2.55206 20.6435 2.55206 20.9727V22.0635H2.98425V20.9727C2.98425 20.623 3.18994 20.4583 3.4575 20.4583C3.74569 20.4583 3.88969 20.6435 3.88969 20.9727V22.0635H4.36312ZM10.7635 20.0878H10.0639V19.491H9.63169V20.0878H9.24066V20.4788H9.63159V21.3844C9.63159 21.8372 9.81684 22.1047 10.3108 22.1047C10.4961 22.1047 10.7017 22.043 10.8459 21.9607L10.7224 21.5902C10.5989 21.6725 10.4549 21.6931 10.352 21.6931C10.1462 21.6931 10.0639 21.5697 10.0639 21.3638V20.4788H10.7635V20.0878ZM14.4269 20.0466C14.18 20.0466 14.0153 20.1702 13.9124 20.3348V20.0878H13.4802V22.0635H13.9124V20.9522C13.9124 20.623 14.0564 20.4377 14.324 20.4377C14.4063 20.4377 14.5092 20.4583 14.5915 20.4789L14.715 20.0673C14.6327 20.0467 14.5092 20.0466 14.4269 20.0466ZM8.89078 20.2526C8.68491 20.1085 8.39681 20.0468 8.08809 20.0468C7.59422 20.0468 7.26497 20.2937 7.26497 20.6847C7.26497 21.0141 7.51191 21.1993 7.94409 21.261L8.14987 21.2817C8.37628 21.3227 8.49975 21.3845 8.49975 21.4874C8.49975 21.6314 8.33512 21.7344 8.04694 21.7344C7.75875 21.7344 7.53244 21.6314 7.38834 21.5286L7.18256 21.8578C7.40897 22.0225 7.71769 22.1048 8.02631 22.1048C8.60259 22.1048 8.93194 21.8373 8.93194 21.4668C8.93194 21.1169 8.66437 20.9317 8.25272 20.87L8.04694 20.8494C7.86169 20.8288 7.71769 20.7877 7.71769 20.6642C7.71769 20.5201 7.86169 20.4378 8.08809 20.4378C8.33512 20.4378 8.58206 20.5407 8.70553 20.6024L8.89078 20.2526ZM20.3747 20.0468C20.1277 20.0468 19.963 20.1702 19.8601 20.3349V20.0879H19.4279V22.0636H19.8601V20.9523C19.8601 20.6231 20.0042 20.4378 20.2717 20.4378C20.3541 20.4378 20.457 20.4584 20.5393 20.479L20.6628 20.0674C20.5805 20.0468 20.457 20.0468 20.3747 20.0468ZM14.8591 21.0758C14.8591 21.6726 15.2707 22.1048 15.9087 22.1048C16.1968 22.1048 16.4026 22.0431 16.6084 21.8785L16.4026 21.5286C16.238 21.6521 16.0733 21.7137 15.8881 21.7137C15.5382 21.7137 15.2913 21.4668 15.2913 21.0758C15.2913 20.7054 15.5382 20.4583 15.8881 20.4378C16.0733 20.4378 16.238 20.4995 16.4026 20.6231L16.6084 20.2732C16.4026 20.1085 16.1968 20.0468 15.9087 20.0468C15.2707 20.0468 14.8591 20.479 14.8591 21.0758ZM18.8517 20.0879H18.4195V20.3349C18.2754 20.1497 18.0697 20.0468 17.8021 20.0468C17.2464 20.0468 16.8143 20.479 16.8143 21.0758C16.8143 21.6726 17.2464 22.1048 17.8021 22.1048C18.0902 22.1048 18.2961 22.0019 18.4195 21.8167V22.0636H18.8517V20.0879ZM17.267 21.0758C17.267 20.7259 17.4934 20.4378 17.8638 20.4378C18.2137 20.4378 18.4607 20.7054 18.4607 21.0758C18.4607 21.4257 18.2137 21.7137 17.8638 21.7137C17.4934 21.6931 17.267 21.4257 17.267 21.0758ZM12.1013 20.0468C11.5251 20.0468 11.1134 20.4583 11.1134 21.0758C11.1134 21.6932 11.525 22.1048 12.1219 22.1048C12.41 22.1048 12.6982 22.0225 12.9246 21.8373L12.7187 21.5286C12.5541 21.6521 12.3483 21.7344 12.1425 21.7344C11.8749 21.7344 11.6074 21.6109 11.5456 21.2609H13.0069V21.0964C13.0275 20.4583 12.6571 20.0468 12.1013 20.0468ZM12.1013 20.4172C12.3687 20.4172 12.5541 20.5819 12.5951 20.8906H11.5661C11.6073 20.6231 11.7925 20.4172 12.1013 20.4172ZM22.8236 19.3059H22.3914V20.3349C22.2473 20.1497 22.0416 20.0468 21.774 20.0468C21.2183 20.0468 20.7862 20.479 20.7862 21.0758C20.7862 21.6726 21.2183 22.1048 21.774 22.1048C22.0622 22.1048 22.268 22.0019 22.3914 21.8167V22.0636H22.8236V19.3059ZM21.239 21.0758C21.239 20.7259 21.4653 20.4378 21.8358 20.4378C22.1857 20.4378 22.4326 20.7054 22.4326 21.0758C22.4326 21.4257 22.1857 21.7137 21.8358 21.7137C21.4653 21.6931 21.239 21.4257 21.239 21.0758ZM6.79144 20.0879H6.35925V20.3349C6.21516 20.1497 6.00937 20.0468 5.74181 20.0468C5.18616 20.0468 4.75397 20.479 4.75397 21.0758C4.75397 21.6726 5.18616 22.1048 5.74181 22.1048C6.03 22.1048 6.23578 22.0019 6.35925 21.8167V22.0636H6.79144V20.0879ZM5.18616 21.0758C5.18616 20.7259 5.41256 20.4378 5.78297 20.4378C6.13284 20.4378 6.37988 20.7054 6.37988 21.0758C6.37988 21.4257 6.13284 21.7137 5.78297 21.7137C5.41256 21.6931 5.18616 21.4257 5.18616 21.0758Z" fill="black"/>
<path d="M8.74669 5.08466H15.2295V16.7332H8.74669V5.08466Z" fill="#FF5F00"/>
<path d="M9.15834 10.909C9.15834 8.54225 10.2697 6.443 11.9778 5.08466C10.7225 4.09681 9.13781 3.5 7.40906 3.5C3.31341 3.5 0 6.81341 0 10.909C0 15.0045 3.31341 18.3179 7.40897 18.3179C9.13772 18.3179 10.7224 17.7211 11.9778 16.7332C10.2697 15.3955 9.15834 13.2757 9.15834 10.909Z" fill="#EB001B"/>
<path d="M23.9762 10.909C23.9762 15.0044 20.6628 18.3179 16.5672 18.3179C14.8385 18.3179 13.2538 17.7211 11.9984 16.7332C13.7272 15.3749 14.8179 13.2757 14.8179 10.909C14.8179 8.54225 13.7065 6.443 11.9984 5.08466C13.2537 4.09681 14.8385 3.5 16.5672 3.5C20.6628 3.5 23.9762 6.83403 23.9762 10.909Z" fill="#F79E1B"/>
</svg>
