<svg width="24" height="25" viewBox="0 0 24 25" fill="none" xmlns="http://www.w3.org/2000/svg">
<g clip-path="url(#clip0_4211_62502)">
<path d="M4.28551 4.78599H21.4284C21.883 4.78599 22.3191 4.96661 22.6405 5.2881C22.962 5.60959 23.1426 6.04562 23.1426 6.50028V18.5003C23.1426 18.9549 22.962 19.391 22.6405 19.7125C22.3191 20.034 21.883 20.2146 21.4284 20.2146H19.7141M0.856934 6.50028V18.5003C0.856934 18.9549 1.03755 19.391 1.35904 19.7125C1.68053 20.034 2.11656 20.2146 2.57122 20.2146H15.4284M9.57579 10.0763C9.89207 9.74882 10.2704 9.48762 10.6887 9.30793C11.107 9.12824 11.5569 9.03366 12.0121 9.02971C12.4674 9.02575 12.9188 9.1125 13.3402 9.28489C13.7616 9.45728 14.1444 9.71186 14.4663 10.0338C14.7882 10.3557 15.0428 10.7385 15.2152 11.1599C15.3876 11.5812 15.4743 12.0327 15.4704 12.4879C15.4664 12.9432 15.3718 13.3931 15.1921 13.8114C15.0125 14.2297 14.7513 14.608 14.4238 14.9243M8.60893 13.0077C8.72074 13.7519 9.07415 14.4386 9.61471 14.9622C10.1553 15.4857 10.853 15.8169 11.6004 15.9049M23.1426 23.6431L0.856934 1.35742" stroke="#3CA79A" stroke-width="2" stroke-linecap="round" stroke-linejoin="round"/>
</g>
<defs>
<clipPath id="clip0_4211_62502">
<rect width="24" height="24" fill="white" transform="translate(0 0.5)"/>
</clipPath>
</defs>
</svg>
