<svg width="24" height="25" viewBox="0 0 24 25" fill="none" xmlns="http://www.w3.org/2000/svg">
<g id="Icons / nova_poshta">
<g id="Vector">
<path fill-rule="evenodd" clip-rule="evenodd" d="M18.198 8.73353C18.2602 8.7137 18.3421 8.75336 18.4239 8.86241C18.4239 8.86241 18.4239 8.86241 22.1237 12.5174C22.3398 12.7355 22.3398 13.0659 22.1237 13.2279C22.1237 13.2279 22.1237 13.2279 18.4239 16.939C18.3421 17.048 18.2602 17.0745 18.198 17.0414C18.1358 17.0084 18.0965 16.9125 18.0965 16.7737V8.97147C18.0965 8.83598 18.1358 8.75336 18.198 8.73353Z" fill="#F86767"/>
<path fill-rule="evenodd" clip-rule="evenodd" d="M11.8687 2.64282H12.1306L12.3827 2.74857C12.3827 2.74857 12.3827 2.74857 16.1906 6.56874C16.3543 6.78685 16.2986 6.95208 16.0269 6.95208C16.0269 6.95208 16.0269 6.95208 14.4487 6.95208C14.177 6.95208 13.9609 7.17019 13.9609 7.44447C13.9609 7.44447 13.9609 7.44447 13.9609 10.2799C13.9609 10.5541 13.7415 10.7723 13.4141 10.7723C13.4141 10.7723 13.4141 10.7723 10.6409 10.7723C10.3691 10.7723 10.1498 10.5541 10.1498 10.2799C10.1498 10.2799 10.1498 10.2799 10.1498 7.44447C10.1498 7.17019 9.93366 6.95208 9.65863 6.95208H7.97243C7.70068 6.95208 7.64502 6.78685 7.80873 6.56874C7.80873 6.56874 7.80873 6.56874 11.6199 2.74857L11.8687 2.64282Z" fill="#F86767"/>
<path fill-rule="evenodd" clip-rule="evenodd" d="M5.90365 8.6509C5.9724 8.68395 6.01497 8.77978 6.01497 8.91858V16.8828C6.01497 17.0216 5.9724 17.1042 5.90365 17.1306C5.83816 17.1571 5.74321 17.1306 5.63189 17.048C5.63189 17.048 5.63189 17.048 1.87643 13.2278C1.66033 13.0659 1.66033 12.7354 1.87643 12.5173C1.87643 12.5173 1.87643 12.5173 5.63189 8.75334C5.74321 8.64429 5.83816 8.61785 5.90365 8.6509Z" fill="#F86767"/>
<path fill-rule="evenodd" clip-rule="evenodd" d="M10.6418 14.9191C10.6418 14.9191 10.6418 14.9191 13.415 14.9191C13.7424 14.9191 13.9618 15.1372 13.9618 15.4114C13.9618 15.4114 13.9618 15.4114 13.9618 18.4121C13.9618 18.7392 14.1779 18.9573 14.4496 18.9573H15.9197C16.1915 18.9573 16.2995 19.1193 16.0834 19.2845C16.0834 19.2845 16.0834 19.2845 12.3836 23.0485C12.2723 23.1575 12.1381 23.2137 12.0006 23.2137C11.8663 23.2137 11.7288 23.1575 11.6208 23.0485C11.6208 23.0485 11.6208 23.0485 7.92095 19.2845C7.70158 19.1193 7.80963 18.9573 8.08138 18.9573C8.08138 18.9573 8.08138 18.9573 9.65953 18.9573C9.93456 18.9573 10.1507 18.7392 10.1507 18.4121C10.1507 18.4121 10.1507 18.4121 10.1507 15.4114C10.1507 15.1372 10.37 14.9191 10.6418 14.9191Z" fill="#F86767"/>
</g>
</g>
</svg>
