<svg width="65" height="64" viewBox="0 0 65 64" fill="none" xmlns="http://www.w3.org/2000/svg">
<path d="M34.9993 50.5C36.3801 50.5 37.4993 49.3807 37.4993 48C37.4993 46.6193 36.3801 45.5 34.9993 45.5V50.5ZM5.66602 45.3333H3.16602H5.66602ZM8.33268 8V5.5V8ZM56.3327 8V5.5V8ZM45.666 45.5C44.2853 45.5 43.166 46.6193 43.166 48C43.166 49.3807 44.2853 50.5 45.666 50.5V45.5ZM16.3327 16.1667C14.952 16.1667 13.8327 17.286 13.8327 18.6667C13.8327 20.0474 14.952 21.1667 16.3327 21.1667V16.1667ZM48.3327 21.1667C49.7134 21.1667 50.8327 20.0474 50.8327 18.6667C50.8327 17.286 49.7134 16.1667 48.3327 16.1667V21.1667ZM16.3327 25.5C14.952 25.5 13.8327 26.6193 13.8327 28C13.8327 29.3807 14.952 30.5 16.3327 30.5V25.5ZM24.3327 30.5C25.7134 30.5 26.8327 29.3807 26.8327 28C26.8327 26.6193 25.7134 25.5 24.3327 25.5V30.5ZM16.3327 34.8333C14.952 34.8333 13.8327 35.9526 13.8327 37.3333C13.8327 38.714 14.952 39.8333 16.3327 39.8333V34.8333ZM21.666 39.8333C23.0467 39.8333 24.166 38.714 24.166 37.3333C24.166 35.9526 23.0467 34.8333 21.666 34.8333V39.8333ZM48.3327 36H50.8327H48.3327ZM40.3327 53.3333L41.4507 51.0973C40.7469 50.7454 39.9185 50.7454 39.2146 51.0973L40.3327 53.3333ZM45.666 56L44.548 58.2361C45.3229 58.6236 46.2433 58.5821 46.9803 58.1266C47.7174 57.6711 48.166 56.8664 48.166 56H45.666ZM45.666 41.9627H48.166C48.166 40.8854 47.476 39.9293 46.4536 39.59C45.4312 39.2506 44.3064 39.6043 43.6622 40.4677L45.666 41.9627ZM34.9993 42L36.9898 40.4873C36.3404 39.6329 35.2182 39.2882 34.2012 39.6308C33.1842 39.9734 32.4993 40.9269 32.4993 42H34.9993ZM34.9993 56H32.4993C32.4993 56.8664 32.948 57.6711 33.685 58.1266C34.4221 58.5821 35.3424 58.6236 36.1174 58.2361L34.9993 56ZM34.9993 45.5H8.33268V50.5H34.9993V45.5ZM8.33268 45.5C8.28847 45.5 8.24608 45.4824 8.21483 45.4512L4.6793 48.9867C5.64824 49.9557 6.96241 50.5 8.33268 50.5V45.5ZM8.21483 45.4512C8.18358 45.4199 8.16602 45.3775 8.16602 45.3333H3.16602C3.16602 46.7036 3.71036 48.0178 4.6793 48.9867L8.21483 45.4512ZM8.16602 45.3333V10.6667H3.16602V45.3333H8.16602ZM8.16602 10.6667C8.16602 10.6225 8.18358 10.5801 8.21483 10.5488L4.6793 7.01328C3.71036 7.98222 3.16602 9.29638 3.16602 10.6667H8.16602ZM8.21483 10.5488C8.24609 10.5176 8.28848 10.5 8.33268 10.5V5.5C6.9624 5.5 5.64824 6.04434 4.6793 7.01328L8.21483 10.5488ZM8.33268 10.5H56.3327V5.5H8.33268V10.5ZM56.3327 10.5C56.3769 10.5 56.4193 10.5176 56.4505 10.5488L59.9861 7.01328C59.0171 6.04434 57.703 5.5 56.3327 5.5V10.5ZM56.4505 10.5488C56.4818 10.5801 56.4993 10.6225 56.4993 10.6667H61.4993C61.4993 9.29639 60.955 7.98223 59.9861 7.01328L56.4505 10.5488ZM56.4993 10.6667V45.3333H61.4993V10.6667H56.4993ZM56.4993 45.3333C56.4993 45.3776 56.4818 45.4199 56.4505 45.4512L59.9861 48.9867C60.955 48.0178 61.4993 46.7036 61.4993 45.3333H56.4993ZM56.4505 45.4512C56.4193 45.4824 56.3769 45.5 56.3327 45.5V50.5C57.7029 50.5 59.0171 49.9557 59.9861 48.9867L56.4505 45.4512ZM56.3327 45.5H45.666V50.5H56.3327V45.5ZM16.3327 21.1667H48.3327V16.1667H16.3327V21.1667ZM16.3327 30.5H24.3327V25.5H16.3327V30.5ZM16.3327 39.8333H21.666V34.8333H16.3327V39.8333ZM40.3327 46.5C43.1175 46.5 45.7882 45.3938 47.7573 43.4246L44.2218 39.8891C43.1903 40.9205 41.7914 41.5 40.3327 41.5V46.5ZM47.7573 43.4246C49.7264 41.4555 50.8327 38.7848 50.8327 36H45.8327C45.8327 37.4587 45.2532 38.8576 44.2218 39.8891L47.7573 43.4246ZM50.8327 36C50.8327 33.2152 49.7264 30.5445 47.7573 28.5754L44.2218 32.1109C45.2532 33.1424 45.8327 34.5413 45.8327 36H50.8327ZM47.7573 28.5754C45.7882 26.6062 43.1175 25.5 40.3327 25.5V30.5C41.7914 30.5 43.1903 31.0795 44.2218 32.1109L47.7573 28.5754ZM40.3327 25.5C37.5479 25.5 34.8772 26.6062 32.9081 28.5754L36.4436 32.1109C37.475 31.0795 38.874 30.5 40.3327 30.5V25.5ZM32.9081 28.5754C30.9389 30.5445 29.8327 33.2152 29.8327 36H34.8327C34.8327 34.5413 35.4121 33.1424 36.4436 32.1109L32.9081 28.5754ZM29.8327 36C29.8327 38.7848 30.9389 41.4555 32.9081 43.4246L36.4436 39.8891C35.4121 38.8576 34.8327 37.4587 34.8327 36H29.8327ZM32.9081 43.4246C34.8772 45.3938 37.5479 46.5 40.3327 46.5V41.5C38.874 41.5 37.475 40.9205 36.4436 39.8891L32.9081 43.4246ZM39.2146 55.5694L44.548 58.2361L46.784 53.7639L41.4507 51.0973L39.2146 55.5694ZM48.166 56V41.9627H43.166V56H48.166ZM45.666 41.9627C43.6622 40.4677 43.6631 40.4665 43.664 40.4654C43.6643 40.465 43.6651 40.4638 43.6657 40.4631C43.6668 40.4616 43.6679 40.4601 43.669 40.4586C43.6712 40.4557 43.6733 40.4529 43.6754 40.4503C43.6795 40.4449 43.6832 40.44 43.6867 40.4355C43.6936 40.4266 43.6994 40.4194 43.7039 40.4138C43.7129 40.4027 43.7171 40.398 43.7163 40.3989C43.7146 40.4008 43.6934 40.4247 43.6517 40.4641C43.5682 40.543 43.4047 40.682 43.1517 40.8325C42.6633 41.1229 41.7688 41.5 40.3327 41.5V46.5C42.7099 46.5 44.4821 45.8585 45.707 45.1302C46.3107 44.7713 46.7654 44.401 47.0862 44.0979C47.2466 43.9463 47.3739 43.811 47.4703 43.7015C47.5185 43.6467 47.559 43.5983 47.5921 43.5573C47.6087 43.5368 47.6234 43.5181 47.6364 43.5015C47.6428 43.4932 47.6488 43.4853 47.6544 43.478C47.6572 43.4744 47.6599 43.4708 47.6624 43.4674C47.6637 43.4657 47.665 43.4641 47.6662 43.4624C47.6668 43.4616 47.6677 43.4604 47.668 43.46C47.6689 43.4588 47.6698 43.4576 45.666 41.9627ZM40.3327 41.5C38.8872 41.5 37.9866 41.1271 37.4962 40.8409C37.2426 40.6928 37.0793 40.5564 36.9968 40.4798C36.9556 40.4416 36.9349 40.4187 36.9339 40.4174C36.9334 40.4169 36.9378 40.4218 36.9471 40.4332C36.9518 40.4388 36.9577 40.4461 36.9648 40.4551C36.9684 40.4596 36.9722 40.4645 36.9764 40.4699C36.9785 40.4725 36.9806 40.4753 36.9828 40.4782C36.984 40.4797 36.9851 40.4812 36.9862 40.4827C36.9868 40.4834 36.9877 40.4846 36.988 40.485C36.9889 40.4861 36.9898 40.4873 34.9993 42C33.0089 43.5127 33.0098 43.5139 33.0107 43.5151C33.0111 43.5155 33.012 43.5167 33.0126 43.5175C33.0138 43.5191 33.0151 43.5208 33.0164 43.5225C33.019 43.5259 33.0217 43.5294 33.0246 43.533C33.0302 43.5403 33.0363 43.5481 33.0428 43.5564C33.0559 43.5729 33.0708 43.5914 33.0875 43.6118C33.121 43.6524 33.1619 43.7003 33.2104 43.7544C33.3073 43.8626 33.4352 43.9959 33.596 44.1452C33.9177 44.4436 34.3728 44.8072 34.9758 45.1591C36.1988 45.8729 37.9648 46.5 40.3327 46.5V41.5ZM32.4993 42V56H37.4993V42H32.4993ZM36.1174 58.2361L41.4507 55.5694L39.2146 51.0973L33.8813 53.7639L36.1174 58.2361Z" fill="#63B9AE"/>
</svg>
