<svg width="63" height="39" viewBox="0 0 63 39" fill="none" xmlns="http://www.w3.org/2000/svg">
<g id="Group">
<path id="Vector" d="M20.9993 36.6667C22.4138 36.6667 23.7704 36.1048 24.7706 35.1046C25.7708 34.1044 26.3327 32.7478 26.3327 31.3333C26.3327 29.9188 25.7708 28.5623 24.7706 27.5621C23.7704 26.5619 22.4138 26 20.9993 26C19.5849 26 18.2283 26.5619 17.2281 27.5621C16.2279 28.5623 15.666 29.9188 15.666 31.3333C15.666 32.7478 16.2279 34.1044 17.2281 35.1046C18.2283 36.1048 19.5849 36.6667 20.9993 36.6667ZM47.666 36.6667C49.0805 36.6667 50.4371 36.1048 51.4372 35.1046C52.4374 34.1044 52.9993 32.7478 52.9993 31.3333C52.9993 29.9188 52.4374 28.5623 51.4372 27.5621C50.4371 26.5619 49.0805 26 47.666 26C46.2515 26 44.895 26.5619 43.8948 27.5621C42.8946 28.5623 42.3327 29.9188 42.3327 31.3333C42.3327 32.7478 42.8946 34.1044 43.8948 35.1046C44.895 36.1048 46.2515 36.6667 47.666 36.6667Z" stroke="#3CA79A" stroke-width="4" stroke-miterlimit="1.5" stroke-linecap="round" stroke-linejoin="round"/>
<path id="Vector_2" d="M26.4663 31.3333H39.6663V3.6C39.6663 3.17565 39.4978 2.76869 39.1977 2.46863C38.8977 2.16857 38.4907 2 38.0663 2H2.33301M14.733 31.3333H9.26634C9.05623 31.3333 8.84817 31.2919 8.65405 31.2115C8.45993 31.1311 8.28354 31.0133 8.13497 30.8647C7.9864 30.7161 7.86854 30.5397 7.78813 30.3456C7.70773 30.1515 7.66634 29.9434 7.66634 29.7333V16.6667" stroke="#3CA79A" stroke-width="4" stroke-linecap="round"/>
<path id="Vector_3" d="M5 10H15.6667" stroke="#3CA79A" stroke-width="4" stroke-linecap="round" stroke-linejoin="round"/>
<path id="Vector_4" d="M39.666 10H54.626C54.9353 10.0001 55.2379 10.0898 55.4973 10.2583C55.7566 10.4268 55.9616 10.6668 56.0874 10.9493L60.8607 21.6907C60.9516 21.8946 60.9989 22.1154 60.9993 22.3387V29.7333C60.9993 29.9434 60.958 30.1515 60.8776 30.3456C60.7971 30.5397 60.6793 30.7161 60.5307 30.8647C60.3821 31.0133 60.2058 31.1311 60.0116 31.2115C59.8175 31.2919 59.6095 31.3333 59.3993 31.3333H54.3327M39.666 31.3333H42.3327" stroke="#3CA79A" stroke-width="4" stroke-linecap="round"/>
</g>
</svg>
