<svg width="65" height="65" viewBox="0 0 65 65" fill="none" xmlns="http://www.w3.org/2000/svg">
<g id="speedometer-04">
<path id="Icon" d="M47.6536 43.1665C49.7625 40.1429 50.9994 36.4659 50.9994 32.4999C50.9994 31.1269 50.8511 29.7885 50.5697 28.4998M17.0119 43.1666C14.9029 40.143 13.666 36.4659 13.666 32.4999C13.666 22.1906 22.0234 13.8333 32.3327 13.8333C33.4584 13.8333 34.5608 13.9329 35.6316 14.1238M44.3324 20.4999L32.3324 32.4999M58.9994 32.4999C58.9994 47.2275 47.0603 59.1666 32.3327 59.1666C17.6051 59.1666 5.66602 47.2275 5.66602 32.4999C5.66602 17.7723 17.6051 5.83325 32.3327 5.83325C47.0603 5.83325 58.9994 17.7723 58.9994 32.4999ZM34.9993 32.4999C34.9993 33.9727 33.8054 35.1666 32.3327 35.1666C30.8599 35.1666 29.666 33.9727 29.666 32.4999C29.666 31.0272 30.8599 29.8333 32.3327 29.8333C33.8054 29.8333 34.9993 31.0272 34.9993 32.4999Z" stroke="#63B9AE" stroke-width="5" stroke-linecap="round" stroke-linejoin="round"/>
</g>
</svg>
