<svg width="59" height="59" viewBox="0 0 59 59" fill="none" xmlns="http://www.w3.org/2000/svg">
<g id="Frame 581937" clip-path="url(#clip0_4227_14592)">
<path id="Vector" fill-rule="evenodd" clip-rule="evenodd" d="M29.5027 0C29.2209 0 28.9416 0.0869222 28.6993 0.255494L0.600587 19.9231C0.223904 20.1864 0 20.6131 0 21.0714V57.5961C0 58.3705 0.629564 59 1.40399 59H7.02265C7.79707 59 8.42664 58.3705 8.42664 57.5961V25.2857H50.5734V57.5961C50.5734 58.3705 51.2029 59 51.9773 59H57.596C58.3704 59 59 58.3705 59 57.5961V21.0714C59 20.6131 58.7761 20.1838 58.3994 19.9231L30.3007 0.255494C30.0584 0.0842857 29.7791 0 29.4973 0H29.5027ZM29.5027 3.1212L56.1947 21.8036V56.1895H53.384V23.8791C53.384 23.1047 52.7545 22.4752 51.9801 22.4752H7.02267C6.24825 22.4752 5.61868 23.1047 5.61868 23.8791V56.1895H2.808V21.8036L29.5 3.1212H29.5027ZM29.5027 8.42857C26.3996 8.42857 23.884 10.9466 23.884 14.0467C23.884 17.1495 26.4023 19.6649 29.5027 19.6649C32.6058 19.6649 35.1214 17.1468 35.1214 14.0467C35.1214 10.9439 32.6031 8.42857 29.5027 8.42857ZM29.5027 11.239C31.0542 11.239 32.3134 12.498 32.3134 14.0494C32.3134 15.6008 31.0542 16.8598 29.5027 16.8598C27.9512 16.8598 26.692 15.6008 26.692 14.0494C26.692 12.498 27.9512 11.239 29.5027 11.239ZM23.884 33.7143C23.1096 33.7143 22.4801 34.3438 22.4801 35.1181V44.9506H15.4547C14.6803 44.9506 14.0507 45.5801 14.0507 46.3544V57.5934C14.0507 58.3678 14.6803 58.9973 15.4547 58.9973H26.6947C27.4691 58.9973 28.0987 58.3678 28.0987 57.5934V47.761H30.9094V57.5934C30.9094 58.3678 31.539 58.9973 32.3134 58.9973H43.5534C44.3278 58.9973 44.9574 58.3678 44.9574 57.5934V46.3544C44.9574 45.5801 44.3278 44.9506 43.5534 44.9506H36.5281V35.1181C36.5281 34.3438 35.8985 33.7143 35.1241 33.7143H23.884ZM25.288 36.5247H28.0987V39.3351C28.0987 40.1095 28.7283 40.739 29.5027 40.739C30.2771 40.739 30.9067 40.1095 30.9067 39.3351V36.5247H33.7174V44.9533H25.288V36.5247ZM16.8587 47.7637H19.6694V50.5741C19.6694 51.3485 20.2989 51.978 21.0734 51.978C21.8478 51.978 22.4774 51.3485 22.4774 50.5741V47.7637H25.288V56.1923H16.8587V47.7637ZM33.7174 47.7637H36.5281V50.5741C36.5281 51.3485 37.1576 51.978 37.9321 51.978C38.7065 51.978 39.336 51.3485 39.336 50.5741V47.7637H42.1467V56.1923H33.7174V47.7637Z" fill="#63B9AE"/>
</g>
<defs>
<clipPath id="clip0_4227_14592">
<rect width="59" height="59" fill="white"/>
</clipPath>
</defs>
</svg>
