<svg width="36" height="36" viewBox="0 0 36 36" fill="none" xmlns="http://www.w3.org/2000/svg">
<g clip-path="url(#clip0_4211_73884)">
<path fill-rule="evenodd" clip-rule="evenodd" d="M28.5 16.5C30.9853 16.5 33 18.5147 33 21C33 22.3328 32.4207 23.5302 31.5 24.3541V31.7865C31.5 32.344 30.9132 32.7066 30.4146 32.4573L28.5 31.5L26.5854 32.4573C26.0868 32.7066 25.5 32.344 25.5 31.7865V24.3541C24.5795 23.5302 24 22.3328 24 21C24 18.5147 26.0147 16.5 28.5 16.5ZM30 6C31.6569 6 33 7.34314 33 9V14.9994C31.7465 14.0579 30.1884 13.5 28.5 13.5C24.3579 13.5 21 16.8579 21 21C21 22.6881 21.5599 24.2478 22.5 25.5001V30H6C4.34314 30 3 28.6569 3 27V9C3 7.34314 4.34314 6 6 6H30ZM12 19.5H9C8.17158 19.5 7.5 20.1715 7.5 21C7.5 21.8285 8.17158 22.5 9 22.5H12C12.8284 22.5 13.5 21.8285 13.5 21C13.5 20.1715 12.8284 19.5 12 19.5ZM18 13.5H9C8.17158 13.5 7.5 14.1716 7.5 15C7.5 15.7693 8.07907 16.4033 8.82507 16.4899L9 16.5H18C18.8285 16.5 19.5 15.8285 19.5 15C19.5 14.2308 18.921 13.5967 18.1749 13.5101L18 13.5Z" fill="#3CA79A"/>
</g>
<defs>
<clipPath id="clip0_4211_73884">
<rect width="36" height="36" fill="white"/>
</clipPath>
</defs>
</svg>
