<svg width="36" height="36" viewBox="0 0 36 36" fill="none" xmlns="http://www.w3.org/2000/svg">
<g id="earth-globe-interet-svgrepo-com 1">
<g id="koper">
<path id="Vector" d="M18.1905 31.9375C15.4805 31.9375 13.1154 28.9812 11.9329 24.5959C15.2834 23.9554 19.8165 23.5612 24.5959 24.6452C23.3641 28.9812 20.9497 31.9375 18.1905 31.9375ZM11.6865 23.6597C11.2923 21.9845 11.0952 20.1614 11.0952 18.2397H25.4335C25.4335 20.2106 25.1872 22.0337 24.793 23.709C19.8657 22.5757 15.1849 22.9699 11.6865 23.6597ZM18.1412 4C20.7034 4 23.167 6.80853 24.4974 11.2431C19.6194 12.2778 15.1356 11.7851 12.0314 11.1445C13.2632 6.75926 15.579 4 18.1412 4ZM11.7851 12.13C13.6574 12.5241 15.9732 12.869 18.6339 12.869C20.5556 12.869 22.625 12.672 24.7437 12.2285C25.1379 13.8052 25.3843 15.4805 25.4335 17.2543H11.1445C11.1445 15.4805 11.3909 13.756 11.7851 12.13ZM10.1098 18.2397C10.1098 20.2599 10.3561 22.1323 10.7011 23.8568C8.43452 24.3495 6.80853 24.9901 6.02017 25.2857C4.78836 23.2163 4.04927 20.8019 4 18.2397H10.1098ZM26.419 18.2397H32.0853C32.036 20.8512 31.2477 23.3148 29.9666 25.4335C28.587 24.793 27.1581 24.3495 25.7784 23.9554C26.1726 22.1815 26.419 20.2599 26.419 18.2397ZM32.036 17.2543H26.419C26.3697 15.4312 26.1233 13.6574 25.7292 12.0314C27.2073 11.6865 28.6362 11.1938 30.0159 10.6025C31.1984 12.5734 31.9375 14.8399 32.036 17.2543ZM29.4246 9.71561C28.1435 10.2576 26.8132 10.7011 25.4828 11.046C24.5959 8.04034 23.2163 5.72454 21.541 4.39418C24.6452 5.18254 27.4537 7.05489 29.4246 9.71561ZM14.8399 4.29564C13.214 5.62599 11.8836 7.9418 11.046 10.9474C8.97652 10.4547 7.44907 9.9127 6.75926 9.61706C8.77943 6.90708 11.6372 5.03472 14.8399 4.29564ZM6.21726 10.4547C6.80853 10.7011 8.4838 11.3416 10.8489 11.9329C10.4547 13.6081 10.2083 15.4312 10.1591 17.2543H4.04927C4.14782 14.8399 4.8869 12.4749 6.21726 10.4547ZM6.61144 26.1233C7.3998 25.8277 8.92725 25.2857 10.9474 24.8423C11.7851 27.8972 13.1647 30.3115 14.8892 31.6911C11.4894 30.8535 8.58234 28.8333 6.61144 26.1233ZM21.6395 31.5433C23.3148 30.1637 24.6452 27.7986 25.4828 24.8915C26.7639 25.2364 28.045 25.6799 29.3753 26.2219C27.503 28.7841 24.793 30.7057 21.6395 31.5433Z" fill="#3CA79A"/>
</g>
</g>
</svg>
