<svg width="32" height="32" viewBox="0 0 32 32" fill="none" xmlns="http://www.w3.org/2000/svg">
<g id="heroicons-solid/gift">
<g id="Subtract">
<path d="M12.5 4C11.1193 4 10 5.11929 10 6.5C10 7.88071 11.1193 9 12.5 9H15V15H4.5C3.11929 15 2 13.8807 2 12.5V11.5C2 10.1193 3.11929 9 4.5 9H8.75777C8.27914 8.28495 8 7.42507 8 6.5C8 4.01472 10.0147 2 12.5 2C13.9136 2 15.175 2.65183 16 3.67134C16.825 2.65183 18.0864 2 19.5 2C21.9853 2 24 4.01472 24 6.5C24 7.42507 23.7209 8.28495 23.2422 9H28.5C29.8807 9 31 10.1193 31 11.5V12.5C31 13.8807 29.8807 15 28.5 15H17V9H19.5C20.8807 9 22 7.88071 22 6.5C22 5.11929 20.8807 4 19.5 4C18.1193 4 17 5.11929 17 6.5V9H15V6.5C15 5.11929 13.8807 4 12.5 4Z" fill="#3CA79A"/>
<path d="M15 17H4V26C4 27.6569 5.34314 29 7 29H15V17Z" fill="#3CA79A"/>
<path d="M17 17V29H26C27.6569 29 29 27.6569 29 26V17H17Z" fill="#3CA79A"/>
</g>
</g>
</svg>
