<svg width="22" height="21" viewBox="0 0 22 21" fill="none" xmlns="http://www.w3.org/2000/svg">
<path d="M5.08612 7.05704L8.04326 8.94275C8.25755 9.07132 8.51469 9.02847 8.64326 8.81418L10.829 5.42847L12.2004 7.52847L10.9147 8.38561C10.7861 8.47132 10.7004 8.68561 10.7433 8.85704C10.7861 9.02847 10.9147 9.15704 11.129 9.19989L15.8433 9.71418H15.8861C16.1004 9.71418 16.2718 9.58561 16.3147 9.37132L17.3433 4.82847C17.3861 4.65704 17.3004 4.48561 17.1718 4.35704C17.0004 4.27132 16.829 4.27132 16.7004 4.35704L15.629 5.12847L13.1004 1.14275C13.0147 1.01418 12.8861 0.928467 12.7575 0.928467H8.72898H8.68612C8.68612 0.928467 8.68612 0.928467 8.64326 0.928467C8.6004 0.928467 8.55755 0.971324 8.51469 0.971324C8.47183 1.01418 8.42898 1.01418 8.42898 1.05704L5.04326 6.32847C5.0004 6.41418 4.95755 6.54275 5.0004 6.67132C4.91469 6.88561 4.95755 7.01418 5.08612 7.05704ZM15.1575 6.02847C15.2433 6.11418 15.329 6.19989 15.4575 6.19989C15.5861 6.24275 15.7147 6.1999 15.8004 6.11418L16.2718 5.72847L15.5861 8.77132L12.329 8.42847L13.0147 7.95704C13.229 7.82847 13.2718 7.57132 13.1433 7.35704L11.1718 4.35704L9.5004 1.82847H12.5004L15.1575 6.02847ZM8.68612 2.21418L10.2718 4.61418L8.12898 7.9999L5.9004 6.58561L8.68612 2.21418Z" fill="#102B4B"/>
<path d="M21.7148 15.7569C21.7148 15.6712 21.7148 15.6284 21.6719 15.5855L19.3148 9.75693C19.2719 9.67121 19.1862 9.5855 19.1005 9.54264C19.0148 9.49978 18.8862 9.49978 18.7576 9.54264L15.5434 10.8712C15.3291 10.9569 15.2005 11.2141 15.3291 11.4284L16.8291 15.1998L14.3434 15.1141L14.3862 13.5284C14.3862 13.3569 14.3005 13.1855 14.1291 13.0998C13.9576 13.0141 13.7862 13.0569 13.6576 13.2284L10.4434 16.8284C10.3148 16.9998 10.3148 17.2569 10.4434 17.3855L13.5719 20.8569C13.6576 20.9426 13.7862 20.9855 13.8719 20.9855C13.9148 20.9855 14.0005 20.9855 14.0434 20.9426C14.2148 20.8569 14.3005 20.7284 14.3005 20.5141L14.2576 19.1855L18.9719 19.3998C19.1005 19.3998 19.2719 19.3569 19.3576 19.2284L21.6719 15.9284C21.6719 15.9284 21.6719 15.8855 21.7148 15.8855C21.7148 15.8855 21.7148 15.8855 21.7148 15.8426C21.7148 15.8426 21.7148 15.7998 21.7148 15.7569ZM16.2719 11.5141L18.7148 10.5284L20.6434 15.2855L17.7719 15.1998L16.2719 11.5141ZM18.7576 18.5855L13.8291 18.3712C13.7005 18.3712 13.6148 18.4141 13.5291 18.4998C13.4434 18.5855 13.4005 18.7141 13.4005 18.7998V19.3998L11.3005 17.0855L13.4862 14.6426L13.4434 15.4569C13.4434 15.7141 13.6148 15.8855 13.8719 15.8855L17.4291 16.0141L20.4719 16.0998L18.7576 18.5855Z" fill="#102B4B"/>
<path d="M9.15759 15.8L5.12902 15.7143L6.20045 13.4429L7.61473 14.1286C7.78616 14.2143 7.95759 14.1714 8.08616 14.0429C8.21473 13.9143 8.25759 13.7429 8.17187 13.5714L6.15759 9.20001C6.07188 8.98573 5.85759 8.90001 5.6433 8.98573L1.22902 10.4C1.05759 10.4429 0.929018 10.6143 0.929018 10.7857C0.929018 10.9572 1.01473 11.1286 1.18616 11.2143L2.38616 11.6857L0.329018 15.9286C0.286161 16.0572 0.286161 16.2286 0.329018 16.3572L2.42902 19.7857L2.47187 19.8286C2.47187 19.8286 2.47187 19.8286 2.47187 19.8714C2.51473 19.9143 2.55759 19.9572 2.60045 19.9572C2.6433 19.9572 2.68616 20 2.77187 20L9.02902 20.1714C9.15759 20.1714 9.2433 20.1286 9.32902 20.0429C9.41473 19.9572 9.45759 19.8714 9.45759 19.7429L9.5433 16.2714C9.58616 16.0143 9.37187 15.8 9.15759 15.8ZM3.37187 11.6429C3.41473 11.5572 3.41473 11.4286 3.37187 11.3C3.32902 11.1714 3.2433 11.0857 3.11473 11.0429L2.55759 10.8286L5.51473 9.84287L6.88616 12.8L6.15759 12.4572C5.9433 12.3714 5.68616 12.4572 5.60045 12.6714L4.05759 15.8857L2.77187 18.6286L1.22902 16.0572L3.37187 11.6429ZM8.6433 19.3143L3.45759 19.1429L4.70045 16.5286L8.68616 16.6572L8.6433 19.3143Z" fill="#102B4B"/>
</svg>
