<svg xmlns="http://www.w3.org/2000/svg" width="28" height="28" viewBox="0 0 28 28" fill="none">
  <path d="M25.6666 11.6667H2.33325M2.33325 9.56671L2.33325 18.4334C2.33325 19.7402 2.33325 20.3936 2.58757 20.8927C2.81127 21.3317 3.16823 21.6887 3.60727 21.9124C4.1064 22.1667 4.7598 22.1667 6.06658 22.1667L21.9333 22.1667C23.24 22.1667 23.8934 22.1667 24.3926 21.9124C24.8316 21.6887 25.1886 21.3317 25.4123 20.8927C25.6666 20.3936 25.6666 19.7402 25.6666 18.4334V9.56671C25.6666 8.25992 25.6666 7.60653 25.4123 7.1074C25.1886 6.66835 24.8316 6.3114 24.3926 6.08769C23.8934 5.83338 23.24 5.83338 21.9333 5.83338L6.06659 5.83337C4.7598 5.83337 4.1064 5.83337 3.60727 6.08769C3.16823 6.3114 2.81127 6.66835 2.58757 7.1074C2.33325 7.60652 2.33325 8.25992 2.33325 9.56671Z" stroke="black" stroke-width="2" stroke-linecap="round" stroke-linejoin="round"/>
</svg>