<svg xmlns="http://www.w3.org/2000/svg" width="28" height="28" viewBox="0 0 28 28" fill="none">
  <path d="M18.6666 21L20.9999 23.3334L25.6666 18.6667M25.6666 11.6667H2.33325M25.6666 14V9.56671C25.6666 8.25992 25.6666 7.60653 25.4123 7.1074C25.1886 6.66835 24.8316 6.3114 24.3926 6.08769C23.8934 5.83337 23.24 5.83337 21.9333 5.83337H6.06659C4.7598 5.83337 4.1064 5.83337 3.60727 6.08769C3.16823 6.3114 2.81127 6.66835 2.58757 7.1074C2.33325 7.60652 2.33325 8.25992 2.33325 9.56671V18.4334C2.33325 19.7402 2.33325 20.3936 2.58757 20.8927C2.81127 21.3317 3.16823 21.6887 3.60727 21.9124C4.1064 22.1667 4.7598 22.1667 6.06658 22.1667H13.9999" stroke="black" stroke-width="2" stroke-linecap="round" stroke-linejoin="round"/>
</svg>