<svg xmlns="http://www.w3.org/2000/svg" width="31" height="30" viewBox="0 0 31 30" fill="none">
  <path d="M6.27337 17.5H22.7539C24.0247 17.5 24.66 17.5 25.1658 17.264C25.6114 17.056 25.9858 16.7222 26.2424 16.3039C26.5337 15.8292 26.6039 15.2 26.7442 13.9417L27.4782 7.36043C27.5211 6.9761 27.5425 6.78394 27.4805 6.6352C27.426 6.50457 27.3286 6.39621 27.2044 6.32785C27.0628 6.25 26.8688 6.25 26.4806 6.25H5.64605M2.50928 2.5H4.07562C4.40762 2.5 4.57363 2.5 4.7035 2.56291C4.81783 2.61828 4.91258 2.70697 4.97519 2.8172C5.04631 2.94242 5.05666 3.10749 5.07737 3.43762L6.21437 21.5624C6.23508 21.8925 6.24544 22.0576 6.31656 22.1828C6.37916 22.293 6.47391 22.3817 6.58825 22.4371C6.71812 22.5 6.88412 22.5 7.21613 22.5H23.8381M9.40979 26.875H9.42233M20.7015 26.875H20.7141M10.0371 26.875C10.0371 27.2202 9.75625 27.5 9.40979 27.5C9.06333 27.5 8.78247 27.2202 8.78247 26.875C8.78247 26.5298 9.06333 26.25 9.40979 26.25C9.75625 26.25 10.0371 26.5298 10.0371 26.875ZM21.3289 26.875C21.3289 27.2202 21.048 27.5 20.7015 27.5C20.3551 27.5 20.0742 27.2202 20.0742 26.875C20.0742 26.5298 20.3551 26.25 20.7015 26.25C21.048 26.25 21.3289 26.5298 21.3289 26.875Z" stroke="#0E8778" stroke-width="2" stroke-linecap="round" stroke-linejoin="round"/>
</svg>