<svg xmlns="http://www.w3.org/2000/svg" width="28" height="28" viewBox="0 0 28 28" fill="none">
  <g clip-path="url(#clip0_11_25882)">
    <path d="M16.0004 22.8406V18.1081H11.9893V22.8406H8.9193L12.6423 26.5655C13.3909 27.3115 14.6014 27.3115 15.35 26.5655L19.0743 22.8406H16.0004ZM5.15714 19.0834V8.91625L1.43544 12.6398C0.688185 13.3872 0.688185 14.6005 1.43544 15.3479L5.15714 19.0834ZM11.9853 5.15247V9.8836H16.0004V5.15247H19.0743L15.3447 1.43553C14.5974 0.688157 13.3843 0.688157 12.637 1.43553L8.91798 5.15247H11.9853ZM26.5516 12.6345L22.8312 8.91758V19.0741L26.5555 15.3492C27.3068 14.6085 27.3161 13.4005 26.5755 12.6491C26.5741 12.6478 26.5728 12.6465 26.5715 12.6451C26.5715 12.6451 26.5715 12.6451 26.5555 12.6451L26.5516 12.6345Z" fill="#FFF9F7" stroke="#F86767" stroke-width="1.5"/>
  </g>
  <defs>
    <clipPath id="clip0_11_25882">
      <rect width="28" height="28" fill="white"/>
    </clipPath>
  </defs>
</svg>