<svg xmlns="http://www.w3.org/2000/svg" width="32" height="32" viewBox="0 0 32 32" fill="none">
<path d="M12.2839 19.3333C12.7001 20.126 13.5313 20.6667 14.4888 20.6667H17.3333C18.806 20.6667 19.9999 19.4728 19.9999 18C19.9999 16.5272 18.806 15.3333 17.3333 15.3333H14.6666C13.1938 15.3333 11.9999 14.1394 11.9999 12.6667C11.9999 11.1939 13.1938 9.99999 14.6666 9.99999H17.511C18.4685 9.99999 19.2997 10.5406 19.716 11.3333M15.9999 7.99999V9.99999M15.9999 20.6667V22.6667M26.6666 16C26.6666 22.5446 19.528 27.3045 16.9306 28.8198C16.6354 28.992 16.4878 29.0781 16.2795 29.1228C16.1178 29.1575 15.882 29.1575 15.7203 29.1228C15.512 29.0781 15.3645 28.992 15.0693 28.8198C12.4719 27.3045 5.33325 22.5446 5.33325 16V9.62346C5.33325 8.55744 5.33325 8.02444 5.5076 7.56626C5.66162 7.16151 5.9119 6.80036 6.2368 6.51403C6.60458 6.18991 7.10365 6.00276 8.10179 5.62845L15.2509 2.94756C15.528 2.84361 15.6666 2.79163 15.8092 2.77103C15.9357 2.75276 16.0641 2.75276 16.1906 2.77103C16.3332 2.79163 16.4718 2.84361 16.749 2.94756L23.898 5.62845C24.8962 6.00276 25.3953 6.18991 25.763 6.51403C26.0879 6.80036 26.3382 7.16151 26.4922 7.56626C26.6666 8.02444 26.6666 8.55744 26.6666 9.62346V16Z" stroke="#0E8778" stroke-width="2" stroke-linecap="round" stroke-linejoin="round"/>
</svg>