<svg xmlns="http://www.w3.org/2000/svg" width="28" height="28" viewBox="0 0 28 28" fill="none">
  <path d="M10.5001 12.25L12.8334 14.5833L18.0834 9.33333M23.3334 24.5V9.1C23.3334 7.13982 23.3334 6.15972 22.9519 5.41103C22.6164 4.75247 22.081 4.21703 21.4224 3.88148C20.6737 3.5 19.6936 3.5 17.7334 3.5H10.2667C8.30656 3.5 7.32647 3.5 6.57778 3.88148C5.91921 4.21703 5.38378 4.75247 5.04823 5.41103C4.66675 6.15972 4.66675 7.13982 4.66675 9.1V24.5L7.87508 22.1667L10.7917 24.5L14.0001 22.1667L17.2084 24.5L20.1251 22.1667L23.3334 24.5Z" stroke="black" stroke-width="2" stroke-linecap="round" stroke-linejoin="round"/>
</svg>