<svg xmlns="http://www.w3.org/2000/svg" width="28" height="28" viewBox="0 0 28 28" fill="none">
  <path d="M3.5 6.99996C3.5 5.71079 4.54417 4.66663 5.83333 4.66663H15.1667C16.4558 4.66663 17.5 5.71079 17.5 6.99996V17.5H3.5" stroke="#515151" stroke-width="1.5" stroke-linecap="round" stroke-linejoin="round"/>
  <path fill-rule="evenodd" clip-rule="evenodd" d="M25.6667 17.4999H17.5V9.33324L22.1667 9.32507L25.6667 12.8332V17.4999Z" stroke="#515151" stroke-width="1.5" stroke-linecap="round" stroke-linejoin="round"/>
  <path fill-rule="evenodd" clip-rule="evenodd" d="M23.3334 19.8249C23.3334 21.1141 22.2892 22.1582 21.0001 22.1582C19.7109 22.1582 18.6667 21.1141 18.6667 19.8249C18.6667 18.5357 19.7109 17.4916 21.0001 17.4916C22.2892 17.4916 23.3334 18.5357 23.3334 19.8249Z" stroke="#515151" stroke-width="1.5" stroke-linecap="round" stroke-linejoin="round"/>
  <path fill-rule="evenodd" clip-rule="evenodd" d="M9.33341 19.8333C9.33341 21.1225 8.28925 22.1667 7.00008 22.1667C5.71091 22.1667 4.66675 21.1225 4.66675 19.8333C4.66675 18.5442 5.71091 17.5 7.00008 17.5C8.28925 17.5 9.33341 18.5442 9.33341 19.8333Z" stroke="#515151" stroke-width="1.5" stroke-linecap="round" stroke-linejoin="round"/>
  <path d="M5.8335 10.4915H2.3335" stroke="#515151" stroke-width="1.5" stroke-linecap="round" stroke-linejoin="round"/>
  <path d="M7.00008 13.9915H1.16675" stroke="#515151" stroke-width="1.5" stroke-linecap="round" stroke-linejoin="round"/>
</svg>