<svg width="171" height="70" viewBox="0 0 171 70" fill="none" xmlns="http://www.w3.org/2000/svg">
<path id="Vector" d="M95.4968 63.9463C101.89 61.3096 105.158 59.4497 110.741 55.4033L115.731 51.7023L119.432 52.864C129.396 55.8913 139.286 52.7405 149.88 43.1975C159.052 34.8742 164.863 24.5166 169.375 8.9225C170.835 3.62342 171.183 1.36469 170.442 0.839267C169.423 0.116805 167.667 3.67432 163.144 16.3376C155.197 38.5448 133.605 55.2559 121.055 49.0034C119.455 48.217 119.493 47.966 122.119 43.7717C125.82 37.765 127.046 33.4832 126.59 27.9402C126.245 23.5188 126.098 23.1365 123.319 21.1662C120.645 19.3406 120.051 19.1975 116.793 20.1597C112.204 21.4302 107.955 25.6567 106.283 30.6661C105.198 33.8647 105.204 35.3301 106.168 39.0759C106.837 41.5687 108.26 44.666 109.48 46.0874C110.686 47.4297 111.523 48.9977 111.274 49.4475C110.712 50.9281 105.509 54.3394 98.762 57.7695C92.8318 60.7346 90.9724 61.2957 80.2855 63.116C69.6643 64.8437 67.6448 64.9433 60.909 64.1356C56.8278 63.6089 50.3935 62.1796 46.5211 60.9656C33.7669 56.8658 19.1623 44.7723 11.8037 32.1777C10.4223 29.8063 8.04829 23.0423 5.8561 15.4327C3.77177 8.45646 1.86274 2.5093 1.58481 2.31226C0.102474 1.26141 0.19207 4.17866 2.03587 14.047C3.4769 22.0288 4.70696 26.381 6.57031 30.6253C14.1281 47.2589 29.4234 60.5381 47.1196 65.9141C52.0094 67.3621 58.1927 68.7527 60.9264 69.0202C67.556 69.683 89.644 66.4095 95.4968 63.9463ZM112.213 42.5264C109.598 38.6545 109.02 35.739 110.076 31.8935C111.615 26.5809 118.094 22.0561 121.151 24.2235C122.819 25.4057 123.298 30.1302 122.269 34.1339C121.279 37.8868 116.737 45.1771 115.233 45.4333C114.679 45.5276 113.315 44.2123 112.213 42.5264Z" fill="black" fill-opacity="0.06"/>
</svg>
