<svg width="35" height="35" viewBox="0 0 35 35" fill="none" xmlns="http://www.w3.org/2000/svg">
<g id="Group 581899">
<path id="path3461" fill-rule="evenodd" clip-rule="evenodd" d="M28.0448 10.2216C28.1506 10.1883 28.2899 10.2549 28.4291 10.4379C28.4291 10.4379 28.4291 10.4379 34.7239 16.572C35.0916 16.938 35.0916 17.4927 34.7239 17.7644C34.7239 17.7644 34.7239 17.7644 28.4291 23.9928C28.2899 24.1758 28.1506 24.2202 28.0448 24.1647C27.9389 24.1092 27.8721 23.9484 27.8721 23.7155V10.6209C27.8721 10.3936 27.9389 10.2549 28.0448 10.2216Z" fill="#A1D5CE"/>
<path id="path3463" fill-rule="evenodd" clip-rule="evenodd" d="M17.2777 0H17.7233L18.1523 0.177478C18.1523 0.177478 18.1523 0.177478 24.6309 6.58885C24.9094 6.9549 24.8147 7.23221 24.3524 7.23221C24.3524 7.23221 24.3524 7.23221 21.6673 7.23221C21.205 7.23221 20.8373 7.59826 20.8373 8.05859C20.8373 8.05859 20.8373 8.05859 20.8373 12.8172C20.8373 13.2775 20.4641 13.6436 19.907 13.6436C19.907 13.6436 19.907 13.6436 15.1887 13.6436C14.7263 13.6436 14.3531 13.2775 14.3531 12.8172C14.3531 12.8172 14.3531 12.8172 14.3531 8.05859C14.3531 7.59826 13.9854 7.23221 13.5175 7.23221H10.6486C10.1863 7.23221 10.0916 6.9549 10.3701 6.58885C10.3701 6.58885 10.3701 6.58885 16.8543 0.177478L17.2777 0Z" fill="#A1D5CE"/>
<path id="path3465" fill-rule="evenodd" clip-rule="evenodd" d="M7.12761 10.0831C7.24459 10.1386 7.31701 10.2994 7.31701 10.5324V23.8986C7.31701 24.1316 7.24459 24.2702 7.12761 24.3146C7.0162 24.359 6.85465 24.3146 6.66525 24.176C6.66525 24.176 6.66525 24.176 0.275746 17.7646C-0.0919153 17.4928 -0.0919153 16.9382 0.275746 16.5722C0.275746 16.5722 0.275746 16.5722 6.66525 10.2551C6.85465 10.072 7.0162 10.0277 7.12761 10.0831Z" fill="#A1D5CE"/>
<path id="path3467" fill-rule="evenodd" clip-rule="evenodd" d="M15.1882 20.6038C15.1882 20.6038 15.1882 20.6038 19.9065 20.6038C20.4636 20.6038 20.8368 20.9698 20.8368 21.4301C20.8368 21.4301 20.8368 21.4301 20.8368 26.4661C20.8368 27.0151 21.2044 27.3812 21.6668 27.3812H24.168C24.6304 27.3812 24.8142 27.6529 24.4465 27.9303C24.4465 27.9303 24.4465 27.9303 18.1517 34.2473C17.9623 34.4304 17.7339 34.5247 17.5 34.5247C17.2716 34.5247 17.0376 34.4304 16.8538 34.2473C16.8538 34.2473 16.8538 34.2473 10.559 27.9303C10.1858 27.6529 10.3696 27.3812 10.8319 27.3812C10.8319 27.3812 10.8319 27.3812 13.517 27.3812C13.9849 27.3812 14.3526 27.0151 14.3526 26.4661C14.3526 26.4661 14.3526 26.4661 14.3526 21.4301C14.3526 20.9698 14.7258 20.6038 15.1882 20.6038Z" fill="#A1D5CE"/>
</g>
</svg>
