<svg width="36" height="36" viewBox="0 0 36 36" fill="none" xmlns="http://www.w3.org/2000/svg">
<path fill-rule="evenodd" clip-rule="evenodd" d="M33 18C33 26.2842 26.2842 33 18 33C9.71572 33 3 26.2842 3 18C3 9.71572 9.71572 3 18 3C26.2842 3 33 9.71572 33 18ZM24.0454 13.4545C24.4848 13.8938 24.4848 14.6062 24.0454 15.0454L16.5454 22.5454C16.1061 22.9848 15.3939 22.9848 14.9545 22.5454L11.9545 19.5454C11.5152 19.1061 11.5152 18.3939 11.9545 17.9545C12.3938 17.5152 13.1062 17.5152 13.5455 17.9545L15.75 20.1589L19.1022 16.8067L22.4545 13.4545C22.8939 13.0152 23.6061 13.0152 24.0454 13.4545Z" fill="#3CA79A"/>
</svg>
