<svg width="932" height="603" viewBox="0 0 932 603" fill="none" xmlns="http://www.w3.org/2000/svg">
<g clip-path="url(#clip0_4211_61793)">
<rect width="932" height="603" fill="#F1F5F9"/>
<path d="M817.215 25.5054C825.199 33.3071 830.213 36.914 840.36 42.4329L849.583 47.3032L849.312 53.8134C848.765 71.269 859.428 84.026 882.077 93.1134C901.798 100.936 923.547 102.12 954.182 97.4362C964.556 95.7321 968.841 94.5878 969.428 93.0667C970.236 90.9751 962.885 90.9342 937.58 93.4279C893.195 97.776 852.019 77.2217 857.148 53.4262C857.783 50.4003 858.259 50.2732 867.202 51.168C879.98 52.3603 888.385 51.054 898.249 46.2458C906.125 42.4372 906.748 41.9298 908.95 36.2256C910.942 30.7909 910.906 29.7772 907.532 25.5195C902.933 19.4571 893.122 16.1079 883.17 17.2731C876.807 17.9916 874.142 19.0869 867.804 23.3376C863.599 26.2083 858.67 30.6794 856.69 33.5957C854.848 36.4326 852.41 38.874 851.468 38.8274C848.492 39.0676 839.69 33.6584 830.085 25.9057C821.733 19.0547 819.786 16.6331 811.148 1.67253C802.712 -13.2565 801.525 -16.2649 799.64 -27.1449C798.565 -33.7649 797.962 -44.646 798.243 -51.4572C799.352 -73.9661 814.091 -105.231 833.352 -125.807C836.981 -129.675 848.111 -138.318 860.871 -147.31C872.533 -155.668 882.408 -162.995 882.628 -163.565C883.802 -166.608 878.536 -164.306 861.491 -154.169C847.679 -146.047 840.369 -140.94 833.571 -134.947C807.057 -111.069 790.503 -77.8705 789.533 -46.8718C789.333 -38.3342 789.882 -27.8648 790.757 -23.4939C792.853 -12.8834 809.815 18.4002 817.215 25.5054ZM864.534 35.125C870.28 28.2614 875.299 25.2157 882.825 23.9735C893.263 22.3802 904.728 28.9116 902.305 35.1862C900.984 38.6087 892.622 42.8453 884.821 44.2462C877.497 45.5199 861.963 43.9974 860.747 41.8919C860.299 41.1162 862.014 38.0576 864.534 35.125Z" fill="#FFE7DF"/>
<path d="M19.9921 37.7987C27.6261 33.5084 32.157 31.7933 40.9661 29.6718L48.9434 27.8541L50.0596 22.8662C53.1893 9.5291 63.8584 2.02784 82.8646 -0.259364C99.3952 -2.18294 116.116 1.33549 138.377 11.1045C145.891 14.5018 148.905 16.2388 149.041 17.5106C149.229 19.2593 143.65 17.7979 124.983 10.7708C92.2357 -1.53495 56.8632 5.67928 55.9187 24.7506C55.785 27.1721 56.12 27.3651 63.0779 28.5028C73.0022 30.1937 79.1054 32.89 85.6029 38.5357C90.7975 43.0205 91.1665 43.5315 91.677 48.3007C92.0825 52.8229 91.8496 53.5837 88.4286 56.1248C83.7129 59.7845 75.5995 60.3304 68.2955 57.4271C63.6201 55.5908 61.8233 54.2198 57.8835 49.7122C55.2806 46.6834 52.4536 42.2949 51.5454 39.6833C50.7252 37.1596 49.3742 34.8149 48.6503 34.6588C46.4446 33.8727 38.6774 36.1843 29.8255 40.1085C22.1064 43.6039 20.1389 45.0433 10.5569 54.6254C1.13388 64.2244 -0.37658 66.2628 -4.01392 74.1239C-6.17191 78.9217 -8.83841 87.0439 -10.0085 92.2617C-13.7377 109.542 -8.91724 136.224 1.49925 155.725C3.46334 159.393 10.1422 168.201 17.9849 177.605C25.1237 186.306 31.1185 193.862 31.1695 194.339C31.4418 196.882 27.9191 194.069 17.0617 182.928C8.24527 173.97 3.74344 168.616 -0.190559 162.695C-15.4326 139.219 -21.2351 110.704 -15.6771 87.019C-14.0952 80.5094 -11.5537 72.6882 -10.0034 69.554C-6.26102 61.9399 12.9429 41.6801 19.9921 37.7987ZM57.7993 40.117C60.7595 46.4841 63.9443 49.8109 69.3946 52.2802C76.9796 55.6065 86.9924 52.9852 86.4309 47.7391C86.1246 44.8776 80.649 39.9699 75.0227 37.3246C69.7314 34.8724 57.6524 32.8723 56.3038 34.2209C55.807 34.7177 56.4852 37.3833 57.7993 40.117Z" fill="#FFE7DF"/>
<path d="M307.536 16.8921C304.155 14.0612 301.323 8.82643 300.206 3.4739C299.489 -0.135344 300.048 -1.86251 301.268 0.0524441C301.674 0.690762 302.489 2.49743 303.059 4.1421C304.253 7.59021 307.14 12.2621 308.977 13.6687C312.16 16.158 314.551 15.4991 317.439 11.3641C318.306 10.1045 319.611 8.28835 320.316 7.27405C321.021 6.25976 322.43 4.95284 323.512 4.32828C325.277 3.30927 325.57 3.29165 327.543 4.0127C330.602 5.16925 332.621 7.15403 337.015 13.3849C341.311 19.4449 342.818 21.0039 344.08 20.4275C345.182 19.9047 346.779 16.8193 347.681 13.4516C349.474 6.76096 352.182 4.02123 355.864 5.00783C358.411 5.73855 360.421 7.57659 362.848 11.4514C365.78 16.1353 367.915 18.5844 369.352 18.9694C371.687 19.5951 374.413 16.4272 376.702 10.3989C377.306 8.68381 378.191 6.99597 378.659 6.68809C379.345 6.10199 379.48 6.13809 379.952 6.89027C380.774 8.31365 379.22 15.5495 377.519 18.1258C374.846 22.1741 370.394 24.0613 367.252 22.4974C365.139 21.4019 363.976 20.1758 361.492 16.3338C357.678 10.451 355.069 7.97145 353.855 9.08995C353.604 9.31124 352.636 11.8434 351.63 14.702C348.949 22.5504 346.287 25.3022 342.335 24.2434C339.866 23.5816 338.28 21.9537 333.853 15.6659C329.988 10.1544 328.37 8.46952 326.349 7.92809C325.047 7.57917 324.211 8.36572 321.457 12.5368C317.29 18.9281 311.984 20.5867 307.536 16.8921Z" fill="#FFE7DF"/>
<path d="M604.787 -10.1685C600.444 -9.40712 595.374 -6.28991 591.731 -2.21275C589.305 0.554272 588.925 2.32956 590.939 1.2809C591.61 0.931346 593.22 -0.225603 594.536 -1.36494C597.293 -3.75425 602.13 -6.35669 604.424 -6.65639C608.425 -7.22055 610.166 -5.4547 610.6 -0.429388C610.721 1.09496 610.943 3.32015 611.046 4.55102C611.15 5.78189 611.716 7.61821 612.341 8.69997C613.36 10.465 613.605 10.627 615.674 10.9888C618.901 11.5167 621.642 10.8073 628.563 7.60842C635.314 4.5082 637.399 3.91179 638.203 5.04169C638.896 6.04568 638.736 9.51613 637.834 12.8839C636.041 19.5745 637.016 23.3008 640.698 24.2874C643.27 24.9283 645.93 24.3416 649.969 22.1994C654.85 19.609 657.923 18.5556 659.36 18.9406C661.695 19.5662 662.472 23.6727 661.44 30.0378C661.106 31.8251 661.029 33.7295 661.28 34.2299C661.581 35.0807 661.716 35.1168 662.501 34.7015C663.924 33.8797 666.196 26.8363 666.011 23.7547C665.721 18.9123 662.809 15.0519 659.305 14.8351C656.928 14.7274 655.307 15.2076 651.235 17.2929C644.991 20.4805 641.492 21.3238 641 19.7481C640.893 19.4305 641.321 16.754 641.879 13.7751C643.481 5.63793 642.552 1.92362 638.6 0.864818C636.13 0.203068 633.944 0.820316 626.966 4.05203C620.862 6.8925 618.619 7.54262 616.598 7.00119C615.296 6.65227 614.965 5.55289 614.665 0.563667C614.252 -7.05487 610.487 -11.1439 604.787 -10.1685Z" fill="#FFE7DF"/>
</g>
<defs>
<clipPath id="clip0_4211_61793">
<rect width="932" height="603" fill="white"/>
</clipPath>
</defs>
</svg>
