<svg width="28" height="29" viewBox="0 0 28 29" fill="none" xmlns="http://www.w3.org/2000/svg">
<rect y="0.5" width="28" height="28" rx="14" fill="#3CA79A"/>
<path d="M19.6666 10.8518L14 14M14 14L8.33331 10.8518M14 14L14 20.3333M20 16.7057V11.2943C20 11.0659 20 10.9517 19.9663 10.8498C19.9366 10.7597 19.8879 10.677 19.8236 10.6072C19.7509 10.5283 19.651 10.4728 19.4514 10.3619L14.518 7.62114C14.329 7.5161 14.2344 7.46358 14.1343 7.44299C14.0457 7.42477 13.9543 7.42477 13.8657 7.44299C13.7656 7.46358 13.6711 7.5161 13.482 7.62114L8.54865 10.3619C8.34896 10.4728 8.24912 10.5283 8.17642 10.6072C8.11211 10.677 8.06343 10.7597 8.03366 10.8498C8 10.9517 8 11.0659 8 11.2943V16.7057C8 16.9341 8 17.0484 8.03366 17.1502C8.06343 17.2403 8.11211 17.3231 8.17642 17.3929C8.24912 17.4718 8.34897 17.5272 8.54865 17.6382L13.482 20.3789C13.6711 20.4839 13.7656 20.5365 13.8657 20.557C13.9543 20.5753 14.0457 20.5753 14.1343 20.557C14.2344 20.5365 14.329 20.4839 14.518 20.3789L19.4514 17.6382C19.651 17.5272 19.7509 17.4718 19.8236 17.3929C19.8879 17.3231 19.9366 17.2403 19.9663 17.1502C20 17.0484 20 16.9341 20 16.7057Z" stroke="white" stroke-linecap="round" stroke-linejoin="round"/>
<path d="M17 12.3333L11 9" stroke="white" stroke-linecap="round" stroke-linejoin="round"/>
</svg>
