<svg width="220" height="220" viewBox="0 0 220 220" fill="none" xmlns="http://www.w3.org/2000/svg">
<path opacity="0.24" d="M102.634 26.686C91.6388 25.8368 80.4364 25.0008 69.6696 27.3856C58.9028 29.7704 48.4484 35.904 43.6876 45.6632C37.5144 58.3044 42.0816 73.6692 37.7608 87.0276C35.3848 94.3712 30.4876 100.619 26.1052 107.03C19.0652 117.304 13.0372 128.603 10.9956 140.826C8.954 153.05 11.308 166.43 19.4348 175.952C32.4412 191.237 55.4444 192.733 75.768 193.054L147.704 194.137C157.018 194.278 166.716 194.339 175.142 190.432C188.575 184.166 195.452 169.519 199.91 155.641C204.085 142.644 206.976 128.044 200.93 115.773C197.525 108.869 191.523 103.277 189.077 95.986C185.948 86.5744 189.38 76.3708 189.077 66.4796C187.752 21.6172 133.184 29.04 102.643 26.686H102.634Z" fill="#D9EEEB"/>
<path d="M132.444 75.3456C132.462 75.0024 132.383 74.6592 132.22 74.36C132.062 74.162 131.864 74.0036 131.635 73.8892C128.674 72.16 125.387 71.06 121.977 70.664C121.422 70.5584 120.85 70.6024 120.318 70.7916C119.579 71.1128 119.205 71.8828 118.853 72.6L112.297 86.306C112.121 86.6756 111.949 87.0892 112.121 87.45C112.226 87.6348 112.376 87.7888 112.552 87.9076C117.938 91.8896 124.661 93.6188 131.3 92.7212C132.233 92.6508 133.131 92.3516 133.918 91.85C136.88 89.6852 134.517 86.9176 133.1 84.8936C131.459 82.5572 132.541 78.1616 132.44 75.35L132.444 75.3456Z" fill="#A1D5CE"/>
<path d="M99.5896 77.5764C99.7348 77.2464 99.9592 76.9604 100.236 76.7316C100.597 76.5248 101.011 76.4236 101.424 76.4368C103.497 76.3752 105.565 76.4412 107.628 76.6392C108.975 76.692 110.308 76.8812 111.619 77.1936C112.57 77.4532 113.476 77.8492 114.316 78.3684C114.717 78.5752 115.047 78.892 115.267 79.2836C115.416 79.6796 115.469 80.102 115.421 80.52C115.359 82.0908 115.276 83.6616 115.188 85.228C115.012 88.3784 114.787 91.608 113.507 94.49C113.37 94.8508 113.155 95.1764 112.873 95.4448C112.609 95.6384 112.31 95.7792 111.993 95.854C111.135 96.0696 110.251 96.1796 109.366 96.1928C106.392 96.3028 103.418 96.052 100.505 95.4536C99.1408 95.2028 97.812 94.7848 96.5536 94.2084C96.3424 94.1292 96.162 93.984 96.0344 93.7992C95.9552 93.6188 95.92 93.4208 95.942 93.2228C95.9728 90.8556 96.074 88.4928 96.2456 86.1388C96.3248 85.096 96.2764 83.8948 96.5888 82.8916C96.7868 82.2492 97.2796 81.752 97.6184 81.18C98.3268 80.0096 98.9296 78.7776 99.5852 77.5852L99.5896 77.5764Z" fill="#A1D5CE"/>
<path d="M99.5896 77.5764C99.7348 77.2464 99.9592 76.9604 100.236 76.7316C100.597 76.5248 101.011 76.4236 101.424 76.4368C103.497 76.3752 105.565 76.4412 107.628 76.6392C108.975 76.692 110.308 76.8812 111.619 77.1936C112.57 77.4532 113.476 77.8492 114.316 78.3684C114.717 78.5752 115.047 78.892 115.267 79.2836C115.416 79.6796 115.469 80.102 115.421 80.52C115.359 82.0908 115.276 83.6616 115.188 85.228C115.012 88.3784 114.787 91.608 113.507 94.49C113.37 94.8508 113.155 95.1764 112.873 95.4448C112.609 95.6384 112.31 95.7792 111.993 95.854C111.135 96.0696 110.251 96.1796 109.366 96.1928C106.392 96.3028 103.418 96.052 100.505 95.4536C99.1408 95.2028 97.812 94.7848 96.5536 94.2084C96.3424 94.1292 96.162 93.984 96.0344 93.7992C95.9552 93.6188 95.92 93.4208 95.942 93.2228C95.9728 90.8556 96.074 88.4928 96.2456 86.1388C96.3248 85.096 96.2764 83.8948 96.5888 82.8916C96.7868 82.2492 97.2796 81.752 97.6184 81.18C98.3268 80.0096 98.9296 78.7776 99.5852 77.5852L99.5896 77.5764Z" fill="url(#paint0_linear_4211_54031)"/>
<path d="M135.428 83.2128C136.048 83.1556 136.721 83.1072 137.254 83.4328C137.707 83.7716 138.05 84.238 138.235 84.7748C139.889 88.4972 140.642 92.5584 140.435 96.6284C129.096 97.9792 117.687 98.5952 106.269 98.4808C103.633 98.45 104.416 93.4868 105.53 91.9776C107.087 89.9052 110.827 89.0868 113.102 88.2728C120.314 85.6856 127.811 83.9872 135.432 83.2172L135.428 83.2128Z" fill="#A1D5CE"/>
<path d="M135.428 83.2128C136.048 83.1556 136.721 83.1072 137.254 83.4328C137.707 83.7716 138.05 84.238 138.235 84.7748C139.889 88.4972 140.642 92.5584 140.435 96.6284C129.096 97.9792 117.687 98.5952 106.269 98.4808C103.633 98.45 104.416 93.4868 105.53 91.9776C107.087 89.9052 110.827 89.0868 113.102 88.2728C120.314 85.6856 127.811 83.9872 135.432 83.2172L135.428 83.2128Z" fill="url(#paint1_linear_4211_54031)"/>
<path d="M71.1876 84.7264C71.0864 84.1192 71.4956 83.5472 72.1028 83.4504C72.2216 83.4284 72.3448 83.4284 72.468 83.4504C82.1392 82.6936 91.8324 82.2668 101.539 82.17C101.847 82.1392 102.155 82.1964 102.432 82.3328C102.832 82.5792 102.934 83.0984 103.008 83.5604C103.523 86.9396 104.038 90.3188 104.562 93.6936C104.645 94.0104 104.619 94.3448 104.487 94.644C104.262 95.0136 103.774 95.1016 103.343 95.1456C95.1016 96.0256 86.8164 96.4436 78.5268 96.3952C75.9132 96.3776 72.5428 97.02 71.2316 94.2304C70.0436 91.6784 70.9632 87.384 71.192 84.7308L71.1876 84.7264Z" fill="#A1D5CE"/>
<path d="M71.1876 84.7264C71.0864 84.1192 71.4956 83.5472 72.1028 83.4504C72.2216 83.4284 72.3448 83.4284 72.468 83.4504C82.1392 82.6936 91.8324 82.2668 101.539 82.17C101.847 82.1392 102.155 82.1964 102.432 82.3328C102.832 82.5792 102.934 83.0984 103.008 83.5604C103.523 86.9396 104.038 90.3188 104.562 93.6936C104.645 94.0104 104.619 94.3448 104.487 94.644C104.262 95.0136 103.774 95.1016 103.343 95.1456C95.1016 96.0256 86.8164 96.4436 78.5268 96.3952C75.9132 96.3776 72.5428 97.02 71.2316 94.2304C70.0436 91.6784 70.9632 87.384 71.192 84.7308L71.1876 84.7264Z" fill="url(#paint2_linear_4211_54031)"/>
<path d="M80.5507 168.758C94.9035 169.374 109.27 169.642 123.64 169.563C122.553 171.12 123.499 173.417 125.101 174.429C126.702 175.441 128.696 175.542 130.592 175.586L158.299 176.378C162.105 176.488 166.184 176.524 169.352 174.407C170.003 174.02 170.531 173.452 170.87 172.779C171.789 170.672 169.655 168.564 167.768 167.24L159.988 161.775C156.336 159.214 152.645 156.636 148.504 154.994C142.727 152.715 136.387 152.403 130.178 152.214C115.9 151.8 101.248 151.43 87.0143 152.821C82.5307 153.208 78.1659 154.449 74.1443 156.464C71.6187 157.718 61.8991 160.538 61.5515 163.266C60.7991 168.718 77.3211 168.595 80.5463 168.749L80.5507 168.758Z" fill="url(#paint3_linear_4211_54031)"/>
<path d="M102.542 62.3964C104.32 63.5624 104.812 65.9428 103.646 67.7204L81.0699 102.146C79.9039 103.924 77.5235 104.416 75.7459 103.25C73.9683 102.084 73.4755 99.704 74.6415 97.9264L97.2179 63.5008C98.3839 61.7232 100.764 61.2304 102.542 62.3964Z" fill="#A1D5CE"/>
<path d="M112.851 64.7063C114.558 63.4435 116.965 63.8087 118.228 65.5159L142.688 98.6303C143.95 100.338 143.585 102.744 141.878 104.007C140.171 105.27 137.764 104.905 136.501 103.198L112.042 70.0831C110.779 68.3759 111.144 65.9691 112.851 64.7063Z" fill="#A1D5CE"/>
<path d="M102.542 62.3964C104.32 63.5624 104.812 65.9428 103.646 67.7204L81.0699 102.146C79.9039 103.924 77.5235 104.416 75.7459 103.25C73.9683 102.084 73.4755 99.704 74.6415 97.9264L97.2179 63.5008C98.3839 61.7232 100.764 61.2304 102.542 62.3964Z" fill="url(#paint4_linear_4211_54031)"/>
<path d="M112.851 64.7063C114.558 63.4435 116.965 63.8087 118.228 65.5159L142.688 98.6303C143.95 100.338 143.585 102.744 141.878 104.007C140.171 105.27 137.764 104.905 136.501 103.198L112.042 70.0831C110.779 68.3759 111.144 65.9691 112.851 64.7063Z" fill="url(#paint5_linear_4211_54031)"/>
<path d="M136.523 161.59H75.0023L67.6499 105.274H146.705L136.523 161.59Z" fill="#A1D5CE"/>
<path d="M146.705 105.266L136.519 161.59H75.0067L67.6543 105.266H146.705Z" fill="url(#paint6_linear_4211_54031)"/>
<path d="M98.7534 124.498V161.586H88.3298V124.498C88.4046 121.625 90.7982 119.354 93.6758 119.429C96.4434 119.504 98.6698 121.73 98.7446 124.498H98.7578H98.7534Z" fill="#A1D5CE"/>
<path d="M121.37 124.498V161.586H110.959V124.498C111.034 121.625 113.428 119.354 116.305 119.429C119.073 119.504 121.299 121.73 121.374 124.498H121.37Z" fill="#A1D5CE"/>
<path d="M148.843 94.4153H65.8459C62.1571 94.4153 59.1667 97.4057 59.1667 101.094V104.702C59.1667 108.391 62.1571 111.382 65.8459 111.382H148.843C152.532 111.382 155.522 108.391 155.522 104.702V101.094C155.522 97.4057 152.532 94.4153 148.843 94.4153Z" fill="#A1D5CE"/>
<path d="M148.843 94.4153H65.8459C62.1571 94.4153 59.1667 97.4057 59.1667 101.094V104.702C59.1667 108.391 62.1571 111.382 65.8459 111.382H148.843C152.532 111.382 155.522 108.391 155.522 104.702V101.094C155.522 97.4057 152.532 94.4153 148.843 94.4153Z" fill="url(#paint7_linear_4211_54031)"/>
<path d="M115.262 70.95C116.949 70.95 118.316 69.5828 118.316 67.8964C118.316 66.2099 116.949 64.8428 115.262 64.8428C113.576 64.8428 112.209 66.2099 112.209 67.8964C112.209 69.5828 113.576 70.95 115.262 70.95Z" fill="url(#paint8_linear_4211_54031)"/>
<path d="M100.448 68.8028C102.134 68.8028 103.501 67.4356 103.501 65.7492C103.501 64.0627 102.134 62.6956 100.448 62.6956C98.7612 62.6956 97.394 64.0627 97.394 65.7492C97.394 67.4356 98.7612 68.8028 100.448 68.8028Z" fill="url(#paint9_linear_4211_54031)"/>
<path d="M150.225 175.842C166.939 175.842 180.488 162.292 180.488 145.578C180.488 128.864 166.939 115.315 150.225 115.315C133.511 115.315 119.962 128.864 119.962 145.578C119.962 162.292 133.511 175.842 150.225 175.842Z" fill="white"/>
<path d="M145.517 163.416C144.43 163.416 143.387 162.985 142.622 162.215L129.36 148.971C127.807 147.325 127.882 144.734 129.523 143.18C131.102 141.689 133.571 141.689 135.151 143.18L145.31 153.34L166.052 129.554C167.495 127.811 170.078 127.574 171.82 129.017C173.563 130.46 173.8 133.043 172.357 134.785C172.313 134.838 172.273 134.886 172.229 134.935L148.597 162.026C147.849 162.884 146.775 163.39 145.636 163.42C145.596 163.42 145.557 163.42 145.517 163.412V163.416Z" fill="#63B9AE"/>
<defs>
<linearGradient id="paint0_linear_4211_54031" x1="104.007" y1="81.0656" x2="111.245" y2="105.156" gradientUnits="userSpaceOnUse">
<stop stop-color="#010101" stop-opacity="0"/>
<stop offset="0.95" stop-color="#010101"/>
</linearGradient>
<linearGradient id="paint1_linear_4211_54031" x1="121.207" y1="86.3412" x2="123.922" y2="104.32" gradientUnits="userSpaceOnUse">
<stop stop-color="#010101" stop-opacity="0"/>
<stop offset="0.95" stop-color="#010101"/>
</linearGradient>
<linearGradient id="paint2_linear_4211_54031" x1="87.0716" y1="83.1512" x2="88.9944" y2="116.288" gradientUnits="userSpaceOnUse">
<stop stop-color="#010101" stop-opacity="0"/>
<stop offset="0.95" stop-color="#010101"/>
</linearGradient>
<linearGradient id="paint3_linear_4211_54031" x1="112.842" y1="186.336" x2="137.949" y2="51.2996" gradientUnits="userSpaceOnUse">
<stop stop-color="#010101" stop-opacity="0"/>
<stop offset="0.95" stop-color="#010101"/>
</linearGradient>
<linearGradient id="paint4_linear_4211_54031" x1="95.2951" y1="73.084" x2="59.8399" y2="129.232" gradientUnits="userSpaceOnUse">
<stop stop-color="#010101" stop-opacity="0"/>
<stop offset="0.95" stop-color="#010101"/>
</linearGradient>
<linearGradient id="paint5_linear_4211_54031" x1="123.125" y1="75.3455" x2="147.721" y2="127.596" gradientUnits="userSpaceOnUse">
<stop stop-color="#010101" stop-opacity="0"/>
<stop offset="0.95" stop-color="#010101"/>
</linearGradient>
<linearGradient id="paint6_linear_4211_54031" x1="101.908" y1="169.382" x2="110.053" y2="70.312" gradientUnits="userSpaceOnUse">
<stop stop-color="#010101" stop-opacity="0"/>
<stop offset="1" stop-color="#010101"/>
</linearGradient>
<linearGradient id="paint7_linear_4211_54031" x1="107.347" y1="100.294" x2="107.347" y2="155.03" gradientUnits="userSpaceOnUse">
<stop stop-color="#010101" stop-opacity="0"/>
<stop offset="0.95" stop-color="#010101"/>
</linearGradient>
<linearGradient id="paint8_linear_4211_54031" x1="114.312" y1="58.7884" x2="116.688" y2="81.5188" gradientUnits="userSpaceOnUse">
<stop stop-color="#010101" stop-opacity="0"/>
<stop offset="0.95" stop-color="#010101"/>
</linearGradient>
<linearGradient id="paint9_linear_4211_54031" x1="99.4928" y1="56.6412" x2="101.869" y2="79.3671" gradientUnits="userSpaceOnUse">
<stop stop-color="#010101" stop-opacity="0"/>
<stop offset="0.95" stop-color="#010101"/>
</linearGradient>
</defs>
</svg>
