<svg width="28" height="29" viewBox="0 0 28 29" fill="none" xmlns="http://www.w3.org/2000/svg">
<rect x="0.5" y="1" width="27" height="27" rx="13.5"/>
<rect x="0.5" y="1" width="27" height="27" rx="13.5" stroke="#EDEDED"/>
<path fill-rule="evenodd" clip-rule="evenodd" d="M18.8867 11.237C18.9357 11.2216 19.0003 11.2524 19.0648 11.3372C19.0648 11.3372 19.0648 11.3372 21.982 14.1799C22.1524 14.3496 22.1524 14.6066 21.982 14.7326C21.982 14.7326 21.982 14.7326 19.0648 17.619C19.0003 17.7038 18.9357 17.7244 18.8867 17.6987C18.8376 17.673 18.8066 17.5984 18.8066 17.4905V11.422C18.8066 11.3167 18.8376 11.2524 18.8867 11.237Z" fill="#F86767"/>
<path fill-rule="evenodd" clip-rule="evenodd" d="M13.8961 6.5H14.1027L14.3015 6.58225C14.3015 6.58225 14.3015 6.58225 17.3039 9.55349C17.4329 9.72313 17.3891 9.85165 17.1748 9.85165C17.1748 9.85165 17.1748 9.85165 15.9305 9.85165C15.7162 9.85165 15.5458 10.0213 15.5458 10.2346C15.5458 10.2346 15.5458 10.2346 15.5458 12.4399C15.5458 12.6533 15.3728 12.8229 15.1147 12.8229C15.1147 12.8229 15.1147 12.8229 12.928 12.8229C12.7138 12.8229 12.5408 12.6533 12.5408 12.4399C12.5408 12.4399 12.5408 12.4399 12.5408 10.2346C12.5408 10.0213 12.3704 9.85165 12.1536 9.85165H10.824C10.6097 9.85165 10.5659 9.72313 10.6949 9.55349C10.6949 9.55349 10.6949 9.55349 13.6999 6.58225L13.8961 6.5Z" fill="#F86767"/>
<path fill-rule="evenodd" clip-rule="evenodd" d="M9.19282 11.1728C9.24703 11.1985 9.28059 11.2731 9.28059 11.381V17.5754C9.28059 17.6834 9.24703 17.7476 9.19282 17.7682C9.14119 17.7887 9.06632 17.7682 8.97855 17.7039C8.97855 17.7039 8.97855 17.7039 6.01744 14.7327C5.84705 14.6067 5.84705 14.3497 6.01744 14.1801C6.01744 14.1801 6.01744 14.1801 8.97855 11.2525C9.06632 11.1677 9.14119 11.1471 9.19282 11.1728Z" fill="#F86767"/>
<path fill-rule="evenodd" clip-rule="evenodd" d="M12.9287 16.0485C12.9287 16.0485 12.9287 16.0485 15.1154 16.0485C15.3735 16.0485 15.5465 16.2181 15.5465 16.4314C15.5465 16.4314 15.5465 16.4314 15.5465 18.7652C15.5465 19.0197 15.7169 19.1893 15.9312 19.1893H17.0903C17.3046 19.1893 17.3898 19.3153 17.2194 19.4438C17.2194 19.4438 17.2194 19.4438 14.3022 22.3714C14.2144 22.4562 14.1085 22.4999 14.0001 22.4999C13.8943 22.4999 13.7858 22.4562 13.7006 22.3714C13.7006 22.3714 13.7006 22.3714 10.7834 19.4438C10.6105 19.3153 10.6956 19.1893 10.9099 19.1893C10.9099 19.1893 10.9099 19.1893 12.1543 19.1893C12.3711 19.1893 12.5415 19.0197 12.5415 18.7652C12.5415 18.7652 12.5415 18.7652 12.5415 16.4314C12.5415 16.2181 12.7145 16.0485 12.9287 16.0485Z" fill="#F86767"/>
</svg>
