<svg width="126" height="273" viewBox="0 0 126 273" fill="none" xmlns="http://www.w3.org/2000/svg">
<path d="M124.048 136.785C121.584 125.892 119.51 120.186 114.582 110.201L110.043 101.253L112.896 95.6766C120.417 80.6336 118.083 64.0345 105.763 44.5824C94.9999 27.7239 80.0866 15.6636 56.4847 4.25166C48.4445 0.490922 44.9432 -0.676205 43.9057 0.361241C42.4792 1.78773 47.6664 5.54847 66.5998 16.1823C99.7981 34.8563 120.547 73.7606 107.19 92.0456C105.504 94.3798 105.115 94.2501 99.1497 88.9332C90.5908 81.4117 84.1067 78.2994 75.1588 77.5213C68.0263 76.8729 67.3779 77.0026 63.4875 80.893C59.8564 84.6537 59.4674 85.5615 60.1158 91.0081C60.8939 98.6593 66.4702 106.57 73.9916 110.59C78.7898 113.184 81.1241 113.573 87.3488 113.054C91.4985 112.665 96.8155 111.238 99.4091 109.682C101.873 108.126 104.596 107.218 105.245 107.737C107.449 109.034 111.469 118.241 115.1 129.912C118.213 140.157 118.602 143.269 118.602 160.776C118.472 178.154 118.083 181.396 114.971 191.9C113.026 198.254 109.005 208.11 106.023 213.945C96.0374 233.138 72.8245 253.109 50.7788 261.409C46.629 262.965 35.2171 264.91 22.5084 266.337C10.8371 267.763 0.851687 269.189 0.462645 269.579C-1.61225 271.653 3.05626 272.302 19.2664 272.042C32.3641 271.913 39.6262 271.135 46.8884 269.319C75.4181 261.798 100.706 241.049 114.063 214.335C117.694 206.943 121.584 197.476 122.752 193.197C125.605 182.822 126.383 146.771 124.048 136.785ZM94.4812 104.365C87.6081 107.478 82.8099 107.607 76.9743 104.884C68.9341 100.994 63.4875 89.4519 67.767 85.1725C70.1012 82.8382 77.7524 83.3569 83.8474 86.0802C89.5533 88.6739 99.9278 97.8812 99.9278 100.345C99.9278 101.253 97.4639 103.068 94.4812 104.365Z" fill="#FFE7DF"/>
</svg>
