<svg width="991" height="537" viewBox="0 0 991 537" fill="none" xmlns="http://www.w3.org/2000/svg">
<g clip-path="url(#clip0_4211_61862)">
<path d="M0 8C0 3.58173 3.58172 0 8 0H1081C1085.42 0 1089 3.58172 1089 8V529C1089 533.418 1085.42 537 1081 537H8.00003C3.58175 537 0 533.418 0 529V8Z" fill="#F1F5F9"/>
<path d="M966.519 13.7508C977.268 10.7366 982.898 8.19834 992.752 2.16997L1001.58 -3.38245L1007.08 0.107644C1021.93 9.30882 1038.31 6.45329 1057.5 -8.6176C1074.14 -21.7848 1086.04 -40.0285 1097.3 -68.9012C1101.01 -78.7369 1102.16 -83.0202 1101.14 -84.2893C1099.73 -86.0344 1096.02 -79.6887 1085.52 -56.5272C1067.1 -15.9151 1028.71 9.46746 1010.67 -6.87255C1008.36 -8.93488 1008.49 -9.41081 1013.74 -16.7083C1021.16 -27.1786 1024.23 -35.1106 1025 -46.0569C1025.64 -54.7821 1025.51 -55.5753 1021.67 -60.3345C1017.96 -64.7765 1017.06 -65.2524 1011.69 -64.4592C1004.14 -63.5074 996.335 -56.6858 992.368 -47.4846C989.808 -41.6149 989.425 -38.7594 989.936 -31.1446C990.32 -26.0681 991.728 -19.5638 993.263 -16.391C994.799 -13.3768 995.695 -10.0454 995.183 -9.25216C993.903 -6.55528 984.818 -1.6374 973.301 2.80454C963.192 6.61193 960.121 7.08785 942.846 7.08785C925.699 6.9292 922.5 6.45328 912.135 2.64589C905.865 0.266281 896.14 -4.65158 890.382 -8.30033C871.443 -20.5157 851.737 -48.9124 843.547 -75.8814C842.012 -80.9579 840.092 -94.9183 838.685 -110.465C837.277 -124.743 835.87 -136.958 835.486 -137.434C833.438 -139.972 832.799 -134.261 833.054 -114.431C833.182 -98.4084 833.95 -89.5245 835.742 -80.6406C843.164 -45.7396 863.637 -14.8046 889.998 1.53541C897.292 5.97736 906.633 10.7366 910.856 12.1644C921.093 15.6545 956.666 16.6063 966.519 13.7508ZM998.51 -22.4194C995.439 -30.8273 995.311 -36.697 997.998 -43.8359C1001.84 -53.6716 1013.23 -60.3345 1017.45 -55.0994C1019.75 -52.2439 1019.24 -42.884 1016.55 -35.4279C1013.99 -28.4477 1004.91 -15.7564 1002.48 -15.7564C1001.58 -15.7564 999.789 -18.7706 998.51 -22.4194Z" fill="#FFE7DF"/>
<path d="M176.364 139.14C173.968 142.842 172.806 148.68 173.317 154.123C173.696 157.784 174.74 159.269 175.34 157.08C175.54 156.35 175.787 154.383 175.846 152.643C175.97 148.997 177.351 143.681 178.691 141.795C180.999 138.478 183.477 138.403 187.457 141.502C188.657 142.45 190.439 143.8 191.412 144.562C192.384 145.323 194.116 146.156 195.334 146.434C197.321 146.887 197.607 146.818 199.279 145.547C201.861 143.54 203.204 141.048 205.566 133.798C207.884 126.741 208.864 124.807 210.24 124.985C211.447 125.16 213.883 127.637 215.738 130.589C219.424 136.453 222.819 138.273 226.047 136.244C228.265 134.795 229.644 132.446 230.82 128.028C232.241 122.687 233.559 119.717 234.818 118.926C236.865 117.639 240.404 119.863 244.369 124.948C245.451 126.408 246.795 127.76 247.333 127.916C248.161 128.274 248.28 128.2 248.509 127.342C248.874 125.739 245.256 119.284 242.871 117.323C239.123 114.243 234.312 113.753 231.771 116.174C230.075 117.844 229.325 119.359 228.085 123.762C226.175 130.508 224.414 133.647 222.924 132.936C222.618 132.799 220.947 130.664 219.142 128.23C214.267 121.521 210.911 119.677 207.448 121.854C205.283 123.214 204.248 125.237 201.872 132.551C199.804 138.957 198.755 141.044 196.984 142.158C195.842 142.875 194.811 142.37 190.95 139.197C185.083 134.319 179.525 134.298 176.364 139.14Z" fill="#FFE7DF"/>
<path d="M425.807 129.713C422.427 132.544 419.594 137.779 418.478 143.131C417.761 146.74 418.32 148.467 419.539 146.553C419.946 145.914 420.761 144.108 421.331 142.463C422.525 139.015 425.412 134.343 427.249 132.936C430.432 130.447 432.822 131.106 435.711 135.241C436.578 136.501 437.883 138.317 438.587 139.331C439.292 140.345 440.701 141.652 441.783 142.277C443.548 143.296 443.842 143.313 445.814 142.592C448.873 141.436 450.892 139.451 455.287 133.22C459.582 127.16 461.09 125.601 462.351 126.178C463.454 126.7 465.051 129.786 465.953 133.153C467.746 139.844 470.453 142.584 474.135 141.597C476.683 140.866 478.693 139.028 481.12 135.154C484.052 130.47 486.187 128.021 487.624 127.636C489.959 127.01 492.684 130.178 494.973 136.206C495.577 137.921 496.463 139.609 496.93 139.917C497.617 140.503 497.751 140.467 498.224 139.715C499.045 138.291 497.492 131.055 495.791 128.479C493.118 124.431 488.666 122.544 485.523 124.108C483.41 125.203 482.247 126.429 479.763 130.271C475.949 136.154 473.341 138.634 472.127 137.515C471.875 137.294 470.908 134.762 469.901 131.903C467.221 124.055 464.558 121.303 460.607 122.362C458.137 123.023 456.552 124.651 452.125 130.939C448.259 136.451 446.641 138.135 444.621 138.677C443.318 139.026 442.482 138.239 439.728 134.068C435.561 127.677 430.256 126.018 425.807 129.713Z" fill="#FFE7DF"/>
<path d="M865.787 115.023C861.444 115.785 856.374 118.902 852.731 122.979C850.305 125.746 849.925 127.521 851.939 126.473C852.61 126.123 854.22 124.966 855.536 123.827C858.293 121.438 863.13 118.835 865.424 118.536C869.425 117.971 871.166 119.737 871.6 124.763C871.721 126.287 871.943 128.512 872.046 129.743C872.15 130.974 872.716 132.81 873.341 133.892C874.36 135.657 874.605 135.819 876.674 136.181C879.901 136.709 882.642 135.999 889.563 132.8C896.314 129.7 898.399 129.104 899.203 130.234C899.896 131.238 899.736 134.708 898.834 138.076C897.041 144.766 898.016 148.493 901.698 149.479C904.27 150.12 906.93 149.533 910.969 147.391C915.85 144.801 918.923 143.747 920.36 144.132C922.695 144.758 923.472 148.865 922.44 155.23C922.106 157.017 922.029 158.921 922.28 159.422C922.581 160.273 922.716 160.309 923.501 159.893C924.924 159.072 927.196 152.028 927.011 148.947C926.721 144.104 923.809 140.244 920.305 140.027C917.928 139.919 916.307 140.399 912.235 142.485C905.991 145.672 902.492 146.516 902 144.94C901.893 144.622 902.321 141.946 902.879 138.967C904.481 130.83 903.552 127.116 899.6 126.057C897.13 125.395 894.944 126.012 887.966 129.244C881.862 132.084 879.619 132.735 877.598 132.193C876.296 131.844 875.965 130.745 875.665 125.756C875.252 118.137 871.487 114.048 865.787 115.023Z" fill="#FFE7DF"/>
<path d="M-64.8783 95.0058C-53.7156 94.8763 -47.6202 93.8818 -36.5426 90.609L-26.5769 87.531L-22.1653 92.3263C-10.2089 105.056 6.35122 106.537 28.7922 96.9473C48.2684 88.5343 64.4852 73.9923 82.835 49.0179C88.9651 40.4778 91.1862 36.6385 90.5258 35.1476C89.6179 33.0977 84.391 38.2667 68.261 57.9233C39.9511 92.3824 -3.69907 106.964 -16.8979 86.5113C-18.5889 83.9231 -18.3422 83.4965 -11.3857 77.8056C-1.5069 69.6129 3.51252 62.746 7.08723 52.3715C9.96349 44.1091 10.0452 43.3098 7.5689 37.7192C5.1341 32.4682 4.39206 31.7766 -1.00453 31.1518C-8.54341 30.1172 -17.8487 34.686 -24.0618 42.547C-28.053 47.5543 -29.1629 50.2132 -30.6394 57.701C-31.5824 62.7039 -31.9063 69.3508 -31.2442 72.813C-30.5411 76.1219 -30.5381 79.5716 -31.2378 80.2054C-33.1719 82.4792 -43.2205 84.878 -55.4943 86.1879C-66.2443 87.2491 -69.334 86.914 -86.0203 82.4429C-102.542 77.8517 -105.509 76.564 -114.535 70.2037C-119.976 66.2823 -128.097 59.015 -132.714 54.0002C-147.846 37.2995 -159.531 4.76997 -160.462 -23.3997C-160.631 -28.7006 -158.872 -42.6821 -156.208 -58.0635C-153.872 -72.219 -152.07 -84.3824 -152.317 -84.9415C-153.638 -87.9232 -155.734 -82.5723 -160.62 -63.3516C-164.643 -47.8417 -166.201 -39.0618 -166.769 -30.017C-168.634 5.6157 -156.864 40.7957 -135.631 63.4014C-129.735 69.5798 -121.944 76.5946 -118.235 79.0666C-109.25 85.0873 -75.1348 95.2139 -64.8783 95.0058ZM-24.6163 68.3479C-25.4066 59.4316 -24.011 53.7287 -19.5677 47.5287C-13.3139 39.0216 -0.588844 35.5334 2.13508 41.683C3.62085 45.0374 0.703939 53.9458 -3.82149 60.4524C-8.10015 66.5324 -20.1607 76.4397 -22.5091 75.8105C-23.3743 75.5787 -24.3246 72.2035 -24.6163 68.3479Z" fill="#FFE7DF"/>
<path d="M279.816 -13.3176C281.328 -17.4594 281.163 -23.4091 279.454 -28.6028C278.271 -32.0872 276.923 -33.3034 276.824 -31.0353C276.792 -30.2793 276.989 -28.307 277.318 -26.5977C278.008 -23.0147 277.843 -17.5251 276.956 -15.3885C275.444 -11.6411 273.044 -11.0166 268.475 -13.1532C267.094 -13.8107 265.056 -14.7311 263.939 -15.257C262.821 -15.7829 260.947 -16.2103 259.698 -16.2103C257.66 -16.2103 257.397 -16.0788 256.05 -14.4681C253.979 -11.937 253.223 -9.20864 252.532 -1.61533C251.842 5.78076 251.316 7.88453 249.936 8.01602C248.719 8.11463 245.794 6.24096 243.328 3.7756C238.431 -1.12226 234.716 -2.14127 232.021 0.554189C230.18 2.46074 229.358 5.05759 229.194 9.62672C228.996 15.1491 228.372 18.3377 227.32 19.3896C225.611 21.0989 221.666 19.7183 216.67 15.6422C215.289 14.4588 213.678 13.4398 213.119 13.4069C212.232 13.2426 212.133 13.3412 212.1 14.2287C212.1 15.8723 217.064 21.3618 219.825 22.7424C224.164 24.912 228.964 24.3203 230.903 21.3947C232.185 19.3896 232.579 17.746 232.81 13.1768C233.171 6.17522 234.19 2.72371 235.801 3.08529C236.13 3.15104 238.233 4.86036 240.534 6.83265C246.78 12.2893 250.461 13.3412 253.354 10.4485C255.162 8.64058 255.721 6.43819 256.411 -1.22087C257.003 -7.92665 257.562 -10.1948 259.041 -11.674C259.994 -12.6273 261.112 -12.3643 265.582 -10.129C272.387 -6.67754 277.811 -7.89378 279.816 -13.3176Z" fill="#FFE7DF"/>
<path d="M596.464 -14.1742C592.466 -12.3147 588.376 -7.99136 585.912 -3.11019C584.285 0.190406 584.378 2.00341 586.051 0.46933C586.609 -0.0420303 587.864 -1.57611 588.84 -3.01722C590.886 -6.03889 594.884 -9.80437 597.022 -10.6876C600.741 -12.2682 602.88 -11.013 604.6 -6.27133C605.111 -4.83022 605.901 -2.73829 606.32 -1.57611C606.738 -0.413929 607.761 1.21313 608.644 2.09639C610.085 3.53749 610.364 3.63047 612.456 3.44452C615.71 3.11911 618.174 1.72449 624.031 -3.15668C629.749 -7.89839 631.609 -9.01408 632.678 -8.13082C633.608 -7.34054 634.351 -3.94696 634.351 -0.460416C634.351 6.46619 636.257 9.81328 640.069 9.81328C642.719 9.76679 645.137 8.51164 648.484 5.39699C652.528 1.63151 655.224 -0.181492 656.712 -0.181492C659.129 -0.181492 660.942 3.58398 661.593 9.99923C661.733 11.8122 662.151 13.6717 662.523 14.0901C663.034 14.8339 663.174 14.8339 663.824 14.2296C664.987 13.0674 665.359 5.67591 664.382 2.74721C662.848 -1.85504 659.036 -4.83022 655.596 -4.13291C653.272 -3.62155 651.831 -2.73829 648.437 0.329868C643.231 5.02509 640.069 6.74512 639.186 5.3505C639 5.07157 638.721 2.37531 638.489 -0.646365C637.931 -8.92111 636.072 -12.2682 631.981 -12.2682C629.424 -12.2682 627.471 -11.106 621.567 -6.17836C616.407 -1.85504 614.408 -0.646365 612.317 -0.646365C610.968 -0.646365 610.364 -1.6226 608.783 -6.36431C606.413 -13.6163 601.717 -16.5915 596.464 -14.1742Z" fill="#FFE7DF"/>
</g>
<defs>
<clipPath id="clip0_4211_61862">
<path d="M0 8C0 3.58173 3.58172 0 8 0H1081C1085.42 0 1089 3.58172 1089 8V529C1089 533.418 1085.42 537 1081 537H8.00003C3.58175 537 0 533.418 0 529V8Z" fill="white"/>
</clipPath>
</defs>
</svg>
