<svg width="40" height="40" viewBox="0 0 40 40" fill="none" xmlns="http://www.w3.org/2000/svg">
<rect width="40" height="40" rx="20" fill="#FFE7DF"/>
<path d="M18.2685 25.9738C17.2512 24.3349 15.1848 21.5433 13.4791 22.6525C12.7743 23.1107 12.6617 24.8301 14.1042 26.8406C14.7015 27.6741 16.0023 28.9825 16.0023 28.9825M20.547 23.7743C19.4461 22.0255 17.3127 19.1854 15.5817 20.1708C14.9844 20.5117 14.8389 21.1805 14.9617 21.9975M22.6911 21.7066C21.5864 19.9566 19.4619 17.1382 17.7372 18.121C17.1399 18.4618 16.9944 19.1307 17.1172 19.9476M16.0023 28.9838C18.8962 31.8545 22.8189 31.2444 25.0092 28.9838C26.7263 27.2108 27.6019 23.1989 24.5625 18.4211C20.2185 11.5946 16.8969 9.034 15.4835 9.93135C14.8597 10.327 14.0992 11.7758 17.3993 15.5988M22.4918 11.2995C23.1182 10.3371 24.3165 8.89087 25.7539 9.10659C26.6258 9.23679 27.3015 10.0576 26.913 11.0787C26.6334 11.8152 23.2143 16.0135 24.7328 18.6979" stroke="#151515" stroke-width="2.34575" stroke-linecap="round" stroke-linejoin="round"/>
</svg>
