<svg xmlns="http://www.w3.org/2000/svg" width="30" height="30" viewBox="0 0 30 30" fill="none">
<path d="M15 1C15.5303 1 16.015 1.31372 16.2522 1.81037L19.8627 9.37156L27.8015 10.5807C28.3288 10.661 28.7668 11.0478 28.9314 11.5784C29.0961 12.109 28.9588 12.6915 28.5773 13.081L22.7993 18.98L24.0991 27.2973C24.185 27.847 23.966 28.4001 23.5339 28.7249C23.1017 29.0497 22.5312 29.0901 22.0613 28.829L15 24.9056L7.93872 28.829C7.46885 29.0901 6.89827 29.0497 6.46614 28.7249C6.03401 28.4001 5.815 27.847 5.9009 27.2973L7.20066 18.98L1.4227 13.081C1.04119 12.6915 0.903908 12.109 1.06856 11.5784C1.23321 11.0478 1.67124 10.661 2.19852 10.5807L10.1373 9.37156L13.7478 1.81037C13.985 1.31372 14.4697 1 15 1Z" stroke="#3CA79A" stroke-width="2" stroke-miterlimit="10" stroke-linecap="round" stroke-linejoin="round"/>
</svg>