<svg xmlns="http://www.w3.org/2000/svg" width="20" height="20" viewBox="0 0 20 20" fill="none">
<path d="M10 0C10.3788 0 10.725 0.224086 10.8944 0.578834L13.4733 5.97968L19.1439 6.84336C19.5205 6.90073 19.8334 7.17699 19.951 7.55601C20.0686 7.93504 19.9706 8.35111 19.6981 8.62932L15.571 12.8429L16.4994 18.7838C16.5607 19.1764 16.4043 19.5715 16.0956 19.8035C15.787 20.0355 15.3794 20.0643 15.0438 19.8778L10 17.0754L4.95623 19.8778C4.6206 20.0643 4.21305 20.0355 3.90439 19.8035C3.59572 19.5715 3.43929 19.1764 3.50064 18.7838L4.42904 12.8429L0.301928 8.62932C0.0294233 8.35111 -0.0686368 7.93504 0.0489694 7.55601C0.166576 7.17699 0.479457 6.90073 0.856087 6.84336L6.52668 5.97968L9.10558 0.578834C9.27497 0.224086 9.62123 0 10 0Z" fill="#3CA79A"/>
</svg>