<svg width="196" height="185" viewBox="0 0 196 185" fill="none" xmlns="http://www.w3.org/2000/svg">
<path d="M153.437 54.6932C143.992 48.7328 138.491 46.1653 127.945 42.589L118.409 39.4713L116.483 33.5109C111.165 17.5554 97.7766 7.46863 75.3106 2.42523C55.7788 -1.88458 36.7056 0.132776 11.9471 8.75241C3.60259 11.7784 0.301459 13.429 0.30146 14.8962C0.301458 16.9135 6.62863 15.9049 27.5358 10.0362C64.2151 -0.234016 106.396 12.6037 109.881 34.9781C110.339 37.8207 109.972 38.0041 101.995 38.4626C90.6241 39.1962 83.8385 41.5803 76.9611 47.3573C71.4592 51.9422 71.0924 52.4924 71.0924 57.9943C71.1841 63.2211 71.5509 64.1381 75.8607 67.5309C81.8211 72.3909 91.3577 74.0415 99.5189 71.5656C104.746 70.0068 106.671 68.6313 110.706 63.863C113.365 60.6536 116.116 55.8853 116.85 52.9509C117.492 50.1083 118.775 47.5407 119.601 47.449C122.077 46.8071 131.43 50.4751 142.25 56.1604C151.695 61.2038 154.171 63.1294 166.55 75.5087C178.746 87.8879 180.763 90.4555 185.99 100.084C189.108 105.952 193.234 115.764 195.252 122C201.762 142.632 199.47 173.167 189.75 194.625C187.916 198.659 181.222 208.104 173.244 218.099C166 227.361 159.948 235.43 159.948 235.98C159.948 238.915 163.708 236.072 174.986 224.426C184.156 215.073 188.741 209.388 192.592 202.969C207.448 177.477 210.657 144.924 201.212 116.589C198.553 108.795 194.61 99.3502 192.409 95.4989C187.091 86.1457 162.149 60.1034 153.437 54.6932ZM109.606 52.6758C106.946 59.7366 103.645 63.2211 97.5932 65.4219C89.157 68.3562 77.1445 64.0464 77.1445 57.9943C77.1445 54.6932 82.9215 49.6498 89.157 47.2656C95.0257 45.0649 108.872 44.2396 110.614 45.9819C111.256 46.6237 110.798 49.6498 109.606 52.6758Z" fill="#FFE7DF"/>
</svg>
