<svg xmlns="http://www.w3.org/2000/svg" width="164" height="145" viewBox="0 0 164 145" fill="none">
  <g clip-path="url(#clip0_4211_49596)">
    <path d="M80.7737 117.428C67.8768 117.914 54.9819 118.453 42.0857 118.959C40.9632 119.003 39.8289 119.022 38.7134 118.915C35.7591 118.629 34.4455 116.903 35.0449 113.997C35.3387 112.573 35.8135 111.172 36.3412 109.813C38.9885 102.997 42.774 96.8379 47.2857 91.1297C48.4376 89.6724 49.3569 88.4418 47.6087 86.7937C47.1749 86.3847 47.0046 85.6065 46.8799 84.9652C44.9986 75.2957 42.0661 65.8741 40.2433 56.1879C38.0292 44.4232 35.2122 32.7681 33.939 20.8361C33.8068 19.5975 33.1673 19.2013 32.0995 18.8953C26.6276 17.3273 21.0438 16.1646 15.6534 14.3035C11.0711 12.7212 6.55411 10.9689 2.62797 8.04474C-0.556778 5.67295 -0.105067 2.57147 3.56933 1.04492C5.87901 0.0853649 8.32277 -0.159849 10.7845 0.0929964C16.8176 0.712739 22.566 2.41666 28.2165 4.61259C33.2945 6.58596 36.1564 10.1864 36.9594 15.505C37.6436 20.0371 38.2164 24.5862 38.8841 29.1209C38.9594 29.6313 38.6015 30.6604 39.8221 30.3875C44.7361 29.2889 49.6854 29.7559 54.6247 30.0885C63.9337 30.7153 73.2281 31.7101 82.5622 31.7603C101.162 31.8602 119.763 31.7375 138.363 31.8063C145.323 31.8321 152.223 32.7759 159.09 33.8423C162.334 34.3462 163.542 35.8918 163.499 39.1874C163.468 41.5119 163.378 43.8619 163.01 46.1511C160.828 59.7449 158.115 73.2485 156.226 86.8941C155.587 91.5111 154.278 92.3495 149.576 92.3089C141.899 92.2426 134.243 91.4224 126.557 91.7164C110.682 92.3238 94.8016 92.5745 78.9138 92.6257C70.2723 92.6536 61.7427 91.8183 53.2435 90.4279C52.4999 90.3062 52.0188 90.3282 51.5668 91.0101C48.7051 95.3274 45.4576 99.3883 43.0469 104.004C41.446 107.07 39.9319 110.171 38.8497 113.475C38.3723 114.932 38.7995 115.435 40.2679 115.35C41.9851 115.25 43.7076 115.246 45.4274 115.188C62.3595 114.617 79.2751 113.508 96.2312 113.732C114.896 113.98 133.557 114.117 152.068 111.025C154.813 110.566 156.718 112.155 157.086 114.886C157.461 117.676 155.29 120.857 152.767 121.215C150.748 121.501 148.615 119.665 148.337 117.013C148.178 115.502 147.569 115.572 146.435 115.681C140.177 116.279 133.909 116.703 127.628 117.036C114.591 117.728 101.555 117.395 88.5178 117.414C85.9363 117.414 83.3517 117.33 80.7738 117.428L80.7737 117.428ZM88.5973 35.5384C76.2661 35.7218 64.0073 34.5549 51.7384 33.6173C47.9638 33.3288 44.2025 33.9067 40.4447 33.4836C39.7314 33.4032 39.6762 33.8398 39.7681 34.3494C39.9806 35.5275 40.2374 36.6975 40.4482 37.8759C40.5747 38.5828 41.0117 38.6256 41.6107 38.5919C50.092 38.1148 58.5265 39.1903 66.9757 39.5556C80.334 40.1331 93.6939 40.4513 107.056 40.7863C124.001 41.2111 140.939 40.3564 157.882 40.5147C158.701 40.5223 159.656 40.7702 159.713 39.371C159.766 38.075 159.135 37.5906 157.981 37.4383C151.289 36.5557 144.594 35.6 137.838 35.5245C127.846 35.4128 117.851 35.4957 107.857 35.4957V35.5218C101.437 35.5218 95.0157 35.4431 88.5972 35.5386L88.5973 35.5384ZM98.6679 88.6622C99.3092 88.658 99.9617 88.7822 99.7853 87.6351C99.199 83.821 99.2426 79.9595 99.1985 76.1131C99.1816 74.6358 98.8335 74.0019 97.1996 74.0216C92.3834 74.0798 87.5648 73.9722 82.7476 73.9046C81.7718 73.8909 81.0872 73.9327 81.2894 75.2821C81.9182 79.4787 82.4773 83.6868 82.9982 87.8985C83.1244 88.9191 83.7719 88.8019 84.4139 88.8048C86.7893 88.8156 89.1649 88.8091 91.5404 88.8091C91.5404 88.7622 91.5404 88.7152 91.5404 88.6684C93.9162 88.6684 96.2922 88.6778 98.6679 88.6622ZM102.986 74.0623C101.837 74.0333 101.293 74.3367 101.352 75.6237C101.532 79.5457 101.654 83.4716 101.724 87.3973C101.742 88.3983 102.15 88.6366 103.035 88.638C107.934 88.6456 112.825 88.434 117.716 88.1653C118.628 88.1151 118.765 87.652 118.754 86.8699C118.701 83.0768 118.665 79.2831 118.678 75.4897C118.682 74.4548 118.293 74.0704 117.28 74.0862C114.832 74.1242 112.383 74.0985 109.934 74.0985C109.934 74.0922 109.934 74.086 109.934 74.0798C107.618 74.0798 105.301 74.1208 102.986 74.0624L102.986 74.0623ZM155.734 57.0656C156.764 57.1073 157.306 56.8547 157.525 55.7665C158.31 51.8564 159.142 47.9598 159.522 43.977C159.648 42.6631 159.365 42.238 157.959 42.3281C153.209 42.6327 148.451 42.8396 143.693 42.9795C142.351 43.0189 141.86 43.4166 141.834 44.8138C141.773 48.1365 141.596 51.4601 141.349 54.7746C141.255 56.0278 141.662 56.4542 142.856 56.4326C145.1 56.3919 147.346 56.4208 149.592 56.4208C149.592 56.6276 149.592 56.8343 149.592 57.041C151.64 57.041 153.69 56.9826 155.734 57.0655L155.734 57.0656ZM117.248 55.7575C118.352 55.7831 118.942 55.58 118.949 54.2663C118.965 51.0833 118.9 47.8896 119.374 44.7265C119.506 43.8453 119.156 43.5332 118.306 43.5268C112.366 43.4815 106.426 43.4219 100.487 43.345C99.5914 43.3335 99.351 43.7477 99.4102 44.5702C99.6436 47.8133 99.8765 51.0571 100.048 54.3039C100.106 55.4034 100.702 55.5958 101.607 55.5894C104.312 55.5704 107.018 55.5826 109.724 55.5826C109.724 55.6348 109.724 55.687 109.724 55.7392C112.232 55.7392 114.741 55.6995 117.248 55.7575ZM97.2286 71.1819C98.4857 71.2159 99.0116 70.8629 98.8957 69.4874C98.6285 66.3133 98.4532 63.1296 98.3244 59.9463C98.275 58.7266 97.7594 58.3883 96.6104 58.3872C91.4608 58.3823 86.3108 58.3303 81.162 58.234C79.9682 58.2116 79.501 58.5173 79.6588 59.8126C80.0518 63.04 80.3758 66.2779 80.6286 69.5195C80.7232 70.7332 81.2334 71.0896 82.3746 71.0625C84.882 71.0032 87.3917 71.0441 89.9005 71.0441C89.9005 71.0836 89.9005 71.123 89.9005 71.1625C92.3434 71.1625 94.7875 71.1159 97.2286 71.1819ZM123.112 43.4845C121.884 43.451 121.295 43.7875 121.301 45.132C121.315 48.1893 121.254 51.2482 121.157 54.3044C121.122 55.4246 121.53 55.8122 122.638 55.8296C127.595 55.9076 132.552 56.0295 137.507 56.1923C138.587 56.2278 139.048 55.8911 139.135 54.7769C139.409 51.2661 139.735 47.7587 140.102 44.2564C140.224 43.0897 139.547 43.1344 138.774 43.1375C136.131 43.1479 133.488 43.1415 130.845 43.1415C130.845 43.2629 130.845 43.3844 130.845 43.5058C128.268 43.5058 125.688 43.5547 123.112 43.4845ZM80.2322 42.7686C79.2132 42.7518 78.6244 42.9025 78.7224 44.1731C78.9677 47.3546 79.1197 50.5443 79.2551 53.733C79.3024 54.8498 79.6187 55.3816 80.8821 55.3805C85.9734 55.3758 91.0657 55.4431 96.1556 55.5676C97.5334 55.6013 98.0252 55.2121 97.9164 53.7645C97.6923 50.7827 97.5813 47.7891 97.532 44.7986C97.512 43.585 97.0843 43.1641 95.8969 43.1902C93.2535 43.2484 90.6079 43.2084 87.9632 43.2084C87.9632 43.0664 87.963 42.9245 87.9629 42.7826C85.3859 42.7826 82.8086 42.811 80.2322 42.7686ZM135.853 88.0276C137.01 88.0867 137.522 87.8797 137.555 86.5882C137.646 83.0004 137.833 79.4142 138.045 75.831C138.115 74.6452 137.762 74.1681 136.515 74.1733C131.889 74.1926 127.261 74.1555 122.635 74.0676C121.355 74.0433 120.888 74.4712 120.911 75.7798C120.972 79.3021 120.978 82.8278 120.892 86.3493C120.857 87.8175 121.436 88.1338 122.776 88.0646C124.95 87.9524 127.135 88.0344 129.315 88.0344C129.315 88.0215 129.315 88.0085 129.315 87.9955C131.495 87.9955 133.679 87.9165 135.854 88.0276H135.853ZM102.154 58.444C100.918 58.4094 100.353 58.6848 100.489 60.1015C100.794 63.2742 100.98 66.4596 101.146 69.6435C101.202 70.7071 101.546 71.1818 102.673 71.1729C107.496 71.135 112.32 71.133 117.143 71.1814C118.362 71.1936 118.741 70.7221 118.735 69.5398C118.719 66.4839 118.756 63.4256 118.873 60.3723C118.923 59.0883 118.545 58.5848 117.215 58.6264C114.641 58.707 112.063 58.65 109.486 58.65C109.486 58.5881 109.486 58.5262 109.486 58.4643C107.042 58.4643 104.596 58.5126 102.154 58.4441L102.154 58.444ZM60.3913 41.9169C59.1835 41.8827 58.7572 42.0971 59.0874 43.4727C59.909 46.895 60.5766 50.356 61.2457 53.8132C61.4441 54.838 61.8649 55.2427 62.9546 55.238C67.1859 55.2194 71.4186 55.2563 75.6483 55.3685C76.9982 55.4044 77.3461 54.9227 77.2657 53.6312C77.0716 50.5132 76.9472 47.3881 76.9086 44.2645C76.8931 43.0119 76.3855 42.7069 75.2455 42.6735C72.6693 42.5982 70.0969 42.3932 67.5229 42.241C67.5225 42.1396 67.5222 42.0381 67.5218 41.9367C65.1448 41.9367 62.7664 41.9843 60.3913 41.9169ZM57.4983 55.336C58.5807 55.3603 59.0757 55.1224 58.809 53.8643C58.0528 50.297 57.3896 46.7094 56.7087 43.1262C56.5547 42.3157 56.2221 41.8526 55.3057 41.7897C50.833 41.4824 46.3627 41.1363 41.895 40.7613C41.0269 40.6884 41.0547 41.109 41.1756 41.7052C42.0445 45.9947 42.9189 50.283 43.7732 54.5755C43.9754 55.5918 44.6659 55.4889 45.4299 55.472C47.4066 55.4285 49.3848 55.4574 51.3625 55.4574C51.3625 55.4126 51.3625 55.3677 51.3625 55.3228C53.4079 55.3228 55.4539 55.2901 57.4983 55.336ZM122.523 58.6894C121.498 58.669 121.123 59.0408 121.127 60.0772C121.142 63.335 121.102 66.5934 121.042 69.8508C121.025 70.7881 121.391 71.1566 122.314 71.1631C127.207 71.1972 132.099 71.2531 136.991 71.324C137.822 71.3361 138.176 71.007 138.216 70.1663C138.371 66.8459 138.545 63.5262 138.756 60.209C138.825 59.119 138.203 59.0405 137.394 59.045C134.882 59.0589 132.371 59.0501 129.86 59.0501C129.86 58.935 129.86 58.82 129.86 58.705C127.414 58.705 124.967 58.7379 122.523 58.6893V58.6894ZM80.185 88.8129C81.0688 88.8231 81.3109 88.5613 81.0712 87.6271C80.0622 83.6953 79.5396 79.6758 79.1978 75.6373C79.0866 74.3239 78.5952 73.8483 77.2407 73.843C73.6759 73.8292 70.1099 73.691 66.5485 73.5164C65.1842 73.4496 64.6383 73.735 64.9069 75.276C65.6019 79.2636 66.1801 83.2732 66.7276 87.2846C66.8546 88.2151 67.2383 88.5241 68.106 88.5574C70.1511 88.6358 72.1941 88.7708 74.2378 88.883C74.2388 88.8572 74.2399 88.8315 74.241 88.8057C76.2224 88.8057 78.2039 88.79 80.185 88.8129ZM142.713 59.1597C141.59 59.0769 141.008 59.3217 140.979 60.6234C140.908 63.7497 140.731 66.8744 140.545 69.9965C140.487 70.974 140.733 71.4595 141.802 71.5275C145.698 71.7753 149.591 72.0748 153.482 72.3982C154.449 72.4786 154.741 72.0346 154.879 71.1716C155.425 67.7561 155.988 64.3423 156.619 60.942C156.826 59.8288 156.458 59.5142 155.413 59.5347C153.23 59.5773 151.045 59.5476 148.861 59.5476C148.861 59.5197 148.861 59.492 148.86 59.4641C146.811 59.3679 144.758 59.3106 142.713 59.1597ZM60.2114 70.6536C61.365 70.6882 61.7338 70.2844 61.5163 69.1249C60.9041 65.8618 60.3484 62.5877 59.8 59.3129C59.6509 58.4224 59.1919 58.1272 58.3138 58.1195C53.9616 58.0812 49.5868 58.3019 45.3089 57.2103C44.5001 57.0039 44.3318 57.4097 44.4761 58.038C45.3979 62.0492 46.3451 66.0545 47.2888 70.0606C47.4813 70.8779 48.1175 70.7379 48.7171 70.7327C50.6328 70.7161 52.5486 70.7266 54.4645 70.7266C54.4645 70.6971 54.4645 70.6676 54.4645 70.6381C56.3803 70.6381 58.2973 70.5963 60.2114 70.6536ZM77.0504 71.0082C78.3271 71.0696 78.6278 70.5855 78.4954 69.3782C78.1409 66.1447 77.8653 62.9018 77.6056 59.6589C77.5301 58.7164 77.2541 58.2307 76.1924 58.2236C72.0317 58.1956 67.8709 58.1153 63.7115 58.0015C62.4528 57.967 62.1046 58.4263 62.3424 59.6563C62.972 62.9147 63.5306 66.1875 64.0867 69.4599C64.2365 70.3418 64.689 70.6961 65.5631 70.6841C67.543 70.6568 69.5236 70.6755 71.5039 70.6755C71.5039 70.7788 71.5039 70.8822 71.5039 70.9856C73.3531 70.9856 75.2055 70.9195 77.0505 71.0083L77.0504 71.0082ZM49.3914 73.2893C48.4191 73.2341 48.065 73.3161 48.3336 74.4191C49.1031 77.5779 49.7908 80.7571 50.4874 83.9334C50.8201 85.4505 51.956 86.0784 53.2514 86.4926C56.556 87.5491 60.0325 87.4851 63.4192 88.0128C64.1856 88.1322 64.3384 87.6997 64.2401 87.0668C63.588 82.8689 62.9187 78.6737 62.288 74.4726C62.1529 73.5726 61.5934 73.478 60.8752 73.4825C58.894 73.4947 56.9128 73.4868 54.9316 73.4868C54.9316 73.431 54.9316 73.3753 54.9315 73.3195C53.0842 73.3195 51.2329 73.3938 49.3914 73.2893V73.2893ZM141.975 74.2842C140.847 74.236 140.308 74.4981 140.263 75.7879C140.135 79.5107 139.917 83.2323 139.629 86.9462C139.547 88.0017 139.951 88.2101 140.824 88.2342C144.065 88.3236 147.306 88.416 150.544 88.5592C151.814 88.6154 152.315 87.9943 152.477 86.8234C152.972 83.2657 153.48 79.7094 154.04 76.1617C154.225 74.9909 153.828 74.6148 152.688 74.6545C150.837 74.7188 148.983 74.6718 147.131 74.6718C147.131 74.549 147.131 74.4263 147.131 74.3034C145.412 74.3034 143.691 74.3576 141.975 74.2842ZM5.83781 4.26381C5.5432 4.36822 5.12893 4.52596 5.0468 4.75835C4.88444 5.21766 5.37109 5.40601 5.68238 5.61232C7.45128 6.78471 9.34936 7.71416 11.2774 8.58566C17.8726 11.5667 24.9564 13.0201 31.7968 15.2345C32.9306 15.6015 33.1354 15.1456 32.8205 14.1991C32.1561 12.2016 31.1844 10.3465 29.2529 9.35962C23.0025 6.16556 16.3337 4.42868 9.37521 3.78017C8.16942 3.84978 6.97664 3.86018 5.83781 4.26389V4.26381Z" fill="#102B4B"/>
    <path d="M146.557 131.714C146.578 138.439 141.119 143.929 134.434 143.905C127.7 143.881 122.059 138.43 122.317 131.744C122.594 124.571 127.39 119.66 134.402 119.551C141.15 119.571 146.536 124.961 146.557 131.714ZM134.372 140.541C139.254 140.548 143.242 136.561 143.239 131.679C143.236 126.885 139.295 122.912 134.516 122.887C129.679 122.862 125.59 126.77 125.587 131.421C125.583 136.566 129.407 140.534 134.372 140.541Z" fill="#102B4B"/>
    <path d="M38.4137 133.113C38.4326 126.595 43.7492 121.357 50.2657 121.437C56.7386 121.517 61.987 126.902 61.8944 133.367C61.8008 139.909 56.5665 145.033 50.0113 145C43.5166 144.967 38.3947 139.718 38.4137 133.113ZM41.7405 133.341C41.7749 137.918 45.5423 141.648 50.1367 141.653C54.7161 141.658 58.4546 137.929 58.4959 133.316C58.5382 128.61 54.7913 124.813 50.1044 124.814C45.4937 124.815 41.7056 128.677 41.7405 133.341Z" fill="#102B4B"/>
  </g>
  <defs>
    <clipPath id="clip0_4211_49596">
      <rect width="163" height="145" fill="white" transform="translate(0.5)"/>
    </clipPath>
  </defs>
</svg>