<svg width="191" height="17" viewBox="0 0 191 17" fill="none" xmlns="http://www.w3.org/2000/svg">
<path d="M1.19 13.5V3.56H4.634C5.698 3.56 6.58467 3.784 7.294 4.232C8.01267 4.67067 8.54933 5.268 8.904 6.024C9.25867 6.77067 9.436 7.60133 9.436 8.516C9.436 9.524 9.24 10.4013 8.848 11.148C8.456 11.8947 7.90067 12.4733 7.182 12.884C6.46333 13.2947 5.614 13.5 4.634 13.5H1.19ZM8.162 8.516C8.162 7.76933 8.022 7.10667 7.742 6.528C7.47133 5.94933 7.07467 5.49667 6.552 5.17C6.02933 4.84333 5.39 4.68 4.634 4.68H2.45V12.38H4.634C5.39933 12.38 6.04333 12.212 6.566 11.876C7.08867 11.5307 7.48533 11.0687 7.756 10.49C8.02667 9.902 8.162 9.244 8.162 8.516ZM14.2495 13.64C13.6988 13.64 13.1948 13.542 12.7375 13.346C12.2895 13.1407 11.8975 12.8653 11.5615 12.52C11.2348 12.1653 10.9782 11.7593 10.7915 11.302C10.6142 10.8447 10.5255 10.3593 10.5255 9.846C10.5255 9.15533 10.6842 8.52533 11.0015 7.956C11.3188 7.38667 11.7575 6.92933 12.3175 6.584C12.8868 6.23867 13.5355 6.066 14.2635 6.066C15.0008 6.066 15.6402 6.24333 16.1815 6.598C16.7322 6.94333 17.1568 7.40067 17.4555 7.97C17.7635 8.53 17.9175 9.13667 17.9175 9.79C17.9175 9.88333 17.9128 9.97667 17.9035 10.07C17.9035 10.154 17.8988 10.2193 17.8895 10.266H11.8275C11.8648 10.742 11.9955 11.1667 12.2195 11.54C12.4528 11.904 12.7515 12.1933 13.1155 12.408C13.4795 12.6133 13.8715 12.716 14.2915 12.716C14.7395 12.716 15.1595 12.604 15.5515 12.38C15.9528 12.156 16.2282 11.862 16.3775 11.498L17.4415 11.792C17.2828 12.1467 17.0448 12.464 16.7275 12.744C16.4195 13.024 16.0508 13.2433 15.6215 13.402C15.2015 13.5607 14.7442 13.64 14.2495 13.64ZM11.7855 9.412H16.7695C16.7322 8.936 16.5968 8.516 16.3635 8.152C16.1302 7.788 15.8315 7.50333 15.4675 7.298C15.1035 7.09267 14.7022 6.99 14.2635 6.99C13.8342 6.99 13.4375 7.09267 13.0735 7.298C12.7095 7.50333 12.4108 7.788 12.1775 8.152C11.9535 8.516 11.8228 8.936 11.7855 9.412ZM21.793 13.64C21.1863 13.64 20.617 13.542 20.085 13.346C19.553 13.1407 19.0956 12.8373 18.713 12.436L19.189 11.568C19.609 11.96 20.029 12.24 20.449 12.408C20.869 12.576 21.2983 12.66 21.737 12.66C22.241 12.66 22.6516 12.5667 22.969 12.38C23.2863 12.184 23.445 11.8993 23.445 11.526C23.445 11.2553 23.361 11.0547 23.193 10.924C23.0343 10.7933 22.8056 10.686 22.507 10.602C22.2083 10.5087 21.8536 10.406 21.443 10.294C20.939 10.1447 20.5143 9.986 20.169 9.818C19.8236 9.65 19.5623 9.44 19.385 9.188C19.2076 8.936 19.119 8.61867 19.119 8.236C19.119 7.76933 19.2403 7.37733 19.483 7.06C19.7256 6.73333 20.057 6.486 20.477 6.318C20.9063 6.15 21.3916 6.066 21.933 6.066C22.4743 6.066 22.9643 6.15 23.403 6.318C23.8416 6.486 24.2196 6.73333 24.537 7.06L23.977 7.914C23.6876 7.61533 23.3703 7.396 23.025 7.256C22.6796 7.10667 22.2923 7.032 21.863 7.032C21.611 7.032 21.3636 7.06467 21.121 7.13C20.8783 7.186 20.6776 7.29333 20.519 7.452C20.3603 7.60133 20.281 7.816 20.281 8.096C20.281 8.32933 20.3416 8.516 20.463 8.656C20.5936 8.78667 20.7803 8.89867 21.023 8.992C21.275 9.08533 21.5783 9.188 21.933 9.3C22.4836 9.45867 22.9596 9.61733 23.361 9.776C23.7716 9.93467 24.089 10.14 24.313 10.392C24.537 10.644 24.649 10.994 24.649 11.442C24.649 12.1327 24.3876 12.674 23.865 13.066C23.3423 13.4487 22.6516 13.64 21.793 13.64ZM26.1229 13.5V6.192H27.3549V13.5H26.1229ZM26.1229 4.82V3.28H27.3549V4.82H26.1229ZM32.2615 13.584C31.7668 13.584 31.3095 13.486 30.8895 13.29C30.4788 13.0847 30.1241 12.8093 29.8255 12.464C29.5268 12.1093 29.2935 11.708 29.1255 11.26C28.9668 10.812 28.8875 10.3453 28.8875 9.86C28.8875 9.34667 28.9668 8.86133 29.1255 8.404C29.2935 7.94667 29.5268 7.54533 29.8255 7.2C30.1335 6.84533 30.4928 6.57 30.9035 6.374C31.3141 6.16867 31.7715 6.066 32.2755 6.066C32.8821 6.066 33.4095 6.21533 33.8575 6.514C34.3148 6.81267 34.6975 7.19067 35.0055 7.648V6.192H36.0975V13.416C36.0975 14.1067 35.9295 14.69 35.5935 15.166C35.2668 15.642 34.8188 16.0013 34.2495 16.244C33.6895 16.496 33.0641 16.622 32.3735 16.622C31.5521 16.622 30.8801 16.4773 30.3575 16.188C29.8348 15.8987 29.4008 15.5067 29.0555 15.012L29.7695 14.382C30.0588 14.8113 30.4321 15.1333 30.8895 15.348C31.3561 15.5627 31.8508 15.67 32.3735 15.67C32.8215 15.67 33.2321 15.586 33.6055 15.418C33.9881 15.2593 34.2915 15.012 34.5155 14.676C34.7488 14.34 34.8655 13.92 34.8655 13.416V12.128C34.5948 12.576 34.2215 12.9307 33.7455 13.192C33.2788 13.4533 32.7841 13.584 32.2615 13.584ZM32.6395 12.576C32.9008 12.576 33.1528 12.5293 33.3955 12.436C33.6381 12.3427 33.8621 12.2213 34.0675 12.072C34.2728 11.9133 34.4455 11.736 34.5855 11.54C34.7255 11.344 34.8188 11.1433 34.8655 10.938V8.838C34.7348 8.502 34.5481 8.208 34.3055 7.956C34.0628 7.69467 33.7875 7.494 33.4795 7.354C33.1715 7.20467 32.8541 7.13 32.5275 7.13C32.1541 7.13 31.8181 7.20933 31.5195 7.368C31.2301 7.52667 30.9828 7.74133 30.7775 8.012C30.5721 8.27333 30.4135 8.56733 30.3015 8.894C30.1895 9.22067 30.1335 9.552 30.1335 9.888C30.1335 10.252 30.1988 10.5973 30.3295 10.924C30.4601 11.2413 30.6375 11.526 30.8615 11.778C31.0855 12.03 31.3515 12.226 31.6595 12.366C31.9675 12.506 32.2941 12.576 32.6395 12.576ZM44.4278 13.5H43.1958V9.412C43.1958 8.63733 43.0745 8.07267 42.8318 7.718C42.5985 7.354 42.2391 7.172 41.7538 7.172C41.4178 7.172 41.0818 7.256 40.7458 7.424C40.4191 7.592 40.1251 7.82067 39.8638 8.11C39.6118 8.39 39.4298 8.71667 39.3178 9.09V13.5H38.0858V6.192H39.2058V7.76C39.4018 7.41467 39.6538 7.116 39.9618 6.864C40.2698 6.612 40.6198 6.416 41.0118 6.276C41.4038 6.136 41.8145 6.066 42.2438 6.066C42.6638 6.066 43.0138 6.14533 43.2938 6.304C43.5831 6.45333 43.8071 6.668 43.9658 6.948C44.1338 7.21867 44.2505 7.54067 44.3158 7.914C44.3905 8.28733 44.4278 8.69333 44.4278 9.132V13.5ZM49.5776 13.64C49.0269 13.64 48.5229 13.542 48.0656 13.346C47.6176 13.1407 47.2256 12.8653 46.8896 12.52C46.5629 12.1653 46.3063 11.7593 46.1196 11.302C45.9423 10.8447 45.8536 10.3593 45.8536 9.846C45.8536 9.15533 46.0123 8.52533 46.3296 7.956C46.6469 7.38667 47.0856 6.92933 47.6456 6.584C48.2149 6.23867 48.8636 6.066 49.5916 6.066C50.3289 6.066 50.9683 6.24333 51.5096 6.598C52.0603 6.94333 52.4849 7.40067 52.7836 7.97C53.0916 8.53 53.2456 9.13667 53.2456 9.79C53.2456 9.88333 53.2409 9.97667 53.2316 10.07C53.2316 10.154 53.2269 10.2193 53.2176 10.266H47.1556C47.1929 10.742 47.3236 11.1667 47.5476 11.54C47.7809 11.904 48.0796 12.1933 48.4436 12.408C48.8076 12.6133 49.1996 12.716 49.6196 12.716C50.0676 12.716 50.4876 12.604 50.8796 12.38C51.2809 12.156 51.5563 11.862 51.7056 11.498L52.7696 11.792C52.6109 12.1467 52.3729 12.464 52.0556 12.744C51.7476 13.024 51.3789 13.2433 50.9496 13.402C50.5296 13.5607 50.0723 13.64 49.5776 13.64ZM47.1136 9.412H52.0976C52.0603 8.936 51.9249 8.516 51.6916 8.152C51.4583 7.788 51.1596 7.50333 50.7956 7.298C50.4316 7.09267 50.0303 6.99 49.5916 6.99C49.1623 6.99 48.7656 7.09267 48.4016 7.298C48.0376 7.50333 47.7389 7.788 47.5056 8.152C47.2816 8.516 47.1509 8.936 47.1136 9.412ZM54.1391 9.86C54.1391 9.16933 54.2791 8.53933 54.5591 7.97C54.8484 7.39133 55.2404 6.92933 55.7351 6.584C56.2391 6.23867 56.8131 6.066 57.4571 6.066C58.0451 6.066 58.5724 6.22 59.0391 6.528C59.5058 6.836 59.8698 7.20933 60.1311 7.648V3.28H61.3631V12.1C61.3631 12.2493 61.3911 12.3613 61.4471 12.436C61.5124 12.5013 61.6151 12.5387 61.7551 12.548V13.5C61.5218 13.5373 61.3398 13.556 61.2091 13.556C60.9664 13.556 60.7518 13.472 60.5651 13.304C60.3878 13.136 60.2991 12.9493 60.2991 12.744V12.128C60.0098 12.5947 59.6224 12.9633 59.1371 13.234C58.6518 13.5047 58.1478 13.64 57.6251 13.64C57.1211 13.64 56.6544 13.542 56.2251 13.346C55.8051 13.1407 55.4364 12.8607 55.1191 12.506C54.8111 12.1513 54.5684 11.75 54.3911 11.302C54.2231 10.8447 54.1391 10.364 54.1391 9.86ZM60.1311 10.938V8.838C60.0191 8.52067 59.8371 8.236 59.5851 7.984C59.3331 7.72267 59.0484 7.51733 58.7311 7.368C58.4231 7.20933 58.1151 7.13 57.8071 7.13C57.4431 7.13 57.1118 7.20933 56.8131 7.368C56.5238 7.51733 56.2718 7.72267 56.0571 7.984C55.8518 8.236 55.6931 8.52533 55.5811 8.852C55.4691 9.17867 55.4131 9.51933 55.4131 9.874C55.4131 10.238 55.4738 10.5833 55.5951 10.91C55.7258 11.2367 55.9031 11.526 56.1271 11.778C56.3604 12.03 56.6264 12.226 56.9251 12.366C57.2331 12.506 57.5644 12.576 57.9191 12.576C58.1431 12.576 58.3718 12.534 58.6051 12.45C58.8478 12.366 59.0764 12.2493 59.2911 12.1C59.5058 11.9507 59.6878 11.778 59.8371 11.582C59.9864 11.3767 60.0844 11.162 60.1311 10.938ZM70.7128 13.64C70.1435 13.64 69.6255 13.5 69.1588 13.22C68.6921 12.94 68.3235 12.576 68.0528 12.128V13.5H66.9608V3.28H68.1928V7.648C68.5008 7.172 68.8788 6.78933 69.3268 6.5C69.7748 6.21067 70.2975 6.066 70.8948 6.066C71.3988 6.066 71.8515 6.17333 72.2528 6.388C72.6541 6.59333 72.9948 6.878 73.2748 7.242C73.5641 7.59667 73.7835 8.00267 73.9328 8.46C74.0915 8.908 74.1708 9.37933 74.1708 9.874C74.1708 10.3873 74.0821 10.8727 73.9048 11.33C73.7368 11.778 73.4941 12.1793 73.1768 12.534C72.8595 12.8793 72.4908 13.15 72.0708 13.346C71.6601 13.542 71.2075 13.64 70.7128 13.64ZM70.4048 12.576C70.7688 12.576 71.1048 12.5013 71.4128 12.352C71.7208 12.2027 71.9868 12.002 72.2108 11.75C72.4348 11.498 72.6075 11.2087 72.7288 10.882C72.8501 10.5553 72.9108 10.2193 72.9108 9.874C72.9108 9.398 72.8081 8.95 72.6028 8.53C72.4068 8.11 72.1268 7.774 71.7628 7.522C71.4081 7.26067 70.9928 7.13 70.5168 7.13C70.1715 7.13 69.8495 7.20933 69.5508 7.368C69.2521 7.52667 68.9861 7.73667 68.7528 7.998C68.5288 8.25 68.3421 8.53 68.1928 8.838V10.952C68.2395 11.1853 68.3375 11.4 68.4868 11.596C68.6361 11.792 68.8181 11.9647 69.0328 12.114C69.2475 12.254 69.4715 12.366 69.7048 12.45C69.9475 12.534 70.1808 12.576 70.4048 12.576ZM75.7734 15.488C75.8947 15.4973 76.016 15.5067 76.1374 15.516C76.2587 15.5347 76.352 15.544 76.4174 15.544C76.5667 15.544 76.6974 15.4927 76.8094 15.39C76.9214 15.2873 77.0427 15.0867 77.1734 14.788C77.3134 14.4987 77.4907 14.0693 77.7054 13.5L74.6114 6.192H75.9134L78.3774 12.254L80.6034 6.192H81.8214L78.2654 15.418C78.1814 15.6327 78.0554 15.8333 77.8874 16.02C77.7287 16.216 77.5234 16.37 77.2714 16.482C77.0194 16.594 76.716 16.65 76.3614 16.65C76.2774 16.65 76.1887 16.6453 76.0954 16.636C76.0114 16.6267 75.904 16.608 75.7734 16.58V15.488Z" fill="#515151"/>
<g clip-path="url(#clip0_6005_7606)">
<path d="M138.198 4.44922C136.86 4.44922 135.734 4.85211 134.823 5.67431C133.911 6.49482 133.447 7.55388 133.447 8.86624C133.447 10.1809 133.911 11.2575 134.842 12.0956C135.754 12.9189 136.878 13.3382 138.198 13.3382C139.515 13.3382 140.639 12.9189 141.551 12.0956C142.483 11.2575 142.947 10.1809 142.947 8.86624C142.947 7.55445 142.484 6.49482 141.571 5.67431C140.659 4.85154 139.535 4.44922 138.198 4.44922ZM140.207 10.8399C139.665 11.338 138.991 11.5878 138.197 11.5878C137.402 11.5878 136.727 11.338 136.186 10.8399C135.635 10.3288 135.352 9.67654 135.352 8.86567C135.352 8.07746 135.638 7.44509 136.186 6.94984C136.73 6.45969 137.401 6.20583 138.197 6.20583C138.991 6.20583 139.663 6.45912 140.207 6.94984C140.754 7.44509 141.04 8.07746 141.04 8.86567C141.04 9.67711 140.757 10.3288 140.207 10.8399Z" fill="white"/>
<path d="M164.526 4.44922C163.188 4.44922 162.063 4.85211 161.153 5.67431C160.241 6.49482 159.777 7.55388 159.777 8.86624C159.777 10.1809 160.241 11.2575 161.173 12.0956C162.082 12.9189 163.207 13.3382 164.526 13.3382C165.845 13.3382 166.969 12.9189 167.879 12.0956C168.811 11.2575 169.277 10.1809 169.277 8.86624C169.277 7.55445 168.811 6.49482 167.9 5.67431C166.987 4.85154 165.863 4.44922 164.526 4.44922ZM166.534 10.8399C165.995 11.338 165.321 11.5878 164.526 11.5878C163.73 11.5878 163.056 11.338 162.513 10.8399C161.964 10.3288 161.682 9.67654 161.682 8.86567C161.682 8.07746 161.968 7.44509 162.513 6.94984C163.059 6.45969 163.73 6.20583 164.526 6.20583C165.321 6.20583 165.991 6.45912 166.534 6.94984C167.083 7.44509 167.368 8.07746 167.368 8.86567C167.368 9.67711 167.085 10.3288 166.534 10.8399Z" fill="white"/>
<path d="M189.622 5.67431C188.712 4.85211 187.584 4.44922 186.249 4.44922C184.911 4.44922 183.787 4.85211 182.874 5.67431C181.964 6.49482 181.498 7.55388 181.498 8.86624C181.498 10.1809 181.964 11.2575 182.896 12.0956C183.806 12.9189 184.93 13.3382 186.249 13.3382C187.567 13.3382 188.692 12.9189 189.603 12.0956C190.534 11.2575 191 10.1809 191 8.86624C191 7.55388 190.534 6.49482 189.622 5.67431ZM188.258 10.8399C187.719 11.338 187.042 11.5878 186.25 11.5878C185.455 11.5878 184.781 11.338 184.239 10.8399C183.688 10.3288 183.405 9.67654 183.405 8.86567C183.405 8.07746 183.692 7.44509 184.239 6.94984C184.783 6.45969 185.455 6.20583 186.25 6.20583C187.042 6.20583 187.714 6.45912 188.258 6.94984C188.808 7.44509 189.092 8.07746 189.092 8.86567C189.092 9.67711 188.809 10.3288 188.258 10.8399Z" fill="white"/>
<path d="M121.336 4.47656C120.283 4.47656 118.948 4.91628 118.114 5.69882C117.282 6.4842 116.719 7.42653 116.719 9.22677V16.0662C116.719 16.5677 117.139 16.9983 117.671 16.9983C118.207 16.9983 118.625 16.5677 118.625 16.0662V9.22677C118.625 8.17677 118.92 7.47923 119.454 6.97718C119.987 6.47456 120.733 6.23544 121.336 6.23544C122.13 6.23544 122.801 6.48646 123.346 6.97718C123.893 7.47186 124.179 8.10084 124.179 8.89302C124.179 9.70049 123.897 10.3561 123.346 10.8638C122.805 11.3664 122.13 11.6067 121.336 11.6067H120.826C120.304 11.6067 119.856 11.9931 119.856 12.4856C119.856 12.9768 120.304 13.3644 120.826 13.3644H121.336C122.653 13.3644 123.777 12.9462 124.69 12.124C125.621 11.2854 126.086 10.2059 126.086 8.89358C126.086 7.57953 125.621 6.52159 124.71 5.69939C123.799 4.87888 122.675 4.47656 121.336 4.47656Z" fill="white"/>
<path d="M179.008 0.818359C178.473 0.818359 178.055 1.24901 178.055 1.75106V8.5854C178.055 9.63993 177.759 10.3358 177.225 10.8407C176.692 11.3421 175.948 11.5824 175.344 11.5824C174.549 11.5824 173.88 11.3291 173.333 10.8407C172.786 10.3448 172.5 9.71189 172.5 8.92255C172.5 8.11168 172.783 7.4606 173.333 6.95119C173.875 6.4514 174.549 6.20718 175.344 6.20718H175.852C176.375 6.20718 176.824 5.82016 176.824 5.32944C176.824 4.83929 176.375 4.44944 175.852 4.44944H175.344C174.024 4.44944 172.9 4.87102 171.991 5.6904C171.06 6.5313 170.594 7.6068 170.594 8.92199C170.594 10.2349 171.059 11.294 171.97 12.1139C172.881 12.9373 174.006 13.3379 175.344 13.3379C176.398 13.3379 177.733 12.8999 178.566 12.1139C179.398 11.3325 179.96 10.3907 179.96 8.58483V1.75163C179.96 1.24901 179.54 0.818359 179.008 0.818359Z" fill="white"/>
<path d="M132.014 4.54492H131.785C130.808 4.54492 130.115 4.91098 129.593 5.92188V5.47479C129.593 4.97331 129.175 4.54492 128.64 4.54492C128.106 4.54492 127.688 4.97331 127.688 5.47479V12.3375C127.688 12.8378 128.106 13.2685 128.64 13.2685C129.175 13.2685 129.593 12.8378 129.593 12.3375V9.93374C129.593 7.51529 130.535 6.24203 132.014 6.24203C132.521 6.24203 132.955 5.86918 132.955 5.39546C132.954 4.91834 132.52 4.54492 132.014 4.54492Z" fill="white"/>
<path d="M154.314 4.47461C153.21 4.47461 152.096 4.91433 151.335 5.89406C150.575 4.91433 149.461 4.47461 148.356 4.47461C147.252 4.47461 146.323 4.8299 145.572 5.55577C144.818 6.28562 144.434 7.22398 144.434 8.38731V12.3368C144.434 12.8372 144.854 13.2678 145.387 13.2678C145.92 13.2678 146.341 12.8372 146.341 12.3368V8.38731C146.341 7.7453 146.543 7.23418 146.934 6.83413C147.321 6.43521 147.797 6.23292 148.362 6.23292C148.927 6.23292 149.403 6.43521 149.791 6.8347C150.18 7.23475 150.383 7.74587 150.383 8.38788V12.3374C150.383 12.8378 150.802 13.2684 151.336 13.2684C151.868 13.2684 152.289 12.8378 152.289 12.3374V8.38788C152.289 7.74587 152.491 7.23475 152.882 6.8347C153.267 6.43578 153.744 6.23292 154.308 6.23292C154.874 6.23292 155.35 6.43521 155.738 6.8347C156.126 7.23475 156.329 7.74587 156.329 8.38788V12.3374C156.329 12.8378 156.749 13.2684 157.283 13.2684C157.818 13.2684 158.235 12.8378 158.235 12.3374V8.38788C158.235 7.22455 157.851 6.28618 157.1 5.55634C156.346 4.8299 155.418 4.47461 154.314 4.47461Z" fill="white"/>
<path d="M107.695 7.97932C107.158 7.97932 106.722 8.39127 106.722 8.89559C106.723 10.0243 106.255 11.0879 105.407 11.8858C104.56 12.6836 103.432 13.1245 102.232 13.1245C101.033 13.1245 99.9057 12.6842 99.0552 11.8858C98.2077 11.0879 97.7415 10.0243 97.7415 8.89559C97.7415 7.76796 98.2077 6.70549 99.057 5.90765C99.9051 5.10981 101.033 4.66953 102.231 4.66953C102.769 4.66953 103.205 4.25757 103.205 3.75382C103.205 3.24724 102.769 2.83699 102.231 2.83699C101.022 2.83699 99.8647 3.15091 98.8616 3.73512C98.1453 4.13574 97.2598 3.54416 97.4374 2.77522C97.5954 2.09071 97.3958 1.35237 96.834 0.827086C95.9562 0.000346422 94.5344 0.000346422 93.6583 0.827086C92.7806 1.65156 92.7806 2.98941 93.6583 3.81615C94.2196 4.34314 95.003 4.5324 95.7245 4.38507C96.543 4.21734 97.1755 5.04975 96.7478 5.72292C96.1272 6.66753 95.7958 7.75889 95.7958 8.89615C95.7958 10.5151 96.4652 12.0359 97.6809 13.1823C98.8966 14.3269 100.513 14.9576 102.233 14.9576C103.953 14.9576 105.569 14.3269 106.784 13.1823C108.001 12.0359 108.669 10.5151 108.669 8.89615C108.669 8.39127 108.232 7.97932 107.695 7.97932Z" fill="white"/>
<path d="M106.571 0.825322C105.975 1.38517 105.681 2.12408 105.695 2.86072C105.728 4.87402 104.124 6.58246 101.996 6.79382C101.502 6.84312 101.022 7.04371 100.643 7.4024C99.7673 8.22461 99.7673 9.56473 100.643 10.3881C101.522 11.2137 102.944 11.2137 103.82 10.3915C104.197 10.0328 104.412 9.58003 104.463 9.11538C104.691 7.11455 106.503 5.6033 108.643 5.63389C109.426 5.64749 110.209 5.3738 110.806 4.80886C111.976 3.70899 111.976 1.92405 110.806 0.825322C109.636 -0.275107 107.741 -0.275107 106.571 0.825322Z" fill="white"/>
</g>
<defs>
<clipPath id="clip0_6005_7606">
<rect width="98" height="17" fill="white" transform="translate(93)"/>
</clipPath>
</defs>
</svg>
