<svg width="92" height="43" viewBox="0 0 92 43" fill="none" xmlns="http://www.w3.org/2000/svg">
<g id="_&#208;&#168;&#208;&#176;&#209;&#128;_1" clip-path="url(#clip0_6005_7566)">
<g id="Group">
<g id="Group_2">
<path id="Vector" fill-rule="evenodd" clip-rule="evenodd" d="M14.4331 5.18023V17.6044H34.0094V5.18023C34.0094 2.44271 31.9598 0.210578 29.2408 0H19.5782C16.7337 0 14.4331 2.31636 14.4331 5.18023Z" fill="white"/>
<path id="Vector_2" fill-rule="evenodd" clip-rule="evenodd" d="M14.4331 5.18023V17.6044H34.0094V5.18023C34.0094 2.44271 31.9598 0.210578 29.2408 0H19.5782C16.7337 0 14.4331 2.31636 14.4331 5.18023Z" fill="white"/>
</g>
<g id="Group_3">
<path id="Vector_3" fill-rule="evenodd" clip-rule="evenodd" d="M9.28809 18.6572H39.1545C39.1127 19.7944 38.2343 20.6788 37.1049 20.7209H11.3377C10.2083 20.6788 9.32992 19.7944 9.28809 18.6572Z" fill="white"/>
<path id="Vector_4" fill-rule="evenodd" clip-rule="evenodd" d="M9.28809 18.6572H39.1545C39.1127 19.7944 38.2343 20.6788 37.1049 20.7209H11.3377C10.2083 20.6788 9.32992 19.7944 9.28809 18.6572Z" fill="white"/>
</g>
<g id="Group_4">
<path id="Vector_5" fill-rule="evenodd" clip-rule="evenodd" d="M35.0137 13.477C36.7287 13.477 38.1091 12.0871 38.1091 10.3604C38.1091 8.63366 36.7287 7.24384 35.0137 7.24384V5.18018C37.8581 5.18018 40.1587 7.49654 40.1587 10.3604C40.1587 13.2243 37.8581 15.5406 35.0137 15.5406V13.477Z" fill="white"/>
<path id="Vector_6" fill-rule="evenodd" clip-rule="evenodd" d="M35.0137 13.477C36.7287 13.477 38.1091 12.0871 38.1091 10.3604C38.1091 8.63366 36.7287 7.24384 35.0137 7.24384V5.18018C37.8581 5.18018 40.1587 7.49654 40.1587 10.3604C40.1587 13.2243 37.8581 15.5406 35.0137 15.5406V13.477Z" fill="white"/>
</g>
<g id="Group_5">
<path id="Vector_7" fill-rule="evenodd" clip-rule="evenodd" d="M3.09766 23.8374H4.1434V33.145H9.28846V34.1979H3.09766V23.8374Z" fill="white"/>
<path id="Vector_8" fill-rule="evenodd" clip-rule="evenodd" d="M3.09766 23.8374H4.1434V33.145H9.28846V34.1979H3.09766V23.8374Z" fill="white"/>
</g>
<g id="Group_6">
<path id="Vector_9" fill-rule="evenodd" clip-rule="evenodd" d="M39.1548 23.8374V34.1979H40.1587V32.2184L42.9195 29.3546L47.1443 34.1979H48.5665L43.6724 28.6386L48.3573 23.8374H46.8933L40.1587 30.7444V23.8374H39.1548Z" fill="white"/>
<path id="Vector_10" fill-rule="evenodd" clip-rule="evenodd" d="M39.1548 23.8374V34.1979H40.1587V32.2184L42.9195 29.3546L47.1443 34.1979H48.5665L43.6724 28.6386L48.3573 23.8374H46.8933L40.1587 30.7444V23.8374H39.1548Z" fill="white"/>
</g>
<g id="Group_7">
<path id="Vector_11" fill-rule="evenodd" clip-rule="evenodd" d="M51.4946 34.1979V23.8374H57.6854V24.8482H52.5404V27.712H57.4345V28.7649H52.5404V34.1979H51.4946Z" fill="white"/>
<path id="Vector_12" fill-rule="evenodd" clip-rule="evenodd" d="M51.4946 34.1979V23.8374H57.6854V24.8482H52.5404V27.712H57.4345V28.7649H52.5404V34.1979H51.4946Z" fill="white"/>
</g>
<g id="Group_8">
<path id="Vector_13" fill-rule="evenodd" clip-rule="evenodd" d="M77.7639 23.8374H78.9351C80.3573 24.048 81.4031 25.143 81.5285 26.5749C81.6959 27.9647 80.9429 29.2282 79.688 29.7757L83.0762 34.1557H81.7377L78.5168 30.0284H77.722V28.9755H78.3077C79.3952 28.9334 80.2737 28.049 80.3155 26.954C80.3573 25.8168 79.4371 24.8482 78.3077 24.8482H77.722V23.8374H77.7639ZM74.1665 34.1979V23.8374L77.7639 23.8795V24.8482H75.2122V28.9755H77.7639V30.0284H75.2122V34.1557H74.1665V34.1979Z" fill="white"/>
<path id="Vector_14" fill-rule="evenodd" clip-rule="evenodd" d="M74.1665 34.1979V23.8374L78.9351 23.8795C80.3573 24.0901 81.4031 25.1851 81.5285 26.617C81.6959 28.0069 80.9429 29.2703 79.688 29.8178L83.0762 34.1979H81.7377L78.5168 30.0705H75.1704V34.1979H74.1665ZM75.1704 29.0176V24.8482H78.3077C79.4371 24.8903 80.3573 25.8168 80.3155 26.954C80.2737 28.049 79.3952 28.9334 78.3077 28.9755L75.1704 29.0176Z" fill="white"/>
</g>
<g id="Group_9">
<path id="Vector_15" fill-rule="evenodd" clip-rule="evenodd" d="M87.6774 34.1979H88.6814V24.8482H91.9022V23.8374H84.4565V24.8482H87.6774V34.1979Z" fill="white"/>
<path id="Vector_16" fill-rule="evenodd" clip-rule="evenodd" d="M87.6774 34.1979H88.6814V24.8482H91.9022V23.8374H84.4565V24.8482H87.6774V34.1979Z" fill="white"/>
</g>
<g id="Group_10">
<path id="Vector_17" fill-rule="evenodd" clip-rule="evenodd" d="M20.5404 29.0176C20.5404 27.2909 19.16 25.9011 17.445 25.9011V23.8374C20.2895 23.8374 22.5901 26.1538 22.5901 29.0176C22.5901 31.8815 20.2895 34.1979 17.445 34.1979V32.1342C19.16 32.1342 20.5404 30.7444 20.5404 29.0176ZM17.4869 25.9432C15.7718 25.9432 14.3915 27.333 14.3915 29.0597C14.3915 30.7865 15.7718 32.1763 17.4869 32.1763V34.24C14.6424 34.24 12.3418 31.9236 12.3418 29.0597C12.3418 26.1959 14.6424 23.8795 17.4869 23.8795V25.9432Z" fill="white"/>
<path id="Vector_18" fill-rule="evenodd" clip-rule="evenodd" d="M20.5404 29.0176C20.5404 27.2909 19.16 25.9011 17.445 25.9011C15.73 25.9011 14.3496 27.2909 14.3496 29.0176C14.3496 30.7444 15.73 32.1342 17.445 32.1342C19.16 32.1342 20.5404 30.7444 20.5404 29.0176ZM22.6319 29.0176C22.6319 26.1538 20.3313 23.8374 17.4869 23.8374C14.6424 23.8374 12.3418 26.1538 12.3418 29.0176C12.3418 31.8815 14.6424 34.1979 17.4869 34.1979C20.3313 34.1979 22.6319 31.8815 22.6319 29.0176Z" fill="white"/>
</g>
<g id="Group_11">
<path id="Vector_19" fill-rule="evenodd" clip-rule="evenodd" d="M36.0597 29.0176C36.0597 26.1538 33.759 23.8374 30.9146 23.8374V24.8482C33.2152 24.8482 35.0557 26.7013 35.0557 29.0176C35.0557 31.334 33.2152 33.1871 30.9146 33.1871V34.1979C33.759 34.1979 36.0597 31.8815 36.0597 29.0176ZM30.9146 23.8374C28.0702 23.8374 25.7695 26.1538 25.7695 29.0176C25.7695 31.8815 28.0702 34.1979 30.9146 34.1979V33.1871C28.614 33.1871 26.7734 31.334 26.7734 29.0176C26.7734 26.7013 28.614 24.8482 30.9146 24.8482V23.8374Z" fill="white"/>
<path id="Vector_20" fill-rule="evenodd" clip-rule="evenodd" d="M36.0597 29.0176C36.0597 26.1538 33.759 23.8374 30.9146 23.8374C28.0702 23.8374 25.7695 26.1538 25.7695 29.0176C25.7695 31.8815 28.0702 34.1979 30.9146 34.1979C33.759 34.1979 36.0597 31.8815 36.0597 29.0176ZM35.0557 29.0176C35.0557 26.7013 33.2152 24.8482 30.9146 24.8482C28.614 24.8482 26.7734 26.7013 26.7734 29.0176C26.7734 31.334 28.614 33.1871 30.9146 33.1871C33.1734 33.1871 35.0557 31.334 35.0557 29.0176Z" fill="white"/>
</g>
<g id="Group_12">
<path id="Vector_21" fill-rule="evenodd" clip-rule="evenodd" d="M71.0709 29.0176C71.0709 26.1538 68.7702 23.8374 65.9258 23.8374V24.8482C68.2265 24.8482 70.067 26.7013 70.067 29.0176C70.067 31.334 68.2265 33.1871 65.9258 33.1871V34.1979C68.7284 34.1979 71.0709 31.8815 71.0709 29.0176ZM65.9258 23.8374C63.0814 23.8374 60.7808 26.1538 60.7808 29.0176C60.7808 31.8815 63.0814 34.1979 65.9258 34.1979V33.1871C63.6252 33.1871 61.7847 31.334 61.7847 29.0176C61.7847 26.7013 63.6252 24.8482 65.9258 24.8482V23.8374Z" fill="white"/>
<path id="Vector_22" fill-rule="evenodd" clip-rule="evenodd" d="M71.0709 29.0176C71.0709 26.1538 68.7702 23.8374 65.9258 23.8374C63.0814 23.8374 60.7808 26.1538 60.7808 29.0176C60.7808 31.8815 63.0814 34.1979 65.9258 34.1979C68.7284 34.1979 71.0709 31.8815 71.0709 29.0176ZM70.0251 29.0176C70.0251 26.7013 68.1846 24.8482 65.884 24.8482C63.5834 24.8482 61.7428 26.7013 61.7428 29.0176C61.7428 31.334 63.5834 33.1871 65.884 33.1871C68.1846 33.1871 70.0251 31.334 70.0251 29.0176Z" fill="white"/>
</g>
<path id="Vector_23" fill-rule="evenodd" clip-rule="evenodd" d="M24.0961 38.8728C22.8412 37.9463 21.2517 37.8199 19.9131 38.6201L16.2321 40.7259C14.9354 41.484 13.4714 41.484 12.1328 40.7259C13.7642 42.2842 15.6883 43.0423 17.9053 43.0002C19.3275 42.9581 20.5406 42.8317 21.8791 42.4527C22.7576 42.2421 23.4268 41.8209 24.0543 41.1892C24.6817 41.8209 25.351 42.2421 26.2294 42.4527C27.6098 42.8317 28.8229 42.9581 30.2033 43.0002C32.4621 43.0423 34.3444 42.2842 35.9758 40.7259C34.6791 41.484 33.215 41.484 31.8765 40.7259L28.1954 38.6201C26.9405 37.8199 25.351 37.9042 24.0961 38.8728Z" fill="white"/>
</g>
</g>
<defs>
<clipPath id="clip0_6005_7566">
<rect width="92" height="43" fill="white"/>
</clipPath>
</defs>
</svg>
