<svg width="95" height="46" viewBox="0 0 95 46" fill="none" xmlns="http://www.w3.org/2000/svg">
<g id="Frame" clip-path="url(#clip0_6019_47427)">
<g id="Group">
<g id="Group_2">
<path id="Vector" fill-rule="evenodd" clip-rule="evenodd" d="M12.1267 5.54163V18.8325H33.0688V5.54163C33.0688 2.61312 30.8761 0.225269 27.9675 0H17.6307C14.5878 0 12.1267 2.47796 12.1267 5.54163Z" fill="#231F20"/>
<path id="Vector_2" fill-rule="evenodd" clip-rule="evenodd" d="M12.1267 5.54163V18.8325H33.0688V5.54163C33.0688 2.61312 30.8761 0.225269 27.9675 0H17.6307C14.5878 0 12.1267 2.47796 12.1267 5.54163Z" fill="#231F20"/>
</g>
<g id="Group_3">
<path id="Vector_3" fill-rule="evenodd" clip-rule="evenodd" d="M6.62268 19.9588H38.5728C38.528 21.1753 37.5883 22.1214 36.3801 22.1665H8.81533C7.60714 22.1214 6.66743 21.1753 6.62268 19.9588Z" fill="#231F20"/>
<path id="Vector_4" fill-rule="evenodd" clip-rule="evenodd" d="M6.62268 19.9588H38.5728C38.528 21.1753 37.5883 22.1214 36.3801 22.1665H8.81533C7.60714 22.1214 6.66743 21.1753 6.62268 19.9588Z" fill="#231F20"/>
</g>
<g id="Group_4">
<path id="Vector_5" fill-rule="evenodd" clip-rule="evenodd" d="M34.1427 14.4173C35.9774 14.4173 37.454 12.9305 37.454 11.0833C37.454 9.23607 35.9774 7.7493 34.1427 7.7493V5.54166C37.1856 5.54166 39.6467 8.01962 39.6467 11.0833C39.6467 14.1469 37.1856 16.6249 34.1427 16.6249V14.4173Z" fill="#231F20"/>
<path id="Vector_6" fill-rule="evenodd" clip-rule="evenodd" d="M34.1427 14.4173C35.9774 14.4173 37.454 12.9305 37.454 11.0833C37.454 9.23607 35.9774 7.7493 34.1427 7.7493V5.54166C37.1856 5.54166 39.6467 8.01962 39.6467 11.0833C39.6467 14.1469 37.1856 16.6249 34.1427 16.6249V14.4173Z" fill="#231F20"/>
</g>
<g id="Group_5">
<path id="Vector_7" fill-rule="evenodd" clip-rule="evenodd" d="M0 25.5005H1.1187V35.4574H6.6227V36.5838H0V25.5005Z" fill="#231F20"/>
<path id="Vector_8" fill-rule="evenodd" clip-rule="evenodd" d="M0 25.5005H1.1187V35.4574H6.6227V36.5838H0V25.5005Z" fill="#231F20"/>
</g>
<g id="Group_6">
<path id="Vector_9" fill-rule="evenodd" clip-rule="evenodd" d="M38.5728 25.5005V36.5838H39.6467V34.4662L42.6001 31.4026L47.1196 36.5838H48.6411L43.4055 30.6366L48.4173 25.5005H46.8511L39.6467 32.8893V25.5005H38.5728Z" fill="#231F20"/>
<path id="Vector_10" fill-rule="evenodd" clip-rule="evenodd" d="M38.5728 25.5005V36.5838H39.6467V34.4662L42.6001 31.4026L47.1196 36.5838H48.6411L43.4055 30.6366L48.4173 25.5005H46.8511L39.6467 32.8893V25.5005H38.5728Z" fill="#231F20"/>
</g>
<g id="Group_7">
<path id="Vector_11" fill-rule="evenodd" clip-rule="evenodd" d="M51.7734 36.5838V25.5005H58.3961V26.5818H52.8921V29.6455H58.1277V30.7718H52.8921V36.5838H51.7734Z" fill="#231F20"/>
<path id="Vector_12" fill-rule="evenodd" clip-rule="evenodd" d="M51.7734 36.5838V25.5005H58.3961V26.5818H52.8921V29.6455H58.1277V30.7718H52.8921V36.5838H51.7734Z" fill="#231F20"/>
</g>
<g id="Group_8">
<path id="Vector_13" fill-rule="evenodd" clip-rule="evenodd" d="M79.8752 25.5005H81.1281C82.6496 25.7258 83.7683 26.8972 83.9025 28.429C84.0815 29.9158 83.276 31.2674 81.9336 31.8531L85.5582 36.5387H84.1262L80.6807 32.1234H79.8304V30.9971H80.4569C81.6204 30.952 82.5601 30.0059 82.6048 28.8345C82.6496 27.618 81.6651 26.5818 80.4569 26.5818H79.8304V25.5005H79.8752ZM76.0269 36.5838V25.5005L79.8752 25.5456V26.5818H77.1456V30.9971H79.8752V32.1234H77.1456V36.5387H76.0269V36.5838Z" fill="#231F20"/>
<path id="Vector_14" fill-rule="evenodd" clip-rule="evenodd" d="M76.0269 36.5838V25.5005L81.1281 25.5456C82.6496 25.7708 83.7683 26.9422 83.9025 28.4741C84.0815 29.9608 83.276 31.3125 81.9336 31.8982L85.5582 36.5838H84.1262L80.6807 32.1685H77.1008V36.5838H76.0269ZM77.1008 31.0421V26.5818H80.4569C81.6651 26.6269 82.6496 27.618 82.6048 28.8345C82.5601 30.0059 81.6204 30.952 80.4569 30.9971L77.1008 31.0421Z" fill="#231F20"/>
</g>
<g id="Group_9">
<path id="Vector_15" fill-rule="evenodd" clip-rule="evenodd" d="M90.4804 36.5838H91.5544V26.5818H95V25.5005H87.0349V26.5818H90.4804V36.5838Z" fill="#231F20"/>
<path id="Vector_16" fill-rule="evenodd" clip-rule="evenodd" d="M90.4804 36.5838H91.5544V26.5818H95V25.5005H87.0349V26.5818H90.4804V36.5838Z" fill="#231F20"/>
</g>
<g id="Group_10">
<path id="Vector_17" fill-rule="evenodd" clip-rule="evenodd" d="M18.6599 31.0421C18.6599 29.1949 17.1832 27.7081 15.3485 27.7081V25.5005C18.3914 25.5005 20.8525 27.9785 20.8525 31.0421C20.8525 34.1058 18.3914 36.5838 15.3485 36.5838V34.3761C17.1832 34.3761 18.6599 32.8893 18.6599 31.0421ZM15.3933 27.7532C13.5586 27.7532 12.0819 29.24 12.0819 31.0872C12.0819 32.9344 13.5586 34.4212 15.3933 34.4212V36.6288C12.3504 36.6288 9.88928 34.1508 9.88928 31.0872C9.88928 28.0235 12.3504 25.5456 15.3933 25.5456V27.7532Z" fill="#231F20"/>
<path id="Vector_18" fill-rule="evenodd" clip-rule="evenodd" d="M18.6599 31.0421C18.6599 29.1949 17.1832 27.7081 15.3485 27.7081C13.5139 27.7081 12.0372 29.1949 12.0372 31.0421C12.0372 32.8893 13.5139 34.3761 15.3485 34.3761C17.1832 34.3761 18.6599 32.8893 18.6599 31.0421ZM20.8973 31.0421C20.8973 27.9785 18.4362 25.5005 15.3933 25.5005C12.3504 25.5005 9.88928 27.9785 9.88928 31.0421C9.88928 34.1058 12.3504 36.5838 15.3933 36.5838C18.4362 36.5838 20.8973 34.1058 20.8973 31.0421Z" fill="#231F20"/>
</g>
<g id="Group_11">
<path id="Vector_19" fill-rule="evenodd" clip-rule="evenodd" d="M35.2614 31.0421C35.2614 27.9785 32.8003 25.5005 29.7574 25.5005V26.5818C32.2186 26.5818 34.1875 28.5642 34.1875 31.0421C34.1875 33.5201 32.2186 35.5025 29.7574 35.5025V36.5838C32.8003 36.5838 35.2614 34.1058 35.2614 31.0421ZM29.7574 25.5005C26.7146 25.5005 24.2534 27.9785 24.2534 31.0421C24.2534 34.1058 26.7146 36.5838 29.7574 36.5838V35.5025C27.2963 35.5025 25.3274 33.5201 25.3274 31.0421C25.3274 28.5642 27.2963 26.5818 29.7574 26.5818V25.5005Z" fill="#231F20"/>
<path id="Vector_20" fill-rule="evenodd" clip-rule="evenodd" d="M35.2614 31.0421C35.2614 27.9785 32.8003 25.5005 29.7574 25.5005C26.7146 25.5005 24.2534 27.9785 24.2534 31.0421C24.2534 34.1058 26.7146 36.5838 29.7574 36.5838C32.8003 36.5838 35.2614 34.1058 35.2614 31.0421ZM34.1875 31.0421C34.1875 28.5642 32.2186 26.5818 29.7574 26.5818C27.2963 26.5818 25.3274 28.5642 25.3274 31.0421C25.3274 33.5201 27.2963 35.5025 29.7574 35.5025C32.1738 35.5025 34.1875 33.5201 34.1875 31.0421Z" fill="#231F20"/>
</g>
<g id="Group_12">
<path id="Vector_21" fill-rule="evenodd" clip-rule="evenodd" d="M72.7155 31.0421C72.7155 27.9785 70.2543 25.5005 67.2115 25.5005V26.5818C69.6726 26.5818 71.6415 28.5642 71.6415 31.0421C71.6415 33.5201 69.6726 35.5025 67.2115 35.5025V36.5838C70.2096 36.5838 72.7155 34.1058 72.7155 31.0421ZM67.2115 25.5005C64.1686 25.5005 61.7075 27.9785 61.7075 31.0421C61.7075 34.1058 64.1686 36.5838 67.2115 36.5838V35.5025C64.7503 35.5025 62.7814 33.5201 62.7814 31.0421C62.7814 28.5642 64.7503 26.5818 67.2115 26.5818V25.5005Z" fill="#231F20"/>
<path id="Vector_22" fill-rule="evenodd" clip-rule="evenodd" d="M72.7155 31.0421C72.7155 27.9785 70.2543 25.5005 67.2115 25.5005C64.1686 25.5005 61.7075 27.9785 61.7075 31.0421C61.7075 34.1058 64.1686 36.5838 67.2115 36.5838C70.2096 36.5838 72.7155 34.1058 72.7155 31.0421ZM71.5968 31.0421C71.5968 28.5642 69.6279 26.5818 67.1667 26.5818C64.7056 26.5818 62.7367 28.5642 62.7367 31.0421C62.7367 33.5201 64.7056 35.5025 67.1667 35.5025C69.6279 35.5025 71.5968 33.5201 71.5968 31.0421Z" fill="#231F20"/>
</g>
<path id="Vector_23" fill-rule="evenodd" clip-rule="evenodd" d="M22.4635 41.5847C21.1211 40.5935 19.4207 40.4583 17.9887 41.3144L14.0509 43.5671C12.6637 44.378 11.0975 44.378 9.66559 43.5671C11.4108 45.234 13.4692 46.045 15.8408 46C17.3622 45.9549 18.6599 45.8198 20.0919 45.4143C21.0316 45.189 21.7475 44.7385 22.4188 44.0627C23.09 44.7385 23.806 45.189 24.7457 45.4143C26.2223 45.8198 27.52 45.9549 28.9967 46C31.4131 46.045 33.4268 45.234 35.1719 43.5671C33.7848 44.378 32.2186 44.378 30.7866 43.5671L26.8488 41.3144C25.5064 40.4583 23.806 40.5484 22.4635 41.5847Z" fill="#231F20"/>
</g>
</g>
<defs>
<clipPath id="clip0_6019_47427">
<rect width="95" height="46" fill="white"/>
</clipPath>
</defs>
</svg>
