<svg width="222" height="202" viewBox="0 0 222 202" fill="none" xmlns="http://www.w3.org/2000/svg">
<g id="Layer_1" clip-path="url(#clip0_4211_23164)">
<g id="Group">
<g id="Group_2">
<path id="Vector" d="M89.0198 147.443L162.358 181.237C167.465 183.59 173.511 181.353 175.862 176.24L219.368 81.6155C221.719 76.5026 219.485 70.4501 214.377 68.0967L141.039 34.3026C135.932 31.9492 129.886 34.1862 127.535 39.2991L84.0288 133.924C81.678 139.037 83.9125 145.089 89.0198 147.443Z" fill="white"/>
<path id="Vector_2" d="M166.608 183.372C165.45 183.372 164.301 183.194 163.195 182.844C162.565 182.644 162.215 181.971 162.414 181.34C162.614 180.708 163.287 180.359 163.917 180.558C165.564 181.079 167.344 181.109 169.012 180.646C169.651 180.469 170.309 180.842 170.486 181.48C170.663 182.118 170.29 182.779 169.653 182.956C168.66 183.232 167.635 183.372 166.608 183.372L166.608 183.372ZM158.203 180.522C158.036 180.522 157.865 180.487 157.703 180.412L152.381 177.96C151.78 177.683 151.518 176.971 151.794 176.369C152.071 175.768 152.782 175.505 153.383 175.781L158.705 178.234C159.306 178.511 159.568 179.223 159.292 179.824C159.09 180.263 158.656 180.522 158.203 180.522ZM174.234 179.94C173.952 179.94 173.669 179.841 173.441 179.639C172.946 179.199 172.9 178.442 173.338 177.946C173.92 177.288 174.403 176.546 174.774 175.739L175.973 173.132C176.249 172.531 176.96 172.268 177.561 172.545C178.162 172.822 178.425 173.534 178.148 174.135L176.95 176.742C176.481 177.762 175.869 178.702 175.132 179.536C174.895 179.803 174.566 179.94 174.235 179.94L174.234 179.94ZM147.56 175.617C147.392 175.617 147.222 175.582 147.06 175.507L141.738 173.055C141.137 172.778 140.874 172.066 141.151 171.465C141.427 170.863 142.139 170.6 142.739 170.877L148.061 173.329C148.662 173.606 148.925 174.318 148.648 174.919C148.446 175.359 148.013 175.617 147.56 175.617ZM136.916 170.713C136.748 170.713 136.578 170.677 136.416 170.602L131.094 168.15C130.493 167.873 130.23 167.161 130.507 166.56C130.783 165.958 131.495 165.695 132.095 165.972L137.417 168.424C138.018 168.701 138.281 169.413 138.005 170.015C137.803 170.454 137.369 170.713 136.916 170.713ZM179.509 169.505C179.342 169.505 179.172 169.47 179.009 169.395C178.408 169.118 178.146 168.406 178.422 167.805L180.872 162.477C181.148 161.875 181.86 161.612 182.46 161.889C183.061 162.166 183.324 162.878 183.047 163.48L180.598 168.807C180.396 169.247 179.963 169.505 179.509 169.505ZM126.272 165.808C126.105 165.808 125.934 165.773 125.772 165.698L120.45 163.246C119.849 162.969 119.587 162.257 119.863 161.656C120.14 161.054 120.851 160.791 121.452 161.068L126.774 163.52C127.375 163.797 127.637 164.509 127.361 165.11C127.159 165.549 126.725 165.808 126.272 165.808ZM115.628 160.903C115.461 160.903 115.291 160.868 115.129 160.793L109.807 158.341C109.206 158.064 108.943 157.352 109.219 156.751C109.496 156.149 110.207 155.886 110.808 156.163L116.13 158.615C116.731 158.892 116.994 159.604 116.717 160.205C116.515 160.645 116.082 160.903 115.628 160.903ZM184.408 158.85C184.241 158.85 184.071 158.814 183.909 158.74C183.308 158.463 183.045 157.751 183.321 157.149L185.771 151.822C186.048 151.22 186.759 150.957 187.359 151.234C187.96 151.511 188.223 152.223 187.947 152.824L185.497 158.152C185.295 158.591 184.862 158.85 184.408 158.85ZM104.985 155.999C104.817 155.999 104.647 155.964 104.485 155.889L99.163 153.437C98.5622 153.16 98.2993 152.448 98.5758 151.846C98.8523 151.245 99.5634 150.981 100.164 151.259L105.486 153.711C106.087 153.988 106.35 154.7 106.073 155.301C105.871 155.74 105.438 155.999 104.985 155.999ZM94.3411 151.094C94.1736 151.094 94.0033 151.059 93.8411 150.984L88.5192 148.532C88.5095 148.528 88.4996 148.523 88.4899 148.518C87.8894 148.241 87.6324 147.531 87.9096 146.93C88.1869 146.328 88.9036 146.068 89.5041 146.346L89.5207 146.354L94.8426 148.806C95.4434 149.083 95.7064 149.795 95.4298 150.396C95.2278 150.836 94.7942 151.094 94.3411 151.094ZM189.308 148.194C189.14 148.194 188.97 148.159 188.808 148.084C188.207 147.807 187.944 147.095 188.221 146.494L190.67 141.166C190.947 140.565 191.658 140.301 192.259 140.578C192.86 140.855 193.123 141.567 192.846 142.169L190.396 147.497C190.194 147.936 189.761 148.194 189.308 148.194ZM84.6636 144.817C84.2654 144.817 83.8761 144.618 83.6485 144.256C82.5023 142.431 81.8965 140.329 81.8965 138.179C81.8965 138.132 81.8966 138.084 81.8973 138.036C81.9056 137.379 82.44 136.852 83.0945 136.852H83.1098C83.7712 136.86 84.3006 137.403 84.2923 138.065C84.2919 138.102 84.2915 138.139 84.2917 138.176C84.2917 139.877 84.7705 141.537 85.6763 142.98C86.0284 143.54 85.8599 144.281 85.2999 144.633C85.102 144.758 84.8814 144.817 84.6636 144.817ZM194.207 137.539C194.039 137.539 193.869 137.503 193.707 137.429C193.106 137.152 192.843 136.44 193.12 135.838L195.569 130.511C195.846 129.909 196.557 129.646 197.158 129.923C197.759 130.2 198.022 130.912 197.745 131.513L195.296 136.841C195.094 137.28 194.66 137.539 194.207 137.539ZM84.6977 133.667C84.5301 133.667 84.3599 133.632 84.1977 133.557C83.5969 133.28 83.334 132.568 83.6105 131.967L86.0601 126.639C86.3366 126.037 87.0479 125.774 87.6488 126.051C88.2496 126.328 88.5125 127.04 88.236 127.642L85.7863 132.969C85.5845 133.409 85.1508 133.667 84.6977 133.667ZM199.106 126.883C198.938 126.883 198.768 126.848 198.606 126.773C198.005 126.496 197.742 125.784 198.019 125.183L200.469 119.855C200.745 119.253 201.456 118.99 202.057 119.267C202.658 119.544 202.921 120.256 202.644 120.858L200.195 126.186C199.993 126.625 199.559 126.883 199.106 126.883ZM89.5969 123.012C89.4293 123.012 89.2591 122.976 89.0968 122.902C88.496 122.625 88.2332 121.913 88.5096 121.311L90.9593 115.984C91.2359 115.382 91.9475 115.119 92.548 115.396C93.1488 115.673 93.4118 116.385 93.1352 116.986L90.6855 122.314C90.4837 122.753 90.05 123.012 89.5969 123.012ZM204.005 116.228C203.838 116.228 203.667 116.192 203.505 116.118C202.904 115.841 202.641 115.129 202.918 114.527L205.368 109.2C205.644 108.598 206.356 108.335 206.956 108.612C207.557 108.889 207.82 109.601 207.543 110.202L205.094 115.53C204.892 115.969 204.459 116.228 204.005 116.228ZM94.496 112.356C94.3285 112.356 94.1582 112.321 93.996 112.246C93.3952 111.969 93.1323 111.257 93.4088 110.656L95.8585 105.328C96.1349 104.727 96.846 104.463 97.4471 104.741C98.0479 105.017 98.3109 105.729 98.0343 106.331L95.5847 111.659C95.3828 112.098 94.9491 112.356 94.496 112.356ZM208.904 105.573C208.737 105.573 208.566 105.537 208.404 105.462C207.803 105.186 207.54 104.473 207.817 103.872L210.267 98.5442C210.543 97.9429 211.254 97.6796 211.856 97.9565C212.456 98.2334 212.719 98.9455 212.443 99.5471L209.993 104.875C209.791 105.314 209.358 105.573 208.904 105.573ZM99.3952 101.701C99.2276 101.701 99.0574 101.666 98.8951 101.591C98.2943 101.314 98.0315 100.602 98.308 100.001L100.757 94.6729C101.034 94.0713 101.745 93.808 102.346 94.0851C102.947 94.362 103.21 95.074 102.933 95.6755L100.484 101.003C100.282 101.442 99.8483 101.701 99.3952 101.701ZM213.803 94.9171C213.636 94.9171 213.466 94.8817 213.304 94.807C212.703 94.5301 212.44 93.818 212.716 93.2165L215.166 87.8887C215.442 87.2873 216.154 87.0241 216.754 87.3009C217.355 87.5778 217.618 88.2899 217.342 88.8913L214.892 94.2191C214.69 94.6583 214.257 94.9171 213.803 94.9171ZM104.294 91.0456C104.127 91.0456 103.957 91.0102 103.794 90.9355C103.194 90.6586 102.931 89.9466 103.207 89.3451L105.657 84.0173C105.933 83.4157 106.644 83.1525 107.245 83.4295C107.846 83.7064 108.109 84.4184 107.832 85.0199L105.383 90.3477C105.181 90.7867 104.747 91.0456 104.294 91.0456ZM218.703 84.2616C218.535 84.2616 218.365 84.2262 218.203 84.1515C217.602 83.8746 217.339 83.1626 217.616 82.5611L218.281 81.1143C218.813 79.9563 219.091 78.7286 219.105 77.4653C219.113 76.8079 219.648 76.2803 220.303 76.2803C220.307 76.2803 220.312 76.2803 220.317 76.2803C220.978 76.288 221.508 76.8312 221.501 77.4933C221.482 79.0956 221.131 80.6513 220.456 82.117L219.791 83.5638C219.589 84.003 219.156 84.2616 218.703 84.2616ZM109.193 80.3902C109.026 80.3902 108.856 80.3548 108.693 80.2801C108.093 80.0032 107.83 79.2911 108.106 78.6896L110.556 73.3618C110.832 72.7602 111.544 72.4974 112.144 72.774C112.745 73.0509 113.008 73.763 112.732 74.3644L110.282 79.6922C110.08 80.1314 109.647 80.3902 109.193 80.3902ZM218.731 73.1122C218.333 73.1122 217.945 72.914 217.717 72.5522C216.792 71.0833 215.467 69.9205 213.885 69.1897C213.284 68.9123 213.022 68.1999 213.299 67.5986C213.576 66.9975 214.287 66.7349 214.888 67.0122C216.893 67.9379 218.571 69.4116 219.743 71.274C220.096 71.8342 219.928 72.5745 219.369 72.9275C219.17 73.0525 218.949 73.1122 218.731 73.1122ZM114.093 69.7349C113.925 69.7349 113.755 69.6995 113.593 69.6248C112.992 69.3479 112.729 68.6358 113.006 68.0343L115.455 62.7065C115.732 62.1049 116.443 61.8419 117.044 62.1187C117.645 62.3956 117.907 63.1077 117.631 63.7091L115.181 69.0369C114.979 69.4761 114.546 69.7349 114.093 69.7349ZM209.064 66.8479C208.896 66.8479 208.726 66.8125 208.564 66.7378L203.242 64.2854C202.641 64.0085 202.378 63.2964 202.655 62.695C202.931 62.0935 203.643 61.8304 204.243 62.1071L209.565 64.5595C210.166 64.8364 210.429 65.5485 210.152 66.1499C209.951 66.5891 209.517 66.8479 209.064 66.8479ZM198.42 61.9431C198.253 61.9431 198.082 61.9077 197.92 61.833L192.598 59.3808C191.997 59.1039 191.735 58.3918 192.011 57.7904C192.288 57.1887 192.999 56.9256 193.6 57.2025L198.922 59.6547C199.523 59.9317 199.785 60.6437 199.509 61.2452C199.307 61.6844 198.873 61.9431 198.42 61.9431ZM118.992 59.0793C118.824 59.0793 118.654 59.0439 118.492 58.9692C117.891 58.6922 117.628 57.9802 117.905 57.3787L120.354 52.0509C120.631 51.4493 121.342 51.1865 121.943 51.4631C122.544 51.74 122.807 52.4521 122.53 53.0535L120.08 58.3813C119.879 58.8205 119.445 59.0793 118.992 59.0793ZM187.777 57.0385C187.609 57.0385 187.439 57.0031 187.277 56.9284L181.955 54.4762C181.354 54.1993 181.091 53.4872 181.368 52.8858C181.644 52.2842 182.356 52.0213 182.956 52.2979L188.278 54.7502C188.879 55.0271 189.142 55.7391 188.865 56.3406C188.663 56.7798 188.23 57.0385 187.777 57.0385ZM177.133 52.134C176.965 52.134 176.795 52.0986 176.633 52.0238L171.311 49.5715C170.71 49.2945 170.447 48.5825 170.724 47.981C171.001 47.3794 171.712 47.1166 172.313 47.3932L177.634 49.8456C178.235 50.1223 178.498 50.8345 178.222 51.436C178.02 51.8752 177.586 52.134 177.133 52.134ZM123.891 48.4237C123.724 48.4237 123.553 48.3883 123.391 48.3136C122.79 48.0366 122.528 47.3246 122.804 46.7231L125.254 41.3955C125.53 40.7939 126.242 40.5309 126.842 40.8076C127.443 41.0846 127.706 41.7966 127.429 42.3981L124.98 47.7257C124.778 48.1649 124.344 48.4237 123.891 48.4237ZM166.489 47.2292C166.322 47.2292 166.152 47.1938 165.989 47.1191L160.668 44.6667C160.067 44.3898 159.804 43.6778 160.08 43.0763C160.357 42.4748 161.069 42.2117 161.669 42.4885L166.991 44.9408C167.592 45.2176 167.855 45.9298 167.578 46.5313C167.376 46.9704 166.943 47.2292 166.489 47.2292ZM155.846 42.3246C155.678 42.3246 155.508 42.2892 155.346 42.2145L150.024 39.7621C149.423 39.4852 149.16 38.7732 149.437 38.1717C149.713 37.5701 150.425 37.3071 151.025 37.5839L156.347 40.0362C156.948 40.3132 157.211 41.0252 156.934 41.6267C156.733 42.0659 156.299 42.3246 155.846 42.3246ZM129.169 37.9902C128.886 37.9902 128.603 37.8906 128.375 37.688C127.88 37.2485 127.835 36.4907 128.274 35.9953C129.731 34.3504 131.627 33.1695 133.755 32.5801C134.392 32.4038 135.053 32.778 135.229 33.4161C135.405 34.0543 135.031 34.7147 134.394 34.8912C132.712 35.3567 131.215 36.2888 130.065 37.5865C129.829 37.8536 129.5 37.9899 129.169 37.9899L129.169 37.9902ZM145.202 37.42C145.034 37.42 144.864 37.3846 144.702 37.3099L140.539 35.3917C140.197 35.2342 139.844 35.0972 139.489 34.9843C138.858 34.7841 138.509 34.1099 138.709 33.4789C138.909 32.8478 139.583 32.4984 140.213 32.6985C140.663 32.8414 141.109 33.0145 141.541 33.2134L145.703 35.1317C146.304 35.4086 146.567 36.1206 146.291 36.7221C146.089 37.1613 145.655 37.42 145.202 37.42Z" fill="#102B4B"/>
</g>
<g id="Group_3">
<path id="Vector_3" d="M132.981 138.598L59.6428 172.392C54.5356 174.746 48.4897 172.509 46.1389 167.396L2.6323 72.7709C0.281521 67.658 2.51605 61.6054 7.6233 59.2521L80.9614 25.458C86.0686 23.1046 92.1145 25.3416 94.4653 30.4545L137.972 125.079C140.323 130.192 138.088 136.245 132.981 138.598Z" fill="white"/>
<path id="Vector_4" d="M55.3926 174.527C54.3652 174.527 53.3408 174.387 52.3478 174.112C51.7104 173.934 51.3372 173.274 51.514 172.636C51.691 171.998 52.3512 171.624 52.9883 171.801C54.6562 172.264 56.4365 172.235 58.0831 171.713C58.7136 171.514 59.3867 171.863 59.586 172.495C59.7855 173.126 59.4359 173.8 58.8053 173.999C57.6993 174.349 56.551 174.527 55.3925 174.527L55.3926 174.527ZM63.7975 171.677C63.3443 171.677 62.9107 171.419 62.7089 170.979C62.4323 170.378 62.6953 169.666 63.2961 169.389L68.618 166.937C69.2188 166.66 69.93 166.923 70.2066 167.525C70.4833 168.126 70.2203 168.838 69.6195 169.115L64.2976 171.567C64.1353 171.642 63.9651 171.677 63.7975 171.677ZM47.7662 171.095C47.4352 171.095 47.1058 170.959 46.8693 170.691C46.1319 169.858 45.52 168.918 45.0509 167.897L43.8525 165.291C43.5758 164.689 43.8388 163.977 44.4396 163.7C45.0408 163.423 45.7519 163.686 46.0283 164.288L47.2268 166.895C47.5977 167.701 48.0807 168.444 48.6624 169.101C49.101 169.597 49.0551 170.355 48.56 170.794C48.332 170.996 48.0485 171.096 47.7664 171.096L47.7662 171.095ZM74.4412 166.773C73.9879 166.773 73.5544 166.514 73.3525 166.075C73.0759 165.473 73.3389 164.761 73.9397 164.484L79.2616 162.032C79.8624 161.755 80.5737 162.018 80.8503 162.62C81.1268 163.222 80.8639 163.934 80.2631 164.21L74.9412 166.663C74.779 166.737 74.6087 166.773 74.4412 166.773ZM85.0848 161.868C84.6316 161.868 84.198 161.609 83.9962 161.17C83.7196 160.569 83.9826 159.857 84.5834 159.58L89.9051 157.128C90.5059 156.85 91.2173 157.114 91.4938 157.715C91.7704 158.317 91.5074 159.029 90.9066 159.306L85.5849 161.758C85.4226 161.833 85.2524 161.868 85.0848 161.868ZM42.4914 160.661C42.0382 160.661 41.6046 160.402 41.4028 159.963L38.9531 154.635C38.6765 154.034 38.9395 153.322 39.5403 153.045C40.1413 152.768 40.8524 153.031 41.129 153.633L43.5787 158.96C43.8553 159.562 43.5923 160.274 42.9915 160.551C42.8292 160.626 42.659 160.661 42.4914 160.661ZM95.7285 156.964C95.2752 156.964 94.8417 156.705 94.6399 156.266C94.3632 155.664 94.6263 154.952 95.227 154.675L100.549 152.223C101.15 151.946 101.861 152.209 102.138 152.811C102.414 153.413 102.151 154.125 101.55 154.401L96.2285 156.854C96.0663 156.928 95.8961 156.964 95.7285 156.964ZM106.372 152.059C105.919 152.059 105.485 151.8 105.284 151.361C105.007 150.76 105.27 150.047 105.871 149.771L111.193 147.318C111.793 147.041 112.505 147.305 112.781 147.906C113.058 148.508 112.795 149.22 112.194 149.497L106.872 151.949C106.71 152.024 106.54 152.059 106.372 152.059ZM37.5921 150.005C37.1389 150.005 36.7053 149.747 36.5033 149.307L34.0538 143.98C33.7774 143.378 34.0402 142.666 34.641 142.389C35.2418 142.112 35.9531 142.375 36.2297 142.977L38.6792 148.305C38.9558 148.906 38.6928 149.618 38.092 149.895C37.9298 149.97 37.7595 150.005 37.592 150.005H37.5921ZM117.016 147.154C116.563 147.154 116.129 146.896 115.927 146.457C115.651 145.855 115.913 145.143 116.514 144.866L121.836 142.414C122.437 142.137 123.148 142.4 123.425 143.002C123.701 143.603 123.439 144.315 122.838 144.592L117.516 147.044C117.354 147.119 117.183 147.154 117.016 147.154ZM127.659 142.25C127.206 142.25 126.773 141.991 126.571 141.552C126.294 140.95 126.557 140.238 127.158 139.962L132.497 137.501C133.097 137.224 133.809 137.486 134.086 138.088C134.363 138.689 134.101 139.401 133.5 139.679L128.159 142.14C127.997 142.215 127.827 142.25 127.659 142.25ZM32.693 139.35C32.2397 139.35 31.8062 139.091 31.6042 138.652L29.1547 133.324C28.8782 132.723 29.1411 132.01 29.7419 131.734C30.3427 131.456 31.0539 131.72 31.3305 132.322L33.78 137.649C34.0566 138.251 33.7936 138.963 33.1928 139.24C33.0306 139.314 32.8604 139.35 32.6928 139.35H32.693ZM137.337 135.973C137.119 135.973 136.899 135.913 136.701 135.788C136.141 135.436 135.973 134.696 136.325 134.135C137.23 132.693 137.709 131.033 137.709 129.334C137.709 129.294 137.709 129.259 137.708 129.223C137.699 128.561 138.227 128.017 138.889 128.007H138.906C139.56 128.007 140.094 128.532 140.103 129.189C140.104 129.239 140.105 129.289 140.104 129.338C140.104 131.485 139.498 133.586 138.352 135.411C138.125 135.774 137.735 135.972 137.337 135.972L137.337 135.973ZM27.7938 128.694C27.3405 128.694 26.907 128.436 26.705 127.996L24.2555 122.669C23.9789 122.067 24.2419 121.355 24.8427 121.078C25.4433 120.801 26.1549 121.064 26.4314 121.666L28.8809 126.994C29.1575 127.595 28.8945 128.307 28.2937 128.584C28.1314 128.659 27.9614 128.694 27.7938 128.694ZM137.303 124.823C136.85 124.823 136.416 124.564 136.214 124.125L133.765 118.797C133.488 118.195 133.751 117.483 134.352 117.207C134.953 116.929 135.664 117.193 135.94 117.794L138.39 123.122C138.667 123.724 138.404 124.436 137.803 124.713C137.641 124.787 137.47 124.823 137.303 124.823ZM22.8946 118.039C22.4414 118.039 22.0078 117.78 21.8059 117.341L19.3564 112.013C19.0797 111.412 19.3427 110.7 19.9435 110.423C20.5445 110.146 21.2558 110.409 21.5322 111.011L23.9817 116.338C24.2583 116.94 23.9953 117.652 23.3945 117.929C23.2323 118.004 23.0622 118.039 22.8946 118.039ZM132.404 114.167C131.951 114.167 131.517 113.908 131.315 113.469L128.865 108.141C128.589 107.54 128.852 106.828 129.452 106.551C130.054 106.274 130.765 106.537 131.041 107.139L133.491 112.467C133.767 113.068 133.505 113.78 132.904 114.057C132.742 114.132 132.571 114.167 132.404 114.167ZM17.9955 107.383C17.5422 107.383 17.1087 107.124 16.9067 106.685L14.4572 101.357C14.1806 100.756 14.4436 100.044 15.0444 99.7672C15.6452 99.4899 16.3564 99.7536 16.6331 100.355L19.0826 105.683C19.359 106.284 19.0962 106.996 18.4954 107.273C18.3331 107.348 18.1631 107.383 17.9955 107.383ZM127.505 103.511C127.051 103.511 126.618 103.253 126.416 102.813L123.966 97.4858C123.69 96.8844 123.953 96.1722 124.554 95.8954C125.154 95.6185 125.866 95.8818 126.142 96.4833L128.592 101.811C128.868 102.413 128.605 103.125 128.004 103.401C127.842 103.476 127.672 103.511 127.505 103.511ZM13.0963 96.7278C12.6431 96.7278 12.2095 96.469 12.0075 96.0298L9.55788 90.702C9.28127 90.1005 9.54427 89.3883 10.1451 89.1116C10.7459 88.8345 11.4571 89.0979 11.7337 89.6994L14.1834 95.0272C14.46 95.6287 14.197 96.3407 13.5962 96.6176C13.434 96.6924 13.2639 96.7278 13.0963 96.7278ZM122.605 92.8561C122.152 92.8561 121.718 92.5974 121.517 92.1582L119.067 86.8304C118.791 86.2289 119.053 85.5167 119.654 85.24C120.255 84.963 120.967 85.2263 121.243 85.8278L123.692 91.1556C123.969 91.7571 123.706 92.4693 123.105 92.746C122.943 92.8207 122.773 92.8561 122.605 92.8561ZM8.19733 86.0725C7.74407 86.0725 7.31053 85.8137 7.1087 85.3745L4.65904 80.0469C4.38242 79.4454 4.64543 78.7333 5.24622 78.4564C5.84702 78.1795 6.55828 78.4428 6.8349 79.0443L9.28455 84.3719C9.56117 84.9734 9.29816 85.6856 8.69737 85.9623C8.53512 86.0371 8.36489 86.0725 8.19733 86.0725ZM117.706 82.2009C117.253 82.2009 116.82 81.9421 116.618 81.5029L114.168 76.1753C113.892 75.5738 114.155 74.8616 114.755 74.5848C115.356 74.3079 116.068 74.5712 116.344 75.1727L118.793 80.5003C119.07 81.1018 118.807 81.814 118.206 82.0907C118.044 82.1655 117.874 82.2009 117.706 82.2009ZM3.29817 75.4172C2.84491 75.4172 2.41137 75.1584 2.20954 74.7192L1.54428 73.2724C0.870104 71.8063 0.518857 70.2507 0.500082 68.6487C0.492416 67.9866 1.02218 67.4435 1.68368 67.4357C2.34722 67.4329 2.88747 67.9585 2.89529 68.6206C2.91 69.8839 3.18755 71.1115 3.71998 72.2697L4.38524 73.7165C4.66186 74.3179 4.39885 75.03 3.79805 75.3069C3.63581 75.3816 3.46558 75.417 3.29801 75.417L3.29817 75.4172ZM112.807 71.5456C112.354 71.5456 111.92 71.2868 111.718 70.8476L109.269 65.5198C108.992 64.9183 109.255 64.2061 109.856 63.9294C110.457 63.6524 111.168 63.9156 111.445 64.5172L113.894 69.845C114.171 70.4465 113.908 71.1587 113.307 71.4354C113.145 71.5102 112.975 71.5456 112.807 71.5456ZM3.26923 64.2675C3.05112 64.2675 2.83021 64.2079 2.63197 64.0829C2.07232 63.73 1.9046 62.9896 2.2571 62.4293C3.42913 60.5671 5.10792 59.0934 7.11214 58.1675C7.71262 57.8901 8.42419 58.1527 8.70144 58.754C8.97852 59.3551 8.7163 60.0675 8.11566 60.345C6.53309 61.076 5.20805 62.2389 4.2837 63.7077C4.05605 64.0696 3.66694 64.2675 3.26923 64.2675ZM107.908 60.8899C107.455 60.8899 107.021 60.6312 106.819 60.192L104.37 54.8642C104.093 54.2627 104.356 53.5507 104.957 53.2738C105.558 52.9968 106.269 53.26 106.546 53.8616L108.995 59.1894C109.272 59.7909 109.009 60.5031 108.408 60.7798C108.246 60.8545 108.076 60.8899 107.908 60.8899ZM12.9366 58.0032C12.4833 58.0032 12.0498 57.7445 11.848 57.3053C11.5713 56.7038 11.8343 55.9916 12.4351 55.7149L17.757 53.2625C18.358 52.9856 19.0691 53.2487 19.3457 53.8503C19.6223 54.4518 19.3593 55.164 18.7585 55.4408L13.4366 57.8931C13.2744 57.9678 13.1042 58.0032 12.9366 58.0032ZM23.5802 53.0986C23.127 53.0986 22.6934 52.8399 22.4916 52.4007C22.215 51.7992 22.478 51.0872 23.0788 50.8103L28.4005 48.3579C29.0015 48.081 29.7128 48.3443 29.9892 48.9457C30.2658 49.5472 30.0028 50.2594 29.402 50.5362L24.0803 52.9885C23.918 53.0632 23.7478 53.0986 23.5802 53.0986ZM103.009 50.2345C102.556 50.2345 102.122 49.9757 101.92 49.5365L99.4705 44.2089C99.1939 43.6074 99.4569 42.8952 100.058 42.6185C100.658 42.3414 101.37 42.6048 101.646 43.2063L104.096 48.534C104.372 49.1354 104.11 49.8475 103.509 50.1244C103.347 50.1991 103.176 50.2345 103.009 50.2345ZM34.2239 48.1941C33.7706 48.1941 33.3371 47.9353 33.1353 47.4961C32.8587 46.8946 33.1217 46.1826 33.7225 45.9057L39.0444 43.4533C39.6453 43.1762 40.3566 43.4397 40.633 44.0411C40.9096 44.6426 40.6466 45.3548 40.0458 45.6316L34.7239 48.084C34.5617 48.1587 34.3915 48.1941 34.2239 48.1941ZM44.8676 43.2895C44.4143 43.2895 43.9808 43.0307 43.7788 42.5915C43.5021 41.9901 43.7652 41.278 44.3659 41.0011L49.6879 38.5487C50.289 38.2721 51.0001 38.5351 51.2765 39.1366C51.5531 39.738 51.2901 40.4502 50.6893 40.727L45.3674 43.1794C45.2052 43.2541 45.035 43.2895 44.8674 43.2895H44.8676ZM98.1096 39.579C97.6565 39.579 97.2228 39.3203 97.021 38.8811L94.5713 33.5533C94.2947 32.9518 94.5577 32.2396 95.1585 31.9629C95.7595 31.6861 96.4707 31.9492 96.7472 32.5507L99.1968 37.8785C99.4733 38.48 99.2105 39.1922 98.6097 39.4689C98.4474 39.5436 98.2772 39.579 98.1096 39.579ZM55.5114 38.3849C55.0581 38.3849 54.6246 38.1261 54.4227 37.6869C54.1461 37.0855 54.4091 36.3733 55.0099 36.0965L60.3317 33.6441C60.9326 33.3675 61.6439 33.6305 61.9203 34.232C62.197 34.8334 61.934 35.5456 61.3332 35.8224L56.0114 38.2748C55.8492 38.3495 55.6789 38.3849 55.5114 38.3849ZM66.155 33.4803C65.7019 33.4803 65.2682 33.2215 65.0664 32.7823C64.7898 32.1809 65.0528 31.4687 65.6536 31.1919L70.9755 28.7395C71.5763 28.4625 72.2875 28.7259 72.5642 29.3274C72.8408 29.9288 72.5778 30.641 71.977 30.9178L66.6551 33.3702C66.4928 33.4449 66.3226 33.4803 66.155 33.4803ZM92.8318 29.1455C92.5012 29.1455 92.1724 29.0094 91.9356 28.7424C90.7852 27.4444 89.2882 26.5124 87.6069 26.0469C86.9694 25.8704 86.5956 25.21 86.7718 24.5717C86.9481 23.9335 87.6077 23.5594 88.2453 23.7357C90.3734 24.3247 92.2691 25.5056 93.7272 27.1505C94.1664 27.6458 94.1212 28.4036 93.6265 28.8431C93.3984 29.0456 93.1146 29.1454 92.832 29.1454L92.8318 29.1455ZM76.7987 28.5757C76.3454 28.5757 75.9119 28.317 75.71 27.8778C75.4334 27.2763 75.6964 26.5641 76.2972 26.2873L80.4604 24.3689C80.8916 24.1703 81.338 23.9971 81.7875 23.8542C82.4177 23.654 83.0911 24.0032 83.2912 24.6344C83.4913 25.2655 83.1424 25.9396 82.512 26.1398C82.1567 26.2527 81.8035 26.3898 81.4619 26.5472L77.2987 28.4656C77.1365 28.5403 76.9662 28.5757 76.7987 28.5757Z" fill="#102B4B"/>
</g>
<g id="Group_4">
<path id="Vector_5" d="M72.1527 1.19895H152.887C158.505 1.19895 163.067 5.76553 163.067 11.3903V115.558C163.067 121.183 158.505 125.749 152.887 125.749H72.1527C66.5342 125.749 61.9727 121.182 61.9727 115.558V11.3901C61.9727 5.76537 66.5342 1.19879 72.1527 1.19879V1.19895Z" fill="white"/>
<path id="Vector_6" d="M152.915 126.948H147.029C146.367 126.948 145.831 126.411 145.831 125.749C145.831 125.087 146.367 124.55 147.029 124.55H152.915C153.577 124.55 154.113 125.087 154.113 125.749C154.113 126.411 153.577 126.948 152.915 126.948ZM141.17 126.948H135.312C134.65 126.948 134.114 126.411 134.114 125.749C134.114 125.087 134.65 124.55 135.312 124.55H141.17C141.832 124.55 142.368 125.087 142.368 125.749C142.368 126.411 141.832 126.948 141.17 126.948ZM129.453 126.948H123.595C122.933 126.948 122.397 126.411 122.397 125.749C122.397 125.087 122.933 124.55 123.595 124.55H129.453C130.115 124.55 130.651 125.087 130.651 125.749C130.651 126.411 130.115 126.948 129.453 126.948ZM117.736 126.948H111.878C111.216 126.948 110.68 126.411 110.68 125.749C110.68 125.087 111.216 124.55 111.878 124.55H117.736C118.397 124.55 118.934 125.087 118.934 125.749C118.934 126.411 118.397 126.948 117.736 126.948ZM106.019 126.948H100.16C99.4991 126.948 98.9628 126.411 98.9628 125.749C98.9628 125.087 99.499 124.55 100.16 124.55H106.019C106.681 124.55 107.217 125.087 107.217 125.749C107.217 126.411 106.681 126.948 106.019 126.948ZM94.3019 126.948H88.4434C87.7819 126.948 87.2457 126.411 87.2457 125.749C87.2457 125.087 87.7819 124.55 88.4434 124.55H94.3019C94.9633 124.55 95.4996 125.087 95.4996 125.749C95.4996 126.411 94.9634 126.948 94.3019 126.948ZM82.5848 126.948H76.7262C76.0649 126.948 75.5286 126.411 75.5286 125.749C75.5286 125.087 76.0647 124.55 76.7262 124.55H82.5848C83.2461 124.55 83.7825 125.087 83.7825 125.749C83.7825 126.411 83.2463 126.948 82.5848 126.948ZM70.873 126.868C70.8233 126.868 70.7729 126.865 70.7223 126.859C68.5396 126.584 66.4952 125.685 64.81 124.259C64.3049 123.831 64.2417 123.074 64.6688 122.569C65.096 122.063 65.8517 122 66.3567 122.428C67.6866 123.554 69.2995 124.263 71.0207 124.48C71.677 124.562 72.1422 125.162 72.0599 125.819C71.9839 126.425 71.468 126.868 70.8732 126.868H70.873ZM158.45 125.294C158.06 125.294 157.677 125.102 157.447 124.75C157.085 124.196 157.241 123.453 157.794 123.091C159.252 122.137 160.396 120.793 161.101 119.204C161.369 118.599 162.077 118.327 162.682 118.595C163.286 118.864 163.558 119.572 163.29 120.177C162.397 122.189 160.95 123.891 159.105 125.098C158.903 125.231 158.675 125.294 158.45 125.294ZM62.4069 119.711C61.8928 119.711 61.4175 119.377 61.261 118.859C60.9387 117.792 60.7754 116.681 60.7755 115.558V112.69C60.7755 112.028 61.3117 111.492 61.9732 111.492C62.6347 111.492 63.1709 112.028 63.1709 112.69V115.558C63.1709 116.446 63.2997 117.323 63.5539 118.165C63.7454 118.799 63.3873 119.468 62.7543 119.66C62.6386 119.695 62.5219 119.711 62.4071 119.711L62.4069 119.711ZM163.067 115.148C162.406 115.148 161.87 114.611 161.87 113.949V108.084C161.87 107.422 162.406 106.885 163.067 106.885C163.729 106.885 164.265 107.422 164.265 108.084V113.949C164.265 114.611 163.729 115.148 163.067 115.148ZM61.9731 108.024C61.3117 108.024 60.7754 107.488 60.7754 106.826V100.961C60.7754 100.298 61.3116 99.7617 61.9731 99.7617C62.6346 99.7617 63.1708 100.298 63.1708 100.961V106.826C63.1708 107.488 62.6346 108.024 61.9731 108.024ZM163.067 103.418C162.406 103.418 161.87 102.881 161.87 102.219V96.3537C161.87 95.6916 162.406 95.1547 163.067 95.1547C163.729 95.1547 164.265 95.6915 164.265 96.3537V102.219C164.265 102.881 163.729 103.418 163.067 103.418ZM61.9731 96.2943C61.3117 96.2943 60.7754 95.7576 60.7754 95.0953V89.2303C60.7754 88.568 61.3116 88.0313 61.9731 88.0313C62.6346 88.0313 63.1708 88.568 63.1708 89.2303V95.0953C63.1708 95.7574 62.6346 96.2943 61.9731 96.2943ZM163.067 91.6875C162.406 91.6875 161.87 91.1507 161.87 90.4885V84.6235C161.87 83.9614 162.406 83.4244 163.067 83.4244C163.729 83.4244 164.265 83.9612 164.265 84.6235V90.4885C164.265 91.1506 163.729 91.6875 163.067 91.6875ZM61.9731 84.5642C61.3117 84.5642 60.7754 84.0275 60.7754 83.3652V77.5002C60.7754 76.8381 61.3116 76.3012 61.9731 76.3012C62.6346 76.3012 63.1708 76.838 63.1708 77.5002V83.3652C63.1708 84.0275 62.6346 84.5642 61.9731 84.5642ZM163.067 79.9574C162.406 79.9574 161.87 79.4206 161.87 78.7584V72.8934C161.87 72.2313 162.406 71.6944 163.067 71.6944C163.729 71.6944 164.265 72.2311 164.265 72.8934V78.7584C164.265 79.4206 163.729 79.9574 163.067 79.9574ZM61.9731 72.8343C61.3117 72.8343 60.7754 72.2975 60.7754 71.6353V65.7702C60.7754 65.108 61.3116 64.5712 61.9731 64.5712C62.6346 64.5712 63.1708 65.108 63.1708 65.7702V71.6353C63.1708 72.2974 62.6346 72.8343 61.9731 72.8343ZM163.067 68.2275C162.406 68.2275 161.87 67.6907 161.87 67.0285V61.1634C161.87 60.5013 162.406 59.9644 163.067 59.9644C163.729 59.9644 164.265 60.5012 164.265 61.1634V67.0285C164.265 67.6905 163.729 68.2275 163.067 68.2275ZM61.9731 61.1042C61.3117 61.1042 60.7754 60.5674 60.7754 59.9052V54.0402C60.7754 53.3781 61.3116 52.8411 61.9731 52.8411C62.6346 52.8411 63.1708 53.3779 63.1708 54.0402V59.9052C63.1708 60.5674 62.6346 61.1042 61.9731 61.1042ZM163.067 56.4974C162.406 56.4974 161.87 55.9606 161.87 55.2984V49.4333C161.87 48.7712 162.406 48.2343 163.067 48.2343C163.729 48.2343 164.265 48.7711 164.265 49.4333V55.2984C164.265 55.9606 163.729 56.4974 163.067 56.4974ZM61.9731 49.3743C61.3117 49.3743 60.7754 48.8375 60.7754 48.1753V42.3102C60.7754 41.648 61.3116 41.1112 61.9731 41.1112C62.6346 41.1112 63.1708 41.648 63.1708 42.3102V48.1753C63.1708 48.8375 62.6346 49.3743 61.9731 49.3743ZM163.067 44.7674C162.406 44.7674 161.87 44.2307 161.87 43.5684V37.7034C161.87 37.0413 162.406 36.5044 163.067 36.5044C163.729 36.5044 164.265 37.0411 164.265 37.7034V43.5684C164.265 44.2305 163.729 44.7674 163.067 44.7674ZM61.9731 37.6442C61.3117 37.6442 60.7754 37.1074 60.7754 36.4452V30.5801C60.7754 29.918 61.3116 29.3811 61.9731 29.3811C62.6346 29.3811 63.1708 29.9179 63.1708 30.5801V36.4452C63.1708 37.1074 62.6346 37.6442 61.9731 37.6442ZM163.067 33.0373C162.406 33.0373 161.87 32.5006 161.87 31.8383V25.9733C161.87 25.3112 162.406 24.7743 163.067 24.7743C163.729 24.7743 164.265 25.311 164.265 25.9733V31.8383C164.265 32.5006 163.729 33.0373 163.067 33.0373ZM61.9731 25.9141C61.3117 25.9141 60.7754 25.3773 60.7754 24.7151V18.85C60.7754 18.1878 61.3116 17.651 61.9731 17.651C62.6346 17.651 63.1708 18.1878 63.1708 18.85V24.7151C63.1708 25.3771 62.6346 25.9141 61.9731 25.9141ZM163.067 21.3072C162.406 21.3072 161.87 20.7705 161.87 20.1082V14.2432C161.87 13.5809 162.406 13.0442 163.067 13.0442C163.729 13.0442 164.265 13.5809 164.265 14.2432V20.1082C164.265 20.7703 163.729 21.3072 163.067 21.3072ZM61.9734 14.1841C61.312 14.1841 60.7757 13.6474 60.7757 12.9851V11.3902C60.7757 9.77748 61.1058 8.21822 61.7572 6.75622C62.0264 6.15147 62.7346 5.87971 63.3386 6.14943C63.9427 6.41915 64.2142 7.12806 63.9448 7.73266C63.4313 8.88546 63.1709 10.1161 63.1709 11.3902V12.9851C63.1709 13.6474 62.6347 14.1841 61.9732 14.1841H61.9734ZM162.629 9.62179C162.115 9.62179 161.64 9.28848 161.483 8.77112C160.979 7.11083 160.008 5.63819 158.675 4.51233C158.169 4.08551 158.105 3.32898 158.531 2.82275C158.958 2.31652 159.713 2.25214 160.219 2.67912C161.906 4.10399 163.136 5.96946 163.775 8.07365C163.967 8.70722 163.61 9.37697 162.977 9.56947C162.861 9.60487 162.744 9.62179 162.629 9.62179ZM66.6038 4.04494C66.2125 4.04494 65.8288 3.85307 65.5993 3.50049C65.2382 2.9457 65.3946 2.20296 65.9488 1.84145C67.7906 0.639624 69.9307 0.00307563 72.1377 -5.6992e-05H72.1392C72.7999 -5.6992e-05 73.336 0.535621 73.3369 1.19739C73.3378 1.85962 72.8023 2.39702 72.1409 2.39796C70.3983 2.40031 68.7094 2.90247 67.2566 3.85025C67.0548 3.98197 66.828 4.04494 66.6038 4.04494ZM154.156 2.47628C154.107 2.47628 154.057 2.47315 154.007 2.46688C153.639 2.42115 153.262 2.39781 152.887 2.39781H148.3C147.639 2.39781 147.103 1.86103 147.103 1.1988C147.103 0.536561 147.639 -0.000213623 148.3 -0.000213623H152.887C153.36 -0.000213623 153.836 0.029233 154.303 0.0871865C154.959 0.168791 155.425 0.767748 155.344 1.42482C155.268 2.03176 154.752 2.47612 154.156 2.47612V2.47628ZM142.442 2.39781H136.583C135.922 2.39781 135.386 1.86103 135.386 1.1988C135.386 0.536561 135.922 -0.000213623 136.583 -0.000213623H142.442C143.103 -0.000213623 143.639 0.536561 143.639 1.1988C143.639 1.86103 143.103 2.39781 142.442 2.39781ZM130.724 2.39781H124.866C124.205 2.39781 123.669 1.86103 123.669 1.1988C123.669 0.536561 124.205 -0.000213623 124.866 -0.000213623H130.724C131.386 -0.000213623 131.922 0.536561 131.922 1.1988C131.922 1.86103 131.386 2.39781 130.724 2.39781ZM119.007 2.39781H113.149C112.487 2.39781 111.951 1.86103 111.951 1.1988C111.951 0.536561 112.488 -0.000213623 113.149 -0.000213623H119.007C119.669 -0.000213623 120.205 0.536561 120.205 1.1988C120.205 1.86103 119.669 2.39781 119.007 2.39781ZM107.29 2.39781H101.432C100.77 2.39781 100.234 1.86103 100.234 1.1988C100.234 0.536561 100.77 -0.000213623 101.432 -0.000213623H107.29C107.952 -0.000213623 108.488 0.536561 108.488 1.1988C108.488 1.86103 107.952 2.39781 107.29 2.39781ZM95.5731 2.39781H89.7146C89.0531 2.39781 88.5169 1.86103 88.5169 1.1988C88.5169 0.536561 89.0531 -0.000213623 89.7146 -0.000213623H95.5731C96.2345 -0.000213623 96.7708 0.536561 96.7708 1.1988C96.7708 1.86103 96.2346 2.39781 95.5731 2.39781ZM83.856 2.39781H77.9975C77.3361 2.39781 76.7998 1.86103 76.7998 1.1988C76.7998 0.536561 77.336 -0.000213623 77.9975 -0.000213623H83.856C84.5174 -0.000213623 85.0537 0.536561 85.0537 1.1988C85.0537 1.86103 84.5175 2.39781 83.856 2.39781Z" fill="#102B4B"/>
</g>
<g id="Group_5">
<g id="Group_6">
<path id="Vector_7" d="M133.849 67.5729C133.542 67.5729 133.236 67.4558 133.002 67.2218L90.2726 24.4449C89.805 23.9767 89.805 23.2175 90.2726 22.7494C90.7403 22.2812 91.4986 22.2812 91.9663 22.7494L134.696 65.5261C135.163 65.9942 135.163 66.7534 134.696 67.2216C134.462 67.4558 134.155 67.5728 133.849 67.5728L133.849 67.5729Z" fill="#D7E2ED"/>
</g>
<g id="Group_7">
<path id="Vector_8" d="M91.1195 67.5729C90.813 67.5729 90.5065 67.4558 90.2726 67.2218C89.805 66.7536 89.805 65.9944 90.2726 65.5262L133.002 22.7494C133.47 22.2812 134.228 22.2812 134.696 22.7494C135.163 23.2175 135.163 23.9767 134.696 24.4449L91.9663 67.2216C91.7324 67.4558 91.4259 67.5728 91.1194 67.5728L91.1195 67.5729Z" fill="#D7E2ED"/>
</g>
</g>
<g id="Group_8">
<g id="Group_9">
<g id="Group_10">
<path id="Vector_9" d="M173.631 127.809L174.454 128.791C174.346 128.902 174.236 129.013 174.124 129.124C173.389 129.861 172.614 130.571 171.8 131.253C170.99 131.931 170.159 132.574 169.305 133.179C169.111 133.312 168.918 133.446 168.725 133.577C168.66 133.62 168.595 133.665 168.529 133.707L167.737 132.761L167.284 132.221L166.832 131.682C167.025 131.551 167.219 131.417 167.412 131.284C168.266 130.679 169.098 130.036 169.908 129.358C170.721 128.676 171.496 127.966 172.231 127.23C172.4 127.063 172.564 126.895 172.725 126.726L173.18 127.269L173.631 127.809Z" fill="#102B4B"/>
<path id="Vector_10" d="M189.046 146.198L188.109 146.986L183.152 151.152L180.099 147.514L179.65 146.976L179.2 146.438L174.824 141.216C174.888 141.172 174.951 141.127 175.015 141.081C175.205 140.947 175.396 140.809 175.585 140.672C176.426 140.055 177.253 139.406 178.064 138.728C178.874 138.045 179.654 137.342 180.407 136.618C180.519 136.511 180.632 136.403 180.743 136.292L185.097 141.487L185.544 142.025L185.996 142.559L188.26 145.26L189.046 146.198Z" fill="#102B4B"/>
</g>
<path id="Vector_11" d="M204.746 184.816L177.504 152.315C176.544 151.169 176.693 149.46 177.838 148.498L187.358 140.501C188.503 139.539 190.21 139.689 191.171 140.835L218.412 173.336C220.661 176.019 220.312 180.02 217.631 182.271L213.671 185.598C210.991 187.849 206.995 187.499 204.746 184.816V184.816Z" fill="#102B4B"/>
<path id="Vector_12" d="M181.788 137.538C181.677 137.649 181.565 137.757 181.452 137.864C180.699 138.588 179.919 139.292 179.11 139.974C178.299 140.652 177.471 141.301 176.63 141.918C176.441 142.055 176.25 142.193 176.06 142.327C175.996 142.373 175.933 142.418 175.869 142.463L173.574 139.725L173.123 139.187L172.67 138.646L168.529 133.707C168.595 133.665 168.66 133.62 168.725 133.577C168.919 133.445 169.112 133.311 169.305 133.179C170.16 132.574 170.991 131.931 171.801 131.253C172.615 130.571 173.389 129.86 174.125 129.124C174.237 129.013 174.346 128.902 174.454 128.791L178.567 133.694L179.017 134.233L179.471 134.773L181.788 137.538L181.788 137.538Z" fill="#102B4B"/>
<path id="Vector_13" d="M181.884 71.4614C165.429 51.8288 136.196 49.2687 116.585 65.7417C96.9765 82.2146 94.4167 111.48 110.874 131.113C126.341 149.566 153.101 152.936 172.546 139.588C172.739 139.457 172.932 139.323 173.123 139.187C173.313 139.053 173.504 138.914 173.692 138.778C174.534 138.161 175.361 137.512 176.173 136.833C176.982 136.151 177.762 135.447 178.514 134.724C178.683 134.563 178.851 134.401 179.017 134.233C179.185 134.069 179.349 133.903 179.512 133.735C196.019 116.885 197.353 89.9145 181.884 71.4616L181.884 71.4614ZM122.848 73.2135C138.312 60.225 161.446 62.2523 174.42 77.7314C186.404 92.0284 185.589 112.883 173.209 126.216C173.051 126.387 172.89 126.558 172.724 126.726C172.563 126.895 172.4 127.063 172.232 127.229C171.496 127.965 170.721 128.677 169.907 129.358C169.098 130.037 168.266 130.679 167.412 131.284C167.219 131.418 167.026 131.552 166.832 131.683C166.637 131.814 166.441 131.943 166.246 132.072C159.436 136.496 151.403 138.513 143.189 137.794C133.448 136.939 124.623 132.339 118.338 124.84C105.363 109.364 107.386 86.2022 122.848 73.2137V73.2135Z" fill="#102B4B"/>
<g id="Group_11">
<path id="Vector_14" d="M174.954 77.2803C161.71 61.4815 138.183 59.4196 122.399 72.6781C106.616 85.9343 104.558 109.492 117.8 125.291C130.054 139.913 151.115 142.768 166.696 132.612C166.894 132.483 167.087 132.352 167.282 132.22C167.476 132.089 167.669 131.958 167.859 131.819C168.711 131.219 169.543 130.577 170.357 129.896C171.169 129.214 171.944 128.503 172.684 127.77C172.85 127.603 173.016 127.435 173.179 127.269C173.342 127.098 173.503 126.929 173.664 126.758C186.361 113.16 187.208 91.9019 174.954 77.2803H174.954ZM173.209 126.216C173.05 126.387 172.89 126.558 172.724 126.726C172.563 126.895 172.399 127.063 172.231 127.229C171.496 127.965 170.721 128.677 169.907 129.358C169.097 130.037 168.265 130.679 167.411 131.284C167.218 131.417 167.025 131.551 166.832 131.683C166.636 131.814 166.441 131.943 166.245 132.072C159.435 136.495 151.402 138.513 143.188 137.794C133.447 136.939 124.622 132.339 118.337 124.84C105.363 109.364 107.385 86.202 122.847 73.2135C138.312 60.225 161.445 62.2523 174.419 77.7314C186.403 92.0283 185.589 112.883 173.209 126.216Z" fill="#102B4B"/>
<path id="Vector_15" d="M173.21 126.216C173.051 126.387 172.89 126.558 172.725 126.726C172.564 126.895 172.4 127.063 172.232 127.229C171.497 127.965 170.722 128.677 169.907 129.358C169.098 130.037 168.266 130.679 167.412 131.284C167.219 131.417 167.026 131.551 166.833 131.683C166.637 131.814 166.442 131.943 166.246 132.072C159.436 136.495 151.403 138.513 143.189 137.794C133.448 136.939 124.623 132.339 118.338 124.84C105.364 109.364 107.386 86.202 122.848 73.2135C138.313 60.225 161.446 62.2523 174.42 77.7314C186.404 92.0283 185.59 112.883 173.21 126.216Z" fill="white"/>
</g>
<path id="Vector_16" d="M211.235 173.079C210.892 173.079 210.551 172.935 210.309 172.655L188.121 147.001C187.678 146.49 187.734 145.715 188.245 145.272C188.756 144.829 189.53 144.885 189.972 145.397L212.16 171.051C212.602 171.562 212.547 172.337 212.036 172.779C211.804 172.98 211.519 173.079 211.235 173.079Z" fill="white"/>
</g>
</g>
</g>
<path id="Vector_17" d="M110.999 201.6C148.933 201.6 179.684 199.917 179.684 197.841C179.684 195.765 148.933 194.082 110.999 194.082C73.0657 194.082 42.3145 195.765 42.3145 197.841C42.3145 199.917 73.0657 201.6 110.999 201.6Z" fill="#D7E2ED"/>
</g>
<defs>
<clipPath id="clip0_4211_23164">
<rect width="221" height="202" fill="white" transform="translate(0.5)"/>
</clipPath>
</defs>
</svg>
